<?xml version="1.0" encoding="UTF-8"?>
<svg xmlns="http://www.w3.org/2000/svg" xmlns:xlink="http://www.w3.org/1999/xlink" width="310pt" height="149pt" viewBox="0 0 310 149" version="1.1">
<defs>
<clipPath id="clip1">
  <path d="M 45.527344 126.25 L 68.027344 126.25 L 68.027344 148.75 L 45.527344 148.75 Z M 45.527344 126.25 "/>
</clipPath>
<clipPath id="clip2">
  <path d="M 0.527344 126.25 L 23.027344 126.25 L 23.027344 148.75 L 0.527344 148.75 Z M 0.527344 126.25 "/>
</clipPath>
<clipPath id="clip3">
  <path d="M 90.527344 126.25 L 113.027344 126.25 L 113.027344 148.75 L 90.527344 148.75 Z M 90.527344 126.25 "/>
</clipPath>
<clipPath id="clip4">
  <path d="M 68.027344 126.25 L 90.527344 126.25 L 90.527344 148.75 L 68.027344 148.75 Z M 68.027344 126.25 "/>
</clipPath>
<clipPath id="clip5">
  <path d="M 23.027344 126.25 L 45.527344 126.25 L 45.527344 148.75 L 23.027344 148.75 Z M 23.027344 126.25 "/>
</clipPath>
<clipPath id="clip6">
  <path d="M 90.527344 81.25 L 113.027344 81.25 L 113.027344 103.75 L 90.527344 103.75 Z M 90.527344 81.25 "/>
</clipPath>
<clipPath id="clip7">
  <path d="M 90.527344 103.75 L 113.027344 103.75 L 113.027344 126.25 L 90.527344 126.25 Z M 90.527344 103.75 "/>
</clipPath>
<clipPath id="clip8">
  <path d="M 90.527344 58.75 L 113.027344 58.75 L 113.027344 81.25 L 90.527344 81.25 Z M 90.527344 58.75 "/>
</clipPath>
<clipPath id="clip9">
  <path d="M 90.527344 36.25 L 113.027344 36.25 L 113.027344 58.75 L 90.527344 58.75 Z M 90.527344 36.25 "/>
</clipPath>
<clipPath id="clip10">
  <path d="M 0.527344 81.25 L 23.027344 81.25 L 23.027344 103.75 L 0.527344 103.75 Z M 0.527344 81.25 "/>
</clipPath>
<clipPath id="clip11">
  <path d="M 0.527344 103.75 L 23.027344 103.75 L 23.027344 126.25 L 0.527344 126.25 Z M 0.527344 103.75 "/>
</clipPath>
<clipPath id="clip12">
  <path d="M 23.027344 36.25 L 45.527344 36.25 L 45.527344 58.75 L 23.027344 58.75 Z M 23.027344 36.25 "/>
</clipPath>
<clipPath id="clip13">
  <path d="M 0.527344 58.75 L 23.027344 58.75 L 23.027344 81.25 L 0.527344 81.25 Z M 0.527344 58.75 "/>
</clipPath>
<clipPath id="clip14">
  <path d="M 0.527344 36.25 L 23.027344 36.25 L 23.027344 58.75 L 0.527344 58.75 Z M 0.527344 36.25 "/>
</clipPath>
<clipPath id="clip15">
  <path d="M 68.027344 36.25 L 90.527344 36.25 L 90.527344 58.75 L 68.027344 58.75 Z M 68.027344 36.25 "/>
</clipPath>
<clipPath id="clip16">
  <path d="M 45.527344 36.25 L 68.027344 36.25 L 68.027344 58.75 L 45.527344 58.75 Z M 45.527344 36.25 "/>
</clipPath>
</defs>
<g id="surface1">
<g clip-path="url(#clip1)" clip-rule="nonzero">
<path style="fill-rule:nonzero;fill:rgb(100%,100%,100%);fill-opacity:1;stroke-width:2;stroke-linecap:round;stroke-linejoin:round;stroke:rgb(0%,0%,0%);stroke-opacity:1;stroke-dasharray:1,4;stroke-miterlimit:10;" d="M 48.421875 236 L 66.421875 236 L 66.421875 254 L 48.421875 254 Z M 48.421875 236 " transform="matrix(1.25,0,0,1.25,-15,-168.75)"/>
</g>
<path style=" stroke:none;fill-rule:nonzero;fill:rgb(0%,0%,0%);fill-opacity:1;" d="M 54.117188 137.101562 C 54.117188 136.152344 54.214844 135.382812 54.410156 134.796875 C 54.605469 134.210938 54.890625 133.761719 55.269531 133.449219 C 55.660156 133.136719 56.148438 132.980469 56.734375 132.980469 C 57.175781 132.980469 57.5625 133.074219 57.886719 133.253906 C 58.210938 133.425781 58.480469 133.671875 58.6875 133.996094 C 58.894531 134.324219 59.058594 134.71875 59.175781 135.1875 C 59.304688 135.65625 59.371094 136.296875 59.371094 137.101562 C 59.371094 138.039062 59.273438 138.800781 59.078125 139.386719 C 58.882812 139.960938 58.589844 140.410156 58.199219 140.734375 C 57.820312 141.046875 57.332031 141.203125 56.734375 141.203125 C 55.964844 141.203125 55.359375 140.925781 54.917969 140.363281 C 54.382812 139.699219 54.117188 138.613281 54.117188 137.101562 Z M 55.132812 137.101562 C 55.132812 138.417969 55.28125 139.296875 55.582031 139.738281 C 55.894531 140.167969 56.277344 140.382812 56.734375 140.382812 C 57.191406 140.382812 57.574219 140.167969 57.886719 139.738281 C 58.199219 139.296875 58.355469 138.417969 58.355469 137.101562 C 58.355469 135.773438 58.199219 134.894531 57.886719 134.464844 C 57.574219 134.023438 57.191406 133.800781 56.734375 133.800781 C 56.277344 133.800781 55.914062 133.992188 55.640625 134.367188 C 55.300781 134.863281 55.132812 135.773438 55.132812 137.101562 Z M 55.132812 137.101562 "/>
<g clip-path="url(#clip2)" clip-rule="nonzero">
<path style="fill-rule:nonzero;fill:rgb(69.803922%,85.098039%,100%);fill-opacity:1;stroke-width:2;stroke-linecap:round;stroke-linejoin:round;stroke:rgb(0%,0%,0%);stroke-opacity:1;stroke-dasharray:1,4;stroke-miterlimit:10;" d="M 12.421875 236 L 30.421875 236 L 30.421875 254 L 12.421875 254 Z M 12.421875 236 " transform="matrix(1.25,0,0,1.25,-15,-168.75)"/>
</g>
<path style=" stroke:none;fill-rule:nonzero;fill:rgb(0%,0%,0%);fill-opacity:1;" d="M 9.117188 137.101562 C 9.117188 136.152344 9.214844 135.382812 9.410156 134.796875 C 9.605469 134.210938 9.890625 133.761719 10.269531 133.449219 C 10.660156 133.136719 11.148438 132.980469 11.734375 132.980469 C 12.175781 132.980469 12.5625 133.074219 12.886719 133.253906 C 13.210938 133.425781 13.480469 133.671875 13.6875 133.996094 C 13.894531 134.324219 14.058594 134.71875 14.175781 135.1875 C 14.304688 135.65625 14.371094 136.296875 14.371094 137.101562 C 14.371094 138.039062 14.273438 138.800781 14.078125 139.386719 C 13.882812 139.960938 13.589844 140.410156 13.199219 140.734375 C 12.820312 141.046875 12.332031 141.203125 11.734375 141.203125 C 10.964844 141.203125 10.359375 140.925781 9.917969 140.363281 C 9.382812 139.699219 9.117188 138.613281 9.117188 137.101562 Z M 10.132812 137.101562 C 10.132812 138.417969 10.28125 139.296875 10.582031 139.738281 C 10.894531 140.167969 11.277344 140.382812 11.734375 140.382812 C 12.191406 140.382812 12.574219 140.167969 12.886719 139.738281 C 13.199219 139.296875 13.355469 138.417969 13.355469 137.101562 C 13.355469 135.773438 13.199219 134.894531 12.886719 134.464844 C 12.574219 134.023438 12.191406 133.800781 11.734375 133.800781 C 11.277344 133.800781 10.914062 133.992188 10.640625 134.367188 C 10.300781 134.863281 10.132812 135.773438 10.132812 137.101562 Z M 10.132812 137.101562 "/>
<g clip-path="url(#clip3)" clip-rule="nonzero">
<path style="fill-rule:nonzero;fill:rgb(100%,100%,100%);fill-opacity:1;stroke-width:2;stroke-linecap:round;stroke-linejoin:round;stroke:rgb(0%,0%,0%);stroke-opacity:1;stroke-dasharray:1,4;stroke-miterlimit:10;" d="M 84.421875 236 L 102.421875 236 L 102.421875 254 L 84.421875 254 Z M 84.421875 236 " transform="matrix(1.25,0,0,1.25,-15,-168.75)"/>
</g>
<path style=" stroke:none;fill-rule:nonzero;fill:rgb(0%,0%,0%);fill-opacity:1;" d="M 99.117188 137.101562 C 99.117188 136.152344 99.214844 135.382812 99.410156 134.796875 C 99.605469 134.210938 99.890625 133.761719 100.269531 133.449219 C 100.660156 133.136719 101.148438 132.980469 101.734375 132.980469 C 102.175781 132.980469 102.5625 133.074219 102.886719 133.253906 C 103.210938 133.425781 103.480469 133.671875 103.6875 133.996094 C 103.894531 134.324219 104.058594 134.71875 104.175781 135.1875 C 104.304688 135.65625 104.371094 136.296875 104.371094 137.101562 C 104.371094 138.039062 104.273438 138.800781 104.078125 139.386719 C 103.882812 139.960938 103.589844 140.410156 103.199219 140.734375 C 102.820312 141.046875 102.332031 141.203125 101.734375 141.203125 C 100.964844 141.203125 100.359375 140.925781 99.917969 140.363281 C 99.382812 139.699219 99.117188 138.613281 99.117188 137.101562 Z M 100.132812 137.101562 C 100.132812 138.417969 100.28125 139.296875 100.582031 139.738281 C 100.894531 140.167969 101.277344 140.382812 101.734375 140.382812 C 102.191406 140.382812 102.574219 140.167969 102.886719 139.738281 C 103.199219 139.296875 103.355469 138.417969 103.355469 137.101562 C 103.355469 135.773438 103.199219 134.894531 102.886719 134.464844 C 102.574219 134.023438 102.191406 133.800781 101.734375 133.800781 C 101.277344 133.800781 100.914062 133.992188 100.640625 134.367188 C 100.300781 134.863281 100.132812 135.773438 100.132812 137.101562 Z M 100.132812 137.101562 "/>
<g clip-path="url(#clip4)" clip-rule="nonzero">
<path style="fill-rule:nonzero;fill:rgb(100%,100%,100%);fill-opacity:1;stroke-width:2;stroke-linecap:round;stroke-linejoin:round;stroke:rgb(0%,0%,0%);stroke-opacity:1;stroke-dasharray:1,4;stroke-miterlimit:10;" d="M 66.421875 236 L 84.421875 236 L 84.421875 254 L 66.421875 254 Z M 66.421875 236 " transform="matrix(1.25,0,0,1.25,-15,-168.75)"/>
</g>
<path style=" stroke:none;fill-rule:nonzero;fill:rgb(0%,0%,0%);fill-opacity:1;" d="M 76.617188 137.101562 C 76.617188 136.152344 76.714844 135.382812 76.910156 134.796875 C 77.105469 134.210938 77.390625 133.761719 77.769531 133.449219 C 78.160156 133.136719 78.648438 132.980469 79.234375 132.980469 C 79.675781 132.980469 80.0625 133.074219 80.386719 133.253906 C 80.710938 133.425781 80.980469 133.671875 81.1875 133.996094 C 81.394531 134.324219 81.558594 134.71875 81.675781 135.1875 C 81.804688 135.65625 81.871094 136.296875 81.871094 137.101562 C 81.871094 138.039062 81.773438 138.800781 81.578125 139.386719 C 81.382812 139.960938 81.089844 140.410156 80.699219 140.734375 C 80.320312 141.046875 79.832031 141.203125 79.234375 141.203125 C 78.464844 141.203125 77.859375 140.925781 77.417969 140.363281 C 76.882812 139.699219 76.617188 138.613281 76.617188 137.101562 Z M 77.632812 137.101562 C 77.632812 138.417969 77.78125 139.296875 78.082031 139.738281 C 78.394531 140.167969 78.777344 140.382812 79.234375 140.382812 C 79.691406 140.382812 80.074219 140.167969 80.386719 139.738281 C 80.699219 139.296875 80.855469 138.417969 80.855469 137.101562 C 80.855469 135.773438 80.699219 134.894531 80.386719 134.464844 C 80.074219 134.023438 79.691406 133.800781 79.234375 133.800781 C 78.777344 133.800781 78.414062 133.992188 78.140625 134.367188 C 77.800781 134.863281 77.632812 135.773438 77.632812 137.101562 Z M 77.632812 137.101562 "/>
<g clip-path="url(#clip5)" clip-rule="nonzero">
<path style="fill-rule:nonzero;fill:rgb(69.803922%,85.098039%,100%);fill-opacity:1;stroke-width:2;stroke-linecap:round;stroke-linejoin:round;stroke:rgb(0%,0%,0%);stroke-opacity:1;stroke-dasharray:1,4;stroke-miterlimit:10;" d="M 30.421875 236 L 48.421875 236 L 48.421875 254 L 30.421875 254 Z M 30.421875 236 " transform="matrix(1.25,0,0,1.25,-15,-168.75)"/>
</g>
<path style=" stroke:none;fill-rule:nonzero;fill:rgb(0%,0%,0%);fill-opacity:1;" d="M 31.617188 137.101562 C 31.617188 136.152344 31.714844 135.382812 31.910156 134.796875 C 32.105469 134.210938 32.390625 133.761719 32.769531 133.449219 C 33.160156 133.136719 33.648438 132.980469 34.234375 132.980469 C 34.675781 132.980469 35.0625 133.074219 35.386719 133.253906 C 35.710938 133.425781 35.980469 133.671875 36.1875 133.996094 C 36.394531 134.324219 36.558594 134.71875 36.675781 135.1875 C 36.804688 135.65625 36.871094 136.296875 36.871094 137.101562 C 36.871094 138.039062 36.773438 138.800781 36.578125 139.386719 C 36.382812 139.960938 36.089844 140.410156 35.699219 140.734375 C 35.320312 141.046875 34.832031 141.203125 34.234375 141.203125 C 33.464844 141.203125 32.859375 140.925781 32.417969 140.363281 C 31.882812 139.699219 31.617188 138.613281 31.617188 137.101562 Z M 32.632812 137.101562 C 32.632812 138.417969 32.78125 139.296875 33.082031 139.738281 C 33.394531 140.167969 33.777344 140.382812 34.234375 140.382812 C 34.691406 140.382812 35.074219 140.167969 35.386719 139.738281 C 35.699219 139.296875 35.855469 138.417969 35.855469 137.101562 C 35.855469 135.773438 35.699219 134.894531 35.386719 134.464844 C 35.074219 134.023438 34.691406 133.800781 34.234375 133.800781 C 33.777344 133.800781 33.414062 133.992188 33.140625 134.367188 C 32.800781 134.863281 32.632812 135.773438 32.632812 137.101562 Z M 32.632812 137.101562 "/>
<g clip-path="url(#clip6)" clip-rule="nonzero">
<path style="fill-rule:nonzero;fill:rgb(100%,100%,100%);fill-opacity:1;stroke-width:2;stroke-linecap:round;stroke-linejoin:round;stroke:rgb(0%,0%,0%);stroke-opacity:1;stroke-dasharray:1,4;stroke-miterlimit:10;" d="M 84.421875 200 L 102.421875 200 L 102.421875 218 L 84.421875 218 Z M 84.421875 200 " transform="matrix(1.25,0,0,1.25,-15,-168.75)"/>
</g>
<path style=" stroke:none;fill-rule:nonzero;fill:rgb(0%,0%,0%);fill-opacity:1;" d="M 99.117188 92.101562 C 99.117188 91.152344 99.214844 90.382812 99.410156 89.796875 C 99.605469 89.210938 99.890625 88.761719 100.269531 88.449219 C 100.660156 88.136719 101.148438 87.980469 101.734375 87.980469 C 102.175781 87.980469 102.5625 88.074219 102.886719 88.253906 C 103.210938 88.425781 103.480469 88.671875 103.6875 88.996094 C 103.894531 89.324219 104.058594 89.71875 104.175781 90.1875 C 104.304688 90.65625 104.371094 91.296875 104.371094 92.101562 C 104.371094 93.039062 104.273438 93.800781 104.078125 94.386719 C 103.882812 94.960938 103.589844 95.410156 103.199219 95.734375 C 102.820312 96.046875 102.332031 96.203125 101.734375 96.203125 C 100.964844 96.203125 100.359375 95.925781 99.917969 95.363281 C 99.382812 94.699219 99.117188 93.613281 99.117188 92.101562 Z M 100.132812 92.101562 C 100.132812 93.417969 100.28125 94.296875 100.582031 94.738281 C 100.894531 95.167969 101.277344 95.382812 101.734375 95.382812 C 102.191406 95.382812 102.574219 95.167969 102.886719 94.738281 C 103.199219 94.296875 103.355469 93.417969 103.355469 92.101562 C 103.355469 90.773438 103.199219 89.894531 102.886719 89.464844 C 102.574219 89.023438 102.191406 88.800781 101.734375 88.800781 C 101.277344 88.800781 100.914062 88.992188 100.640625 89.367188 C 100.300781 89.863281 100.132812 90.773438 100.132812 92.101562 Z M 100.132812 92.101562 "/>
<g clip-path="url(#clip7)" clip-rule="nonzero">
<path style="fill-rule:nonzero;fill:rgb(100%,100%,100%);fill-opacity:1;stroke-width:2;stroke-linecap:round;stroke-linejoin:round;stroke:rgb(0%,0%,0%);stroke-opacity:1;stroke-dasharray:1,4;stroke-miterlimit:10;" d="M 84.421875 218 L 102.421875 218 L 102.421875 236 L 84.421875 236 Z M 84.421875 218 " transform="matrix(1.25,0,0,1.25,-15,-168.75)"/>
</g>
<path style=" stroke:none;fill-rule:nonzero;fill:rgb(0%,0%,0%);fill-opacity:1;" d="M 99.117188 114.601562 C 99.117188 113.652344 99.214844 112.882812 99.410156 112.296875 C 99.605469 111.710938 99.890625 111.261719 100.269531 110.949219 C 100.660156 110.636719 101.148438 110.480469 101.734375 110.480469 C 102.175781 110.480469 102.5625 110.574219 102.886719 110.753906 C 103.210938 110.925781 103.480469 111.171875 103.6875 111.496094 C 103.894531 111.824219 104.058594 112.21875 104.175781 112.6875 C 104.304688 113.15625 104.371094 113.796875 104.371094 114.601562 C 104.371094 115.539062 104.273438 116.300781 104.078125 116.886719 C 103.882812 117.460938 103.589844 117.910156 103.199219 118.234375 C 102.820312 118.546875 102.332031 118.703125 101.734375 118.703125 C 100.964844 118.703125 100.359375 118.425781 99.917969 117.863281 C 99.382812 117.199219 99.117188 116.113281 99.117188 114.601562 Z M 100.132812 114.601562 C 100.132812 115.917969 100.28125 116.796875 100.582031 117.238281 C 100.894531 117.667969 101.277344 117.882812 101.734375 117.882812 C 102.191406 117.882812 102.574219 117.667969 102.886719 117.238281 C 103.199219 116.796875 103.355469 115.917969 103.355469 114.601562 C 103.355469 113.273438 103.199219 112.394531 102.886719 111.964844 C 102.574219 111.523438 102.191406 111.300781 101.734375 111.300781 C 101.277344 111.300781 100.914062 111.492188 100.640625 111.867188 C 100.300781 112.363281 100.132812 113.273438 100.132812 114.601562 Z M 100.132812 114.601562 "/>
<g clip-path="url(#clip8)" clip-rule="nonzero">
<path style="fill-rule:nonzero;fill:rgb(100%,100%,100%);fill-opacity:1;stroke-width:2;stroke-linecap:round;stroke-linejoin:round;stroke:rgb(0%,0%,0%);stroke-opacity:1;stroke-dasharray:1,4;stroke-miterlimit:10;" d="M 84.421875 182 L 102.421875 182 L 102.421875 200 L 84.421875 200 Z M 84.421875 182 " transform="matrix(1.25,0,0,1.25,-15,-168.75)"/>
</g>
<path style=" stroke:none;fill-rule:nonzero;fill:rgb(0%,0%,0%);fill-opacity:1;" d="M 99.117188 69.601562 C 99.117188 68.652344 99.214844 67.882812 99.410156 67.296875 C 99.605469 66.710938 99.890625 66.261719 100.269531 65.949219 C 100.660156 65.636719 101.148438 65.480469 101.734375 65.480469 C 102.175781 65.480469 102.5625 65.574219 102.886719 65.753906 C 103.210938 65.925781 103.480469 66.171875 103.6875 66.496094 C 103.894531 66.824219 104.058594 67.21875 104.175781 67.6875 C 104.304688 68.15625 104.371094 68.796875 104.371094 69.601562 C 104.371094 70.539062 104.273438 71.300781 104.078125 71.886719 C 103.882812 72.460938 103.589844 72.910156 103.199219 73.234375 C 102.820312 73.546875 102.332031 73.703125 101.734375 73.703125 C 100.964844 73.703125 100.359375 73.425781 99.917969 72.863281 C 99.382812 72.199219 99.117188 71.113281 99.117188 69.601562 Z M 100.132812 69.601562 C 100.132812 70.917969 100.28125 71.796875 100.582031 72.238281 C 100.894531 72.667969 101.277344 72.882812 101.734375 72.882812 C 102.191406 72.882812 102.574219 72.667969 102.886719 72.238281 C 103.199219 71.796875 103.355469 70.917969 103.355469 69.601562 C 103.355469 68.273438 103.199219 67.394531 102.886719 66.964844 C 102.574219 66.523438 102.191406 66.300781 101.734375 66.300781 C 101.277344 66.300781 100.914062 66.492188 100.640625 66.867188 C 100.300781 67.363281 100.132812 68.273438 100.132812 69.601562 Z M 100.132812 69.601562 "/>
<g clip-path="url(#clip9)" clip-rule="nonzero">
<path style="fill-rule:nonzero;fill:rgb(100%,100%,100%);fill-opacity:1;stroke-width:2;stroke-linecap:round;stroke-linejoin:round;stroke:rgb(0%,0%,0%);stroke-opacity:1;stroke-dasharray:1,4;stroke-miterlimit:10;" d="M 84.421875 164 L 102.421875 164 L 102.421875 182 L 84.421875 182 Z M 84.421875 164 " transform="matrix(1.25,0,0,1.25,-15,-168.75)"/>
</g>
<path style=" stroke:none;fill-rule:nonzero;fill:rgb(0%,0%,0%);fill-opacity:1;" d="M 99.117188 47.101562 C 99.117188 46.152344 99.214844 45.382812 99.410156 44.796875 C 99.605469 44.210938 99.890625 43.761719 100.269531 43.449219 C 100.660156 43.136719 101.148438 42.980469 101.734375 42.980469 C 102.175781 42.980469 102.5625 43.074219 102.886719 43.253906 C 103.210938 43.425781 103.480469 43.671875 103.6875 43.996094 C 103.894531 44.324219 104.058594 44.71875 104.175781 45.1875 C 104.304688 45.65625 104.371094 46.296875 104.371094 47.101562 C 104.371094 48.039062 104.273438 48.800781 104.078125 49.386719 C 103.882812 49.960938 103.589844 50.410156 103.199219 50.734375 C 102.820312 51.046875 102.332031 51.203125 101.734375 51.203125 C 100.964844 51.203125 100.359375 50.925781 99.917969 50.363281 C 99.382812 49.699219 99.117188 48.613281 99.117188 47.101562 Z M 100.132812 47.101562 C 100.132812 48.417969 100.28125 49.296875 100.582031 49.738281 C 100.894531 50.167969 101.277344 50.382812 101.734375 50.382812 C 102.191406 50.382812 102.574219 50.167969 102.886719 49.738281 C 103.199219 49.296875 103.355469 48.417969 103.355469 47.101562 C 103.355469 45.773438 103.199219 44.894531 102.886719 44.464844 C 102.574219 44.023438 102.191406 43.800781 101.734375 43.800781 C 101.277344 43.800781 100.914062 43.992188 100.640625 44.367188 C 100.300781 44.863281 100.132812 45.773438 100.132812 47.101562 Z M 100.132812 47.101562 "/>
<g clip-path="url(#clip10)" clip-rule="nonzero">
<path style="fill-rule:nonzero;fill:rgb(100%,100%,100%);fill-opacity:1;stroke-width:2;stroke-linecap:round;stroke-linejoin:round;stroke:rgb(0%,0%,0%);stroke-opacity:1;stroke-dasharray:1,4;stroke-miterlimit:10;" d="M 12.421875 200 L 30.421875 200 L 30.421875 218 L 12.421875 218 Z M 12.421875 200 " transform="matrix(1.25,0,0,1.25,-15,-168.75)"/>
</g>
<path style=" stroke:none;fill-rule:nonzero;fill:rgb(0%,0%,0%);fill-opacity:1;" d="M 9.117188 92.101562 C 9.117188 91.152344 9.214844 90.382812 9.410156 89.796875 C 9.605469 89.210938 9.890625 88.761719 10.269531 88.449219 C 10.660156 88.136719 11.148438 87.980469 11.734375 87.980469 C 12.175781 87.980469 12.5625 88.074219 12.886719 88.253906 C 13.210938 88.425781 13.480469 88.671875 13.6875 88.996094 C 13.894531 89.324219 14.058594 89.71875 14.175781 90.1875 C 14.304688 90.65625 14.371094 91.296875 14.371094 92.101562 C 14.371094 93.039062 14.273438 93.800781 14.078125 94.386719 C 13.882812 94.960938 13.589844 95.410156 13.199219 95.734375 C 12.820312 96.046875 12.332031 96.203125 11.734375 96.203125 C 10.964844 96.203125 10.359375 95.925781 9.917969 95.363281 C 9.382812 94.699219 9.117188 93.613281 9.117188 92.101562 Z M 10.132812 92.101562 C 10.132812 93.417969 10.28125 94.296875 10.582031 94.738281 C 10.894531 95.167969 11.277344 95.382812 11.734375 95.382812 C 12.191406 95.382812 12.574219 95.167969 12.886719 94.738281 C 13.199219 94.296875 13.355469 93.417969 13.355469 92.101562 C 13.355469 90.773438 13.199219 89.894531 12.886719 89.464844 C 12.574219 89.023438 12.191406 88.800781 11.734375 88.800781 C 11.277344 88.800781 10.914062 88.992188 10.640625 89.367188 C 10.300781 89.863281 10.132812 90.773438 10.132812 92.101562 Z M 10.132812 92.101562 "/>
<path style="fill-rule:nonzero;fill:rgb(69.803922%,85.098039%,100%);fill-opacity:1;stroke-width:1;stroke-linecap:round;stroke-linejoin:round;stroke:rgb(0%,0%,0%);stroke-opacity:1;stroke-miterlimit:10;" d="M 48.421875 182 L 66.421875 182 L 66.421875 200 L 48.421875 200 Z M 48.421875 182 " transform="matrix(1.25,0,0,1.25,-15,-168.75)"/>
<path style=" stroke:none;fill-rule:nonzero;fill:rgb(0%,0%,0%);fill-opacity:1;" d="M 57.847656 73.566406 L 56.851562 73.566406 L 56.851562 67.257812 C 56.617188 67.492188 56.304688 67.726562 55.914062 67.960938 C 55.523438 68.183594 55.179688 68.347656 54.878906 68.449219 L 54.878906 67.492188 C 55.425781 67.246094 55.90625 66.941406 56.324219 66.574219 C 56.742188 66.199219 57.035156 65.832031 57.203125 65.480469 L 57.847656 65.480469 Z M 57.847656 73.566406 "/>
<path style="fill-rule:nonzero;fill:rgb(100%,100%,100%);fill-opacity:1;stroke-width:1;stroke-linecap:round;stroke-linejoin:round;stroke:rgb(0%,0%,0%);stroke-opacity:1;stroke-miterlimit:10;" d="M 30.421875 182 L 48.421875 182 L 48.421875 200 L 30.421875 200 Z M 30.421875 182 " transform="matrix(1.25,0,0,1.25,-15,-168.75)"/>
<path style=" stroke:none;fill-rule:nonzero;fill:rgb(0%,0%,0%);fill-opacity:1;" d="M 31.617188 69.601562 C 31.617188 68.652344 31.714844 67.882812 31.910156 67.296875 C 32.105469 66.710938 32.390625 66.261719 32.769531 65.949219 C 33.160156 65.636719 33.648438 65.480469 34.234375 65.480469 C 34.675781 65.480469 35.0625 65.574219 35.386719 65.753906 C 35.710938 65.925781 35.980469 66.171875 36.1875 66.496094 C 36.394531 66.824219 36.558594 67.21875 36.675781 67.6875 C 36.804688 68.15625 36.871094 68.796875 36.871094 69.601562 C 36.871094 70.539062 36.773438 71.300781 36.578125 71.886719 C 36.382812 72.460938 36.089844 72.910156 35.699219 73.234375 C 35.320312 73.546875 34.832031 73.703125 34.234375 73.703125 C 33.464844 73.703125 32.859375 73.425781 32.417969 72.863281 C 31.882812 72.199219 31.617188 71.113281 31.617188 69.601562 Z M 32.632812 69.601562 C 32.632812 70.917969 32.78125 71.796875 33.082031 72.238281 C 33.394531 72.667969 33.777344 72.882812 34.234375 72.882812 C 34.691406 72.882812 35.074219 72.667969 35.386719 72.238281 C 35.699219 71.796875 35.855469 70.917969 35.855469 69.601562 C 35.855469 68.273438 35.699219 67.394531 35.386719 66.964844 C 35.074219 66.523438 34.691406 66.300781 34.234375 66.300781 C 33.777344 66.300781 33.414062 66.492188 33.140625 66.867188 C 32.800781 67.363281 32.632812 68.273438 32.632812 69.601562 Z M 32.632812 69.601562 "/>
<g clip-path="url(#clip11)" clip-rule="nonzero">
<path style="fill-rule:nonzero;fill:rgb(69.803922%,85.098039%,100%);fill-opacity:1;stroke-width:2;stroke-linecap:round;stroke-linejoin:round;stroke:rgb(0%,0%,0%);stroke-opacity:1;stroke-dasharray:1,4;stroke-miterlimit:10;" d="M 12.421875 218 L 30.421875 218 L 30.421875 236 L 12.421875 236 Z M 12.421875 218 " transform="matrix(1.25,0,0,1.25,-15,-168.75)"/>
</g>
<path style=" stroke:none;fill-rule:nonzero;fill:rgb(0%,0%,0%);fill-opacity:1;" d="M 9.117188 114.601562 C 9.117188 113.652344 9.214844 112.882812 9.410156 112.296875 C 9.605469 111.710938 9.890625 111.261719 10.269531 110.949219 C 10.660156 110.636719 11.148438 110.480469 11.734375 110.480469 C 12.175781 110.480469 12.5625 110.574219 12.886719 110.753906 C 13.210938 110.925781 13.480469 111.171875 13.6875 111.496094 C 13.894531 111.824219 14.058594 112.21875 14.175781 112.6875 C 14.304688 113.15625 14.371094 113.796875 14.371094 114.601562 C 14.371094 115.539062 14.273438 116.300781 14.078125 116.886719 C 13.882812 117.460938 13.589844 117.910156 13.199219 118.234375 C 12.820312 118.546875 12.332031 118.703125 11.734375 118.703125 C 10.964844 118.703125 10.359375 118.425781 9.917969 117.863281 C 9.382812 117.199219 9.117188 116.113281 9.117188 114.601562 Z M 10.132812 114.601562 C 10.132812 115.917969 10.28125 116.796875 10.582031 117.238281 C 10.894531 117.667969 11.277344 117.882812 11.734375 117.882812 C 12.191406 117.882812 12.574219 117.667969 12.886719 117.238281 C 13.199219 116.796875 13.355469 115.917969 13.355469 114.601562 C 13.355469 113.273438 13.199219 112.394531 12.886719 111.964844 C 12.574219 111.523438 12.191406 111.300781 11.734375 111.300781 C 11.277344 111.300781 10.914062 111.492188 10.640625 111.867188 C 10.300781 112.363281 10.132812 113.273438 10.132812 114.601562 Z M 10.132812 114.601562 "/>
<g clip-path="url(#clip12)" clip-rule="nonzero">
<path style="fill-rule:nonzero;fill:rgb(100%,100%,100%);fill-opacity:1;stroke-width:2;stroke-linecap:round;stroke-linejoin:round;stroke:rgb(0%,0%,0%);stroke-opacity:1;stroke-dasharray:1,4;stroke-miterlimit:10;" d="M 30.421875 164 L 48.421875 164 L 48.421875 182 L 30.421875 182 Z M 30.421875 164 " transform="matrix(1.25,0,0,1.25,-15,-168.75)"/>
</g>
<path style=" stroke:none;fill-rule:nonzero;fill:rgb(0%,0%,0%);fill-opacity:1;" d="M 31.617188 47.101562 C 31.617188 46.152344 31.714844 45.382812 31.910156 44.796875 C 32.105469 44.210938 32.390625 43.761719 32.769531 43.449219 C 33.160156 43.136719 33.648438 42.980469 34.234375 42.980469 C 34.675781 42.980469 35.0625 43.074219 35.386719 43.253906 C 35.710938 43.425781 35.980469 43.671875 36.1875 43.996094 C 36.394531 44.324219 36.558594 44.71875 36.675781 45.1875 C 36.804688 45.65625 36.871094 46.296875 36.871094 47.101562 C 36.871094 48.039062 36.773438 48.800781 36.578125 49.386719 C 36.382812 49.960938 36.089844 50.410156 35.699219 50.734375 C 35.320312 51.046875 34.832031 51.203125 34.234375 51.203125 C 33.464844 51.203125 32.859375 50.925781 32.417969 50.363281 C 31.882812 49.699219 31.617188 48.613281 31.617188 47.101562 Z M 32.632812 47.101562 C 32.632812 48.417969 32.78125 49.296875 33.082031 49.738281 C 33.394531 50.167969 33.777344 50.382812 34.234375 50.382812 C 34.691406 50.382812 35.074219 50.167969 35.386719 49.738281 C 35.699219 49.296875 35.855469 48.417969 35.855469 47.101562 C 35.855469 45.773438 35.699219 44.894531 35.386719 44.464844 C 35.074219 44.023438 34.691406 43.800781 34.234375 43.800781 C 33.777344 43.800781 33.414062 43.992188 33.140625 44.367188 C 32.800781 44.863281 32.632812 45.773438 32.632812 47.101562 Z M 32.632812 47.101562 "/>
<path style="fill-rule:nonzero;fill:rgb(100%,100%,100%);fill-opacity:1;stroke-width:1;stroke-linecap:round;stroke-linejoin:round;stroke:rgb(0%,0%,0%);stroke-opacity:1;stroke-miterlimit:10;" d="M 30.421875 200 L 48.421875 200 L 48.421875 218 L 30.421875 218 Z M 30.421875 200 " transform="matrix(1.25,0,0,1.25,-15,-168.75)"/>
<path style=" stroke:none;fill-rule:nonzero;fill:rgb(0%,0%,0%);fill-opacity:1;" d="M 31.617188 93.9375 L 32.613281 93.800781 C 32.730469 94.363281 32.917969 94.765625 33.179688 95.011719 C 33.453125 95.261719 33.792969 95.382812 34.195312 95.382812 C 34.652344 95.382812 35.035156 95.226562 35.347656 94.914062 C 35.671875 94.589844 35.835938 94.1875 35.835938 93.703125 C 35.835938 93.25 35.6875 92.878906 35.386719 92.589844 C 35.101562 92.292969 34.730469 92.140625 34.273438 92.140625 C 34.078125 92.140625 33.84375 92.179688 33.570312 92.257812 L 33.6875 91.378906 C 33.753906 91.394531 33.804688 91.398438 33.84375 91.398438 C 34.261719 91.398438 34.636719 91.289062 34.976562 91.066406 C 35.316406 90.847656 35.484375 90.507812 35.484375 90.050781 C 35.484375 89.6875 35.359375 89.386719 35.113281 89.152344 C 34.867188 88.917969 34.546875 88.800781 34.15625 88.800781 C 33.777344 88.800781 33.460938 88.925781 33.199219 89.171875 C 32.953125 89.40625 32.789062 89.765625 32.710938 90.246094 L 31.714844 90.070312 C 31.84375 89.40625 32.117188 88.894531 32.535156 88.527344 C 32.964844 88.164062 33.5 87.980469 34.136719 87.980469 C 34.578125 87.980469 34.984375 88.078125 35.347656 88.273438 C 35.726562 88.457031 36.011719 88.710938 36.207031 89.035156 C 36.402344 89.363281 36.5 89.707031 36.5 90.070312 C 36.5 90.421875 36.402344 90.742188 36.207031 91.027344 C 36.023438 91.316406 35.75 91.542969 35.386719 91.710938 C 35.867188 91.816406 36.238281 92.042969 36.5 92.394531 C 36.761719 92.734375 36.890625 93.164062 36.890625 93.683594 C 36.890625 94.386719 36.628906 94.988281 36.109375 95.480469 C 35.601562 95.964844 34.957031 96.203125 34.175781 96.203125 C 33.472656 96.203125 32.886719 95.996094 32.417969 95.578125 C 31.949219 95.164062 31.683594 94.617188 31.617188 93.9375 Z M 31.617188 93.9375 "/>
<g clip-path="url(#clip13)" clip-rule="nonzero">
<path style="fill-rule:nonzero;fill:rgb(100%,100%,100%);fill-opacity:1;stroke-width:2;stroke-linecap:round;stroke-linejoin:round;stroke:rgb(0%,0%,0%);stroke-opacity:1;stroke-dasharray:1,4;stroke-miterlimit:10;" d="M 12.421875 182 L 30.421875 182 L 30.421875 200 L 12.421875 200 Z M 12.421875 182 " transform="matrix(1.25,0,0,1.25,-15,-168.75)"/>
</g>
<path style=" stroke:none;fill-rule:nonzero;fill:rgb(0%,0%,0%);fill-opacity:1;" d="M 9.117188 69.601562 C 9.117188 68.652344 9.214844 67.882812 9.410156 67.296875 C 9.605469 66.710938 9.890625 66.261719 10.269531 65.949219 C 10.660156 65.636719 11.148438 65.480469 11.734375 65.480469 C 12.175781 65.480469 12.5625 65.574219 12.886719 65.753906 C 13.210938 65.925781 13.480469 66.171875 13.6875 66.496094 C 13.894531 66.824219 14.058594 67.21875 14.175781 67.6875 C 14.304688 68.15625 14.371094 68.796875 14.371094 69.601562 C 14.371094 70.539062 14.273438 71.300781 14.078125 71.886719 C 13.882812 72.460938 13.589844 72.910156 13.199219 73.234375 C 12.820312 73.546875 12.332031 73.703125 11.734375 73.703125 C 10.964844 73.703125 10.359375 73.425781 9.917969 72.863281 C 9.382812 72.199219 9.117188 71.113281 9.117188 69.601562 Z M 10.132812 69.601562 C 10.132812 70.917969 10.28125 71.796875 10.582031 72.238281 C 10.894531 72.667969 11.277344 72.882812 11.734375 72.882812 C 12.191406 72.882812 12.574219 72.667969 12.886719 72.238281 C 13.199219 71.796875 13.355469 70.917969 13.355469 69.601562 C 13.355469 68.273438 13.199219 67.394531 12.886719 66.964844 C 12.574219 66.523438 12.191406 66.300781 11.734375 66.300781 C 11.277344 66.300781 10.914062 66.492188 10.640625 66.867188 C 10.300781 67.363281 10.132812 68.273438 10.132812 69.601562 Z M 10.132812 69.601562 "/>
<path style="fill-rule:nonzero;fill:rgb(100%,100%,100%);fill-opacity:1;stroke-width:1;stroke-linecap:round;stroke-linejoin:round;stroke:rgb(0%,0%,0%);stroke-opacity:1;stroke-miterlimit:10;" d="M 66.421875 218 L 84.421875 218 L 84.421875 236 L 66.421875 236 Z M 66.421875 218 " transform="matrix(1.25,0,0,1.25,-15,-168.75)"/>
<path style=" stroke:none;fill-rule:nonzero;fill:rgb(0%,0%,0%);fill-opacity:1;" d="M 78.140625 114.191406 C 77.722656 114.050781 77.417969 113.839844 77.222656 113.566406 C 77.027344 113.28125 76.929688 112.941406 76.929688 112.550781 C 76.929688 111.964844 77.136719 111.476562 77.554688 111.085938 C 77.984375 110.683594 78.542969 110.480469 79.234375 110.480469 C 79.9375 110.480469 80.503906 110.691406 80.933594 111.105469 C 81.363281 111.511719 81.578125 112.003906 81.578125 112.589844 C 81.578125 112.957031 81.480469 113.28125 81.285156 113.566406 C 81.089844 113.839844 80.789062 114.050781 80.386719 114.191406 C 80.882812 114.363281 81.257812 114.628906 81.519531 114.992188 C 81.78125 115.34375 81.910156 115.769531 81.910156 116.261719 C 81.910156 116.953125 81.664062 117.53125 81.167969 118 C 80.6875 118.46875 80.046875 118.703125 79.253906 118.703125 C 78.460938 118.703125 77.816406 118.46875 77.320312 118 C 76.839844 117.53125 76.597656 116.945312 76.597656 116.242188 C 76.597656 115.722656 76.726562 115.285156 76.988281 114.933594 C 77.261719 114.570312 77.644531 114.324219 78.140625 114.191406 Z M 77.945312 112.53125 C 77.945312 112.910156 78.0625 113.222656 78.296875 113.46875 C 78.542969 113.703125 78.863281 113.820312 79.253906 113.820312 C 79.644531 113.820312 79.957031 113.703125 80.191406 113.46875 C 80.4375 113.222656 80.5625 112.921875 80.5625 112.570312 C 80.5625 112.21875 80.4375 111.921875 80.191406 111.671875 C 79.945312 111.425781 79.632812 111.300781 79.253906 111.300781 C 78.875 111.300781 78.5625 111.425781 78.316406 111.671875 C 78.070312 111.90625 77.945312 112.195312 77.945312 112.53125 Z M 77.613281 116.242188 C 77.613281 116.53125 77.679688 116.804688 77.808594 117.0625 C 77.953125 117.324219 78.152344 117.527344 78.414062 117.667969 C 78.675781 117.8125 78.960938 117.882812 79.273438 117.882812 C 79.742188 117.882812 80.125 117.734375 80.425781 117.433594 C 80.738281 117.136719 80.894531 116.75 80.894531 116.28125 C 80.894531 115.800781 80.738281 115.402344 80.425781 115.089844 C 80.113281 114.777344 79.714844 114.621094 79.234375 114.621094 C 78.765625 114.621094 78.375 114.777344 78.0625 115.089844 C 77.761719 115.402344 77.613281 115.789062 77.613281 116.242188 Z M 77.613281 116.242188 "/>
<path style="fill-rule:nonzero;fill:rgb(100%,100%,100%);fill-opacity:1;stroke-width:1;stroke-linecap:round;stroke-linejoin:round;stroke:rgb(0%,0%,0%);stroke-opacity:1;stroke-miterlimit:10;" d="M 66.421875 200 L 84.421875 200 L 84.421875 218 L 66.421875 218 Z M 66.421875 200 " transform="matrix(1.25,0,0,1.25,-15,-168.75)"/>
<path style=" stroke:none;fill-rule:nonzero;fill:rgb(0%,0%,0%);fill-opacity:1;" d="M 76.617188 93.957031 L 77.652344 93.859375 C 77.730469 94.367188 77.90625 94.753906 78.179688 95.011719 C 78.464844 95.261719 78.804688 95.382812 79.195312 95.382812 C 79.675781 95.382812 80.082031 95.207031 80.40625 94.855469 C 80.746094 94.492188 80.914062 94.015625 80.914062 93.429688 C 80.914062 92.859375 80.75 92.410156 80.425781 92.082031 C 80.113281 91.757812 79.703125 91.59375 79.195312 91.59375 C 78.871094 91.59375 78.578125 91.671875 78.316406 91.828125 C 78.070312 91.972656 77.867188 92.15625 77.710938 92.375 L 76.792969 92.257812 L 77.574219 88.117188 L 81.578125 88.117188 L 81.578125 89.074219 L 78.355469 89.074219 L 77.925781 91.222656 C 78.40625 90.898438 78.914062 90.734375 79.449219 90.734375 C 80.152344 90.734375 80.746094 90.976562 81.226562 91.457031 C 81.707031 91.941406 81.949219 92.566406 81.949219 93.332031 C 81.949219 94.0625 81.742188 94.695312 81.324219 95.226562 C 80.804688 95.878906 80.09375 96.203125 79.195312 96.203125 C 78.464844 96.203125 77.867188 96.003906 77.398438 95.597656 C 76.941406 95.183594 76.683594 94.636719 76.617188 93.957031 Z M 76.617188 93.957031 "/>
<g clip-path="url(#clip14)" clip-rule="nonzero">
<path style="fill-rule:nonzero;fill:rgb(100%,100%,100%);fill-opacity:1;stroke-width:2;stroke-linecap:round;stroke-linejoin:round;stroke:rgb(0%,0%,0%);stroke-opacity:1;stroke-dasharray:1,4;stroke-miterlimit:10;" d="M 12.421875 164 L 30.421875 164 L 30.421875 182 L 12.421875 182 Z M 12.421875 164 " transform="matrix(1.25,0,0,1.25,-15,-168.75)"/>
</g>
<path style=" stroke:none;fill-rule:nonzero;fill:rgb(0%,0%,0%);fill-opacity:1;" d="M 9.117188 47.101562 C 9.117188 46.152344 9.214844 45.382812 9.410156 44.796875 C 9.605469 44.210938 9.890625 43.761719 10.269531 43.449219 C 10.660156 43.136719 11.148438 42.980469 11.734375 42.980469 C 12.175781 42.980469 12.5625 43.074219 12.886719 43.253906 C 13.210938 43.425781 13.480469 43.671875 13.6875 43.996094 C 13.894531 44.324219 14.058594 44.71875 14.175781 45.1875 C 14.304688 45.65625 14.371094 46.296875 14.371094 47.101562 C 14.371094 48.039062 14.273438 48.800781 14.078125 49.386719 C 13.882812 49.960938 13.589844 50.410156 13.199219 50.734375 C 12.820312 51.046875 12.332031 51.203125 11.734375 51.203125 C 10.964844 51.203125 10.359375 50.925781 9.917969 50.363281 C 9.382812 49.699219 9.117188 48.613281 9.117188 47.101562 Z M 10.132812 47.101562 C 10.132812 48.417969 10.28125 49.296875 10.582031 49.738281 C 10.894531 50.167969 11.277344 50.382812 11.734375 50.382812 C 12.191406 50.382812 12.574219 50.167969 12.886719 49.738281 C 13.199219 49.296875 13.355469 48.417969 13.355469 47.101562 C 13.355469 45.773438 13.199219 44.894531 12.886719 44.464844 C 12.574219 44.023438 12.191406 43.800781 11.734375 43.800781 C 11.277344 43.800781 10.914062 43.992188 10.640625 44.367188 C 10.300781 44.863281 10.132812 45.773438 10.132812 47.101562 Z M 10.132812 47.101562 "/>
<path style="fill-rule:nonzero;fill:rgb(69.803922%,85.098039%,100%);fill-opacity:1;stroke-width:1;stroke-linecap:round;stroke-linejoin:round;stroke:rgb(0%,0%,0%);stroke-opacity:1;stroke-miterlimit:10;" d="M 66.421875 182 L 84.421875 182 L 84.421875 200 L 66.421875 200 Z M 66.421875 182 " transform="matrix(1.25,0,0,1.25,-15,-168.75)"/>
<path style=" stroke:none;fill-rule:nonzero;fill:rgb(0%,0%,0%);fill-opacity:1;" d="M 81.8125 72.609375 L 81.8125 73.566406 L 76.480469 73.566406 C 76.480469 73.332031 76.519531 73.105469 76.597656 72.882812 C 76.742188 72.519531 76.960938 72.160156 77.261719 71.808594 C 77.5625 71.457031 77.992188 71.054688 78.550781 70.597656 C 79.421875 69.871094 80.007812 69.296875 80.308594 68.878906 C 80.621094 68.464844 80.777344 68.066406 80.777344 67.6875 C 80.777344 67.296875 80.632812 66.972656 80.347656 66.710938 C 80.074219 66.4375 79.714844 66.300781 79.273438 66.300781 C 78.792969 66.300781 78.40625 66.445312 78.121094 66.730469 C 77.835938 67.019531 77.691406 67.414062 77.691406 67.921875 L 76.675781 67.804688 C 76.742188 67.050781 77 66.476562 77.457031 66.085938 C 77.914062 65.683594 78.523438 65.480469 79.292969 65.480469 C 80.0625 65.480469 80.667969 65.695312 81.109375 66.125 C 81.566406 66.554688 81.792969 67.082031 81.792969 67.707031 C 81.792969 68.035156 81.726562 68.351562 81.597656 68.664062 C 81.46875 68.976562 81.246094 69.308594 80.933594 69.660156 C 80.632812 70 80.132812 70.46875 79.429688 71.066406 C 78.832031 71.5625 78.445312 71.902344 78.277344 72.082031 C 78.109375 72.265625 77.972656 72.441406 77.867188 72.609375 Z M 81.8125 72.609375 "/>
<g clip-path="url(#clip15)" clip-rule="nonzero">
<path style="fill-rule:nonzero;fill:rgb(69.803922%,85.098039%,100%);fill-opacity:1;stroke-width:2;stroke-linecap:round;stroke-linejoin:round;stroke:rgb(0%,0%,0%);stroke-opacity:1;stroke-dasharray:1,4;stroke-miterlimit:10;" d="M 66.421875 164 L 84.421875 164 L 84.421875 182 L 66.421875 182 Z M 66.421875 164 " transform="matrix(1.25,0,0,1.25,-15,-168.75)"/>
</g>
<path style=" stroke:none;fill-rule:nonzero;fill:rgb(0%,0%,0%);fill-opacity:1;" d="M 76.617188 47.101562 C 76.617188 46.152344 76.714844 45.382812 76.910156 44.796875 C 77.105469 44.210938 77.390625 43.761719 77.769531 43.449219 C 78.160156 43.136719 78.648438 42.980469 79.234375 42.980469 C 79.675781 42.980469 80.0625 43.074219 80.386719 43.253906 C 80.710938 43.425781 80.980469 43.671875 81.1875 43.996094 C 81.394531 44.324219 81.558594 44.71875 81.675781 45.1875 C 81.804688 45.65625 81.871094 46.296875 81.871094 47.101562 C 81.871094 48.039062 81.773438 48.800781 81.578125 49.386719 C 81.382812 49.960938 81.089844 50.410156 80.699219 50.734375 C 80.320312 51.046875 79.832031 51.203125 79.234375 51.203125 C 78.464844 51.203125 77.859375 50.925781 77.417969 50.363281 C 76.882812 49.699219 76.617188 48.613281 76.617188 47.101562 Z M 77.632812 47.101562 C 77.632812 48.417969 77.78125 49.296875 78.082031 49.738281 C 78.394531 50.167969 78.777344 50.382812 79.234375 50.382812 C 79.691406 50.382812 80.074219 50.167969 80.386719 49.738281 C 80.699219 49.296875 80.855469 48.417969 80.855469 47.101562 C 80.855469 45.773438 80.699219 44.894531 80.386719 44.464844 C 80.074219 44.023438 79.691406 43.800781 79.234375 43.800781 C 78.777344 43.800781 78.414062 43.992188 78.140625 44.367188 C 77.800781 44.863281 77.632812 45.773438 77.632812 47.101562 Z M 77.632812 47.101562 "/>
<path style="fill-rule:nonzero;fill:rgb(100%,100%,100%);fill-opacity:1;stroke-width:1;stroke-linecap:round;stroke-linejoin:round;stroke:rgb(0%,0%,0%);stroke-opacity:1;stroke-miterlimit:10;" d="M 48.421875 218 L 66.421875 218 L 66.421875 236 L 48.421875 236 Z M 48.421875 218 " transform="matrix(1.25,0,0,1.25,-15,-168.75)"/>
<path style=" stroke:none;fill-rule:nonzero;fill:rgb(0%,0%,0%);fill-opacity:1;" d="M 54.175781 111.574219 L 54.175781 110.617188 L 59.390625 110.617188 L 59.390625 111.378906 C 58.882812 111.925781 58.375 112.65625 57.867188 113.566406 C 57.359375 114.464844 56.96875 115.398438 56.695312 116.359375 C 56.5 117.023438 56.375 117.761719 56.324219 118.566406 L 55.308594 118.566406 C 55.320312 117.929688 55.445312 117.167969 55.679688 116.28125 C 55.914062 115.382812 56.253906 114.519531 56.695312 113.683594 C 57.152344 112.851562 57.625 112.148438 58.121094 111.574219 Z M 54.175781 111.574219 "/>
<path style="fill-rule:nonzero;fill:rgb(100%,100%,100%);fill-opacity:1;stroke-width:1;stroke-linecap:round;stroke-linejoin:round;stroke:rgb(0%,0%,0%);stroke-opacity:1;stroke-miterlimit:10;" d="M 48.421875 200 L 66.421875 200 L 66.421875 218 L 48.421875 218 Z M 48.421875 200 " transform="matrix(1.25,0,0,1.25,-15,-168.75)"/>
<path style=" stroke:none;fill-rule:nonzero;fill:rgb(0%,0%,0%);fill-opacity:1;" d="M 57.28125 96.066406 L 57.28125 94.132812 L 53.785156 94.132812 L 53.785156 93.234375 L 57.457031 88.019531 L 58.277344 88.019531 L 58.277344 93.234375 L 59.371094 93.234375 L 59.371094 94.132812 L 58.277344 94.132812 L 58.277344 96.066406 Z M 57.28125 93.234375 L 57.28125 89.601562 L 54.761719 93.234375 Z M 57.28125 93.234375 "/>
<g clip-path="url(#clip16)" clip-rule="nonzero">
<path style="fill-rule:nonzero;fill:rgb(69.803922%,85.098039%,100%);fill-opacity:1;stroke-width:2;stroke-linecap:round;stroke-linejoin:round;stroke:rgb(0%,0%,0%);stroke-opacity:1;stroke-dasharray:1,4;stroke-miterlimit:10;" d="M 48.421875 164 L 66.421875 164 L 66.421875 182 L 48.421875 182 Z M 48.421875 164 " transform="matrix(1.25,0,0,1.25,-15,-168.75)"/>
</g>
<path style=" stroke:none;fill-rule:nonzero;fill:rgb(0%,0%,0%);fill-opacity:1;" d="M 54.117188 47.101562 C 54.117188 46.152344 54.214844 45.382812 54.410156 44.796875 C 54.605469 44.210938 54.890625 43.761719 55.269531 43.449219 C 55.660156 43.136719 56.148438 42.980469 56.734375 42.980469 C 57.175781 42.980469 57.5625 43.074219 57.886719 43.253906 C 58.210938 43.425781 58.480469 43.671875 58.6875 43.996094 C 58.894531 44.324219 59.058594 44.71875 59.175781 45.1875 C 59.304688 45.65625 59.371094 46.296875 59.371094 47.101562 C 59.371094 48.039062 59.273438 48.800781 59.078125 49.386719 C 58.882812 49.960938 58.589844 50.410156 58.199219 50.734375 C 57.820312 51.046875 57.332031 51.203125 56.734375 51.203125 C 55.964844 51.203125 55.359375 50.925781 54.917969 50.363281 C 54.382812 49.699219 54.117188 48.613281 54.117188 47.101562 Z M 55.132812 47.101562 C 55.132812 48.417969 55.28125 49.296875 55.582031 49.738281 C 55.894531 50.167969 56.277344 50.382812 56.734375 50.382812 C 57.191406 50.382812 57.574219 50.167969 57.886719 49.738281 C 58.199219 49.296875 58.355469 48.417969 58.355469 47.101562 C 58.355469 45.773438 58.199219 44.894531 57.886719 44.464844 C 57.574219 44.023438 57.191406 43.800781 56.734375 43.800781 C 56.277344 43.800781 55.914062 43.992188 55.640625 44.367188 C 55.300781 44.863281 55.132812 45.773438 55.132812 47.101562 Z M 55.132812 47.101562 "/>
<path style="fill-rule:nonzero;fill:rgb(69.803922%,85.098039%,100%);fill-opacity:1;stroke-width:1;stroke-linecap:round;stroke-linejoin:round;stroke:rgb(0%,0%,0%);stroke-opacity:1;stroke-miterlimit:10;" d="M 30.421875 218 L 48.421875 218 L 48.421875 236 L 30.421875 236 Z M 30.421875 218 " transform="matrix(1.25,0,0,1.25,-15,-168.75)"/>
<path style=" stroke:none;fill-rule:nonzero;fill:rgb(0%,0%,0%);fill-opacity:1;" d="M 36.753906 112.492188 L 35.757812 112.570312 C 35.679688 112.179688 35.554688 111.894531 35.386719 111.710938 C 35.125 111.4375 34.800781 111.300781 34.410156 111.300781 C 34.085938 111.300781 33.804688 111.386719 33.570312 111.554688 C 33.257812 111.789062 33.011719 112.121094 32.828125 112.550781 C 32.660156 112.980469 32.566406 113.601562 32.554688 114.40625 C 32.789062 114.054688 33.074219 113.796875 33.414062 113.625 C 33.765625 113.445312 34.128906 113.351562 34.507812 113.351562 C 35.171875 113.351562 35.730469 113.59375 36.1875 114.074219 C 36.65625 114.558594 36.890625 115.183594 36.890625 115.949219 C 36.890625 116.457031 36.78125 116.933594 36.558594 117.375 C 36.335938 117.804688 36.039062 118.136719 35.660156 118.371094 C 35.28125 118.589844 34.851562 118.703125 34.371094 118.703125 C 33.550781 118.703125 32.878906 118.40625 32.359375 117.804688 C 31.839844 117.195312 31.578125 116.191406 31.578125 114.796875 C 31.578125 113.25 31.863281 112.117188 32.4375 111.398438 C 32.933594 110.789062 33.609375 110.480469 34.46875 110.480469 C 35.09375 110.480469 35.609375 110.664062 36.011719 111.027344 C 36.414062 111.378906 36.664062 111.867188 36.753906 112.492188 Z M 32.710938 115.949219 C 32.710938 116.300781 32.78125 116.632812 32.925781 116.945312 C 33.070312 117.246094 33.269531 117.480469 33.53125 117.648438 C 33.792969 117.804688 34.066406 117.882812 34.351562 117.882812 C 34.769531 117.882812 35.125 117.722656 35.425781 117.394531 C 35.726562 117.058594 35.875 116.59375 35.875 116.007812 C 35.875 115.449219 35.726562 115.011719 35.425781 114.699219 C 35.140625 114.375 34.769531 114.210938 34.3125 114.210938 C 33.871094 114.210938 33.492188 114.375 33.179688 114.699219 C 32.867188 115.011719 32.710938 115.429688 32.710938 115.949219 Z M 32.710938 115.949219 "/>
<path style="fill-rule:nonzero;fill:rgb(69.803922%,85.098039%,100%);fill-opacity:1;stroke-width:1;stroke-linecap:round;stroke-linejoin:round;stroke:rgb(0%,0%,0%);stroke-opacity:1;stroke-miterlimit:10;" d="M 140.38125 209 L 158.38125 209 L 158.38125 227 L 140.38125 227 Z M 140.38125 209 " transform="matrix(1.25,0,0,1.25,-15,-168.75)"/>
<path style=" stroke:none;fill-rule:nonzero;fill:rgb(0%,0%,0%);fill-opacity:1;" d="M 174.261719 106.359375 L 174.261719 107.316406 L 168.929688 107.316406 C 168.929688 107.082031 168.96875 106.855469 169.046875 106.632812 C 169.191406 106.269531 169.410156 105.910156 169.710938 105.558594 C 170.011719 105.207031 170.441406 104.804688 171 104.347656 C 171.871094 103.621094 172.457031 103.046875 172.757812 102.628906 C 173.070312 102.214844 173.226562 101.816406 173.226562 101.4375 C 173.226562 101.046875 173.082031 100.722656 172.796875 100.460938 C 172.523438 100.1875 172.164062 100.050781 171.722656 100.050781 C 171.242188 100.050781 170.855469 100.195312 170.570312 100.480469 C 170.285156 100.769531 170.140625 101.164062 170.140625 101.671875 L 169.125 101.554688 C 169.191406 100.800781 169.449219 100.226562 169.90625 99.835938 C 170.363281 99.433594 170.972656 99.230469 171.742188 99.230469 C 172.511719 99.230469 173.117188 99.445312 173.558594 99.875 C 174.015625 100.304688 174.242188 100.832031 174.242188 101.457031 C 174.242188 101.785156 174.175781 102.101562 174.046875 102.414062 C 173.917969 102.726562 173.695312 103.058594 173.382812 103.410156 C 173.082031 103.75 172.582031 104.21875 171.878906 104.816406 C 171.28125 105.3125 170.894531 105.652344 170.726562 105.832031 C 170.558594 106.015625 170.421875 106.191406 170.316406 106.359375 Z M 174.261719 106.359375 "/>
<path style="fill-rule:nonzero;fill:rgb(69.803922%,85.098039%,100%);fill-opacity:1;stroke-width:1;stroke-linecap:round;stroke-linejoin:round;stroke:rgb(0%,0%,0%);stroke-opacity:1;stroke-miterlimit:10;" d="M 158.38125 209 L 176.38125 209 L 176.38125 227 L 158.38125 227 Z M 158.38125 209 " transform="matrix(1.25,0,0,1.25,-15,-168.75)"/>
<path style=" stroke:none;fill-rule:nonzero;fill:rgb(0%,0%,0%);fill-opacity:1;" d="M 191.566406 105.1875 L 192.5625 105.050781 C 192.679688 105.613281 192.867188 106.015625 193.128906 106.261719 C 193.402344 106.511719 193.742188 106.632812 194.144531 106.632812 C 194.601562 106.632812 194.984375 106.476562 195.296875 106.164062 C 195.621094 105.839844 195.785156 105.4375 195.785156 104.953125 C 195.785156 104.5 195.636719 104.128906 195.335938 103.839844 C 195.050781 103.542969 194.679688 103.390625 194.222656 103.390625 C 194.027344 103.390625 193.792969 103.429688 193.519531 103.507812 L 193.636719 102.628906 C 193.703125 102.644531 193.753906 102.648438 193.792969 102.648438 C 194.210938 102.648438 194.585938 102.539062 194.925781 102.316406 C 195.265625 102.097656 195.433594 101.757812 195.433594 101.300781 C 195.433594 100.9375 195.308594 100.636719 195.0625 100.402344 C 194.816406 100.167969 194.496094 100.050781 194.105469 100.050781 C 193.726562 100.050781 193.410156 100.175781 193.148438 100.421875 C 192.902344 100.65625 192.738281 101.015625 192.660156 101.496094 L 191.664062 101.320312 C 191.792969 100.65625 192.066406 100.144531 192.484375 99.777344 C 192.914062 99.414062 193.449219 99.230469 194.085938 99.230469 C 194.527344 99.230469 194.933594 99.328125 195.296875 99.523438 C 195.675781 99.707031 195.960938 99.960938 196.15625 100.285156 C 196.351562 100.613281 196.449219 100.957031 196.449219 101.320312 C 196.449219 101.671875 196.351562 101.992188 196.15625 102.277344 C 195.972656 102.566406 195.699219 102.792969 195.335938 102.960938 C 195.816406 103.066406 196.1875 103.292969 196.449219 103.644531 C 196.710938 103.984375 196.839844 104.414062 196.839844 104.933594 C 196.839844 105.636719 196.578125 106.238281 196.058594 106.730469 C 195.550781 107.214844 194.90625 107.453125 194.125 107.453125 C 193.421875 107.453125 192.835938 107.246094 192.367188 106.828125 C 191.898438 106.414062 191.632812 105.867188 191.566406 105.1875 Z M 191.566406 105.1875 "/>
<path style="fill-rule:nonzero;fill:rgb(69.803922%,85.098039%,100%);fill-opacity:1;stroke-width:1;stroke-linecap:round;stroke-linejoin:round;stroke:rgb(0%,0%,0%);stroke-opacity:1;stroke-miterlimit:10;" d="M 158.38125 191 L 176.38125 191 L 176.38125 209 L 158.38125 209 Z M 158.38125 191 " transform="matrix(1.25,0,0,1.25,-15,-168.75)"/>
<path style=" stroke:none;fill-rule:nonzero;fill:rgb(0%,0%,0%);fill-opacity:1;" d="M 195.296875 84.816406 L 194.300781 84.816406 L 194.300781 78.507812 C 194.066406 78.742188 193.753906 78.976562 193.363281 79.210938 C 192.972656 79.433594 192.628906 79.597656 192.328125 79.699219 L 192.328125 78.742188 C 192.875 78.496094 193.355469 78.191406 193.773438 77.824219 C 194.191406 77.449219 194.484375 77.082031 194.652344 76.730469 L 195.296875 76.730469 Z M 195.296875 84.816406 "/>
<path style="fill-rule:nonzero;fill:rgb(69.803922%,85.098039%,100%);fill-opacity:1;stroke-width:1;stroke-linecap:round;stroke-linejoin:round;stroke:rgb(0%,0%,0%);stroke-opacity:1;stroke-miterlimit:10;" d="M 140.38125 191 L 158.38125 191 L 158.38125 209 L 140.38125 209 Z M 140.38125 191 " transform="matrix(1.25,0,0,1.25,-15,-168.75)"/>
<path style=" stroke:none;fill-rule:nonzero;fill:rgb(0%,0%,0%);fill-opacity:1;" d="M 169.066406 80.851562 C 169.066406 79.902344 169.164062 79.132812 169.359375 78.546875 C 169.554688 77.960938 169.839844 77.511719 170.21875 77.199219 C 170.609375 76.886719 171.097656 76.730469 171.683594 76.730469 C 172.125 76.730469 172.511719 76.824219 172.835938 77.003906 C 173.160156 77.175781 173.429688 77.421875 173.636719 77.746094 C 173.84375 78.074219 174.007812 78.46875 174.125 78.9375 C 174.253906 79.40625 174.320312 80.046875 174.320312 80.851562 C 174.320312 81.789062 174.222656 82.550781 174.027344 83.136719 C 173.832031 83.710938 173.539062 84.160156 173.148438 84.484375 C 172.769531 84.796875 172.28125 84.953125 171.683594 84.953125 C 170.914062 84.953125 170.308594 84.675781 169.867188 84.113281 C 169.332031 83.449219 169.066406 82.363281 169.066406 80.851562 Z M 170.082031 80.851562 C 170.082031 82.167969 170.230469 83.046875 170.53125 83.488281 C 170.84375 83.917969 171.226562 84.132812 171.683594 84.132812 C 172.140625 84.132812 172.523438 83.917969 172.835938 83.488281 C 173.148438 83.046875 173.304688 82.167969 173.304688 80.851562 C 173.304688 79.523438 173.148438 78.644531 172.835938 78.214844 C 172.523438 77.773438 172.140625 77.550781 171.683594 77.550781 C 171.226562 77.550781 170.863281 77.742188 170.589844 78.117188 C 170.25 78.613281 170.082031 79.523438 170.082031 80.851562 Z M 170.082031 80.851562 "/>
<path style="fill-rule:nonzero;fill:rgb(69.803922%,85.098039%,100%);fill-opacity:1;stroke-width:1;stroke-linecap:round;stroke-linejoin:round;stroke:rgb(0%,0%,0%);stroke-opacity:1;stroke-miterlimit:10;" d="M 222.925 209 L 240.925 209 L 240.925 227 L 222.925 227 Z M 222.925 209 " transform="matrix(1.25,0,0,1.25,-15,-168.75)"/>
<path style=" stroke:none;fill-rule:nonzero;fill:rgb(0%,0%,0%);fill-opacity:1;" d="M 277.386719 101.242188 L 276.390625 101.320312 C 276.3125 100.929688 276.183594 100.644531 276.019531 100.460938 C 275.753906 100.1875 275.433594 100.050781 275.042969 100.050781 C 274.714844 100.050781 274.4375 100.136719 274.203125 100.304688 C 273.890625 100.539062 273.640625 100.871094 273.460938 101.300781 C 273.289062 101.730469 273.195312 102.351562 273.1875 103.15625 C 273.421875 102.804688 273.703125 102.546875 274.046875 102.375 C 274.398438 102.195312 274.757812 102.101562 275.140625 102.101562 C 275.804688 102.101562 276.359375 102.34375 276.820312 102.824219 C 277.289062 103.308594 277.523438 103.933594 277.523438 104.699219 C 277.523438 105.207031 277.410156 105.683594 277.191406 106.125 C 276.964844 106.554688 276.667969 106.886719 276.292969 107.121094 C 275.910156 107.339844 275.480469 107.453125 275.003906 107.453125 C 274.183594 107.453125 273.507812 107.15625 272.992188 106.554688 C 272.46875 105.945312 272.210938 104.941406 272.210938 103.546875 C 272.210938 102 272.492188 100.867188 273.070312 100.148438 C 273.5625 99.539062 274.242188 99.230469 275.101562 99.230469 C 275.726562 99.230469 276.238281 99.414062 276.644531 99.777344 C 277.042969 100.128906 277.292969 100.617188 277.386719 101.242188 Z M 273.34375 104.699219 C 273.34375 105.050781 273.410156 105.382812 273.558594 105.695312 C 273.699219 105.996094 273.898438 106.230469 274.164062 106.398438 C 274.421875 106.554688 274.695312 106.632812 274.984375 106.632812 C 275.398438 106.632812 275.753906 106.472656 276.058594 106.144531 C 276.355469 105.808594 276.507812 105.34375 276.507812 104.757812 C 276.507812 104.199219 276.355469 103.761719 276.058594 103.449219 C 275.769531 103.125 275.398438 102.960938 274.945312 102.960938 C 274.5 102.960938 274.125 103.125 273.8125 103.449219 C 273.5 103.761719 273.34375 104.179688 273.34375 104.699219 Z M 273.34375 104.699219 "/>
<path style="fill-rule:nonzero;fill:rgb(100%,100%,100%);fill-opacity:1;stroke-width:1;stroke-linecap:round;stroke-linejoin:round;stroke:rgb(0%,0%,0%);stroke-opacity:1;stroke-miterlimit:10;" d="M 240.925 209 L 258.925 209 L 258.925 227 L 240.925 227 Z M 240.925 209 " transform="matrix(1.25,0,0,1.25,-15,-168.75)"/>
<path style=" stroke:none;fill-rule:nonzero;fill:rgb(0%,0%,0%);fill-opacity:1;" d="M 296.273438 102.941406 C 295.851562 102.800781 295.550781 102.589844 295.355469 102.316406 C 295.160156 102.03125 295.0625 101.691406 295.0625 101.300781 C 295.0625 100.714844 295.265625 100.226562 295.6875 99.835938 C 296.117188 99.433594 296.671875 99.230469 297.367188 99.230469 C 298.070312 99.230469 298.636719 99.441406 299.066406 99.855469 C 299.496094 100.261719 299.710938 100.753906 299.710938 101.339844 C 299.710938 101.707031 299.613281 102.03125 299.417969 102.316406 C 299.222656 102.589844 298.917969 102.800781 298.519531 102.941406 C 299.011719 103.113281 299.386719 103.378906 299.652344 103.742188 C 299.910156 104.09375 300.042969 104.519531 300.042969 105.011719 C 300.042969 105.703125 299.792969 106.28125 299.300781 106.75 C 298.816406 107.21875 298.175781 107.453125 297.386719 107.453125 C 296.589844 107.453125 295.945312 107.21875 295.453125 106.75 C 294.96875 106.28125 294.730469 105.695312 294.730469 104.992188 C 294.730469 104.472656 294.855469 104.035156 295.121094 103.683594 C 295.394531 103.320312 295.773438 103.074219 296.273438 102.941406 Z M 296.078125 101.28125 C 296.078125 101.660156 296.195312 101.972656 296.429688 102.21875 C 296.671875 102.453125 296.996094 102.570312 297.386719 102.570312 C 297.777344 102.570312 298.089844 102.453125 298.324219 102.21875 C 298.566406 101.972656 298.695312 101.671875 298.695312 101.320312 C 298.695312 100.96875 298.566406 100.671875 298.324219 100.421875 C 298.074219 100.175781 297.761719 100.050781 297.386719 100.050781 C 297.003906 100.050781 296.691406 100.175781 296.449219 100.421875 C 296.199219 100.65625 296.078125 100.945312 296.078125 101.28125 Z M 295.746094 104.992188 C 295.746094 105.28125 295.808594 105.554688 295.941406 105.8125 C 296.082031 106.074219 296.28125 106.277344 296.546875 106.417969 C 296.804688 106.5625 297.09375 106.632812 297.40625 106.632812 C 297.875 106.632812 298.253906 106.484375 298.558594 106.183594 C 298.871094 105.886719 299.027344 105.5 299.027344 105.03125 C 299.027344 104.550781 298.871094 104.152344 298.558594 103.839844 C 298.246094 103.527344 297.84375 103.371094 297.367188 103.371094 C 296.898438 103.371094 296.507812 103.527344 296.195312 103.839844 C 295.890625 104.152344 295.746094 104.539062 295.746094 104.992188 Z M 295.746094 104.992188 "/>
<path style="fill-rule:nonzero;fill:rgb(100%,100%,100%);fill-opacity:1;stroke-width:1;stroke-linecap:round;stroke-linejoin:round;stroke:rgb(0%,0%,0%);stroke-opacity:1;stroke-miterlimit:10;" d="M 222.925 191 L 240.925 191 L 240.925 209 L 222.925 209 Z M 222.925 191 " transform="matrix(1.25,0,0,1.25,-15,-168.75)"/>
<path style=" stroke:none;fill-rule:nonzero;fill:rgb(0%,0%,0%);fill-opacity:1;" d="M 272.25 80.851562 C 272.25 79.902344 272.347656 79.132812 272.542969 78.546875 C 272.738281 77.960938 273.019531 77.511719 273.402344 77.199219 C 273.792969 76.886719 274.28125 76.730469 274.867188 76.730469 C 275.304688 76.730469 275.691406 76.824219 276.019531 77.003906 C 276.339844 77.175781 276.609375 77.421875 276.820312 77.746094 C 277.023438 78.074219 277.191406 78.46875 277.308594 78.9375 C 277.433594 79.40625 277.503906 80.046875 277.503906 80.851562 C 277.503906 81.789062 277.40625 82.550781 277.210938 83.136719 C 277.015625 83.710938 276.722656 84.160156 276.332031 84.484375 C 275.949219 84.796875 275.460938 84.953125 274.867188 84.953125 C 274.09375 84.953125 273.488281 84.675781 273.050781 84.113281 C 272.511719 83.449219 272.25 82.363281 272.25 80.851562 Z M 273.265625 80.851562 C 273.265625 82.167969 273.410156 83.046875 273.714844 83.488281 C 274.027344 83.917969 274.40625 84.132812 274.867188 84.132812 C 275.320312 84.132812 275.707031 83.917969 276.019531 83.488281 C 276.332031 83.046875 276.488281 82.167969 276.488281 80.851562 C 276.488281 79.523438 276.332031 78.644531 276.019531 78.214844 C 275.707031 77.773438 275.320312 77.550781 274.867188 77.550781 C 274.40625 77.550781 274.046875 77.742188 273.773438 78.117188 C 273.429688 78.613281 273.265625 79.523438 273.265625 80.851562 Z M 273.265625 80.851562 "/>
<path style="fill-rule:nonzero;fill:rgb(69.803922%,85.098039%,100%);fill-opacity:1;stroke-width:1;stroke-linecap:round;stroke-linejoin:round;stroke:rgb(0%,0%,0%);stroke-opacity:1;stroke-miterlimit:10;" d="M 240.925 191 L 258.925 191 L 258.925 209 L 240.925 209 Z M 240.925 191 " transform="matrix(1.25,0,0,1.25,-15,-168.75)"/>
<path style=" stroke:none;fill-rule:nonzero;fill:rgb(0%,0%,0%);fill-opacity:1;" d="M 296.273438 80.441406 C 295.851562 80.300781 295.550781 80.089844 295.355469 79.816406 C 295.160156 79.53125 295.0625 79.191406 295.0625 78.800781 C 295.0625 78.214844 295.265625 77.726562 295.6875 77.335938 C 296.117188 76.933594 296.671875 76.730469 297.367188 76.730469 C 298.070312 76.730469 298.636719 76.941406 299.066406 77.355469 C 299.496094 77.761719 299.710938 78.253906 299.710938 78.839844 C 299.710938 79.207031 299.613281 79.53125 299.417969 79.816406 C 299.222656 80.089844 298.917969 80.300781 298.519531 80.441406 C 299.011719 80.613281 299.386719 80.878906 299.652344 81.242188 C 299.910156 81.59375 300.042969 82.019531 300.042969 82.511719 C 300.042969 83.203125 299.792969 83.78125 299.300781 84.25 C 298.816406 84.71875 298.175781 84.953125 297.386719 84.953125 C 296.589844 84.953125 295.945312 84.71875 295.453125 84.25 C 294.96875 83.78125 294.730469 83.195312 294.730469 82.492188 C 294.730469 81.972656 294.855469 81.535156 295.121094 81.183594 C 295.394531 80.820312 295.773438 80.574219 296.273438 80.441406 Z M 296.078125 78.78125 C 296.078125 79.160156 296.195312 79.472656 296.429688 79.71875 C 296.671875 79.953125 296.996094 80.070312 297.386719 80.070312 C 297.777344 80.070312 298.089844 79.953125 298.324219 79.71875 C 298.566406 79.472656 298.695312 79.171875 298.695312 78.820312 C 298.695312 78.46875 298.566406 78.171875 298.324219 77.921875 C 298.074219 77.675781 297.761719 77.550781 297.386719 77.550781 C 297.003906 77.550781 296.691406 77.675781 296.449219 77.921875 C 296.199219 78.15625 296.078125 78.445312 296.078125 78.78125 Z M 295.746094 82.492188 C 295.746094 82.78125 295.808594 83.054688 295.941406 83.3125 C 296.082031 83.574219 296.28125 83.777344 296.546875 83.917969 C 296.804688 84.0625 297.09375 84.132812 297.40625 84.132812 C 297.875 84.132812 298.253906 83.984375 298.558594 83.683594 C 298.871094 83.386719 299.027344 83 299.027344 82.53125 C 299.027344 82.050781 298.871094 81.652344 298.558594 81.339844 C 298.246094 81.027344 297.84375 80.871094 297.367188 80.871094 C 296.898438 80.871094 296.507812 81.027344 296.195312 81.339844 C 295.890625 81.652344 295.746094 82.039062 295.746094 82.492188 Z M 295.746094 82.492188 "/>
<path style=" stroke:none;fill-rule:nonzero;fill:rgb(0%,0%,0%);fill-opacity:1;" d="M 132.078125 91.75 L 132.585938 90.1875 C 133.746094 90.59375 134.589844 90.945312 135.125 91.242188 C 134.980469 89.929688 134.910156 89.015625 134.910156 88.507812 L 136.492188 88.507812 C 136.464844 89.242188 136.382812 90.148438 136.238281 91.242188 C 136.992188 90.867188 137.859375 90.515625 138.835938 90.1875 L 139.34375 91.75 C 138.40625 92.054688 137.496094 92.253906 136.609375 92.355469 C 137.050781 92.746094 137.683594 93.441406 138.503906 94.425781 L 137.175781 95.363281 C 136.746094 94.792969 136.246094 94.007812 135.671875 93 C 135.125 94.046875 134.648438 94.832031 134.246094 95.363281 L 132.9375 94.425781 C 133.796875 93.386719 134.410156 92.699219 134.773438 92.355469 C 133.824219 92.175781 132.925781 91.976562 132.078125 91.75 Z M 132.078125 91.75 "/>
<path style=" stroke:none;fill-rule:nonzero;fill:rgb(0%,0%,0%);fill-opacity:1;" d="M 237.941406 89.902344 L 227.296875 89.902344 L 227.296875 88.066406 L 237.941406 88.066406 Z M 237.941406 94.785156 L 227.296875 94.785156 L 227.296875 92.949219 L 237.941406 92.949219 Z M 237.941406 94.785156 "/>
<path style=" stroke:none;fill-rule:nonzero;fill:rgb(0%,0%,0%);fill-opacity:1;" d="M 269.820312 12.324219 C 269.820312 10.996094 270.175781 9.957031 270.894531 9.199219 C 271.605469 8.433594 272.535156 8.046875 273.667969 8.046875 C 274.410156 8.046875 275.078125 8.234375 275.679688 8.59375 C 276.273438 8.945312 276.734375 9.445312 277.046875 10.078125 C 277.359375 10.71875 277.515625 11.4375 277.515625 12.226562 C 277.515625 13.046875 277.347656 13.785156 277.027344 14.433594 C 276.699219 15.074219 276.230469 15.5625 275.621094 15.898438 C 275.019531 16.226562 274.371094 16.386719 273.667969 16.386719 C 272.910156 16.386719 272.230469 16.207031 271.636719 15.839844 C 271.035156 15.476562 270.582031 14.976562 270.269531 14.335938 C 269.964844 13.703125 269.820312 13.027344 269.820312 12.324219 Z M 270.914062 12.34375 C 270.914062 13.320312 271.171875 14.09375 271.695312 14.648438 C 272.210938 15.195312 272.871094 15.46875 273.667969 15.46875 C 274.457031 15.46875 275.117188 15.191406 275.640625 14.628906 C 276.15625 14.070312 276.421875 13.273438 276.421875 12.226562 C 276.421875 11.578125 276.308594 11.011719 276.089844 10.527344 C 275.863281 10.035156 275.542969 9.648438 275.113281 9.375 C 274.683594 9.101562 274.203125 8.964844 273.6875 8.964844 C 272.929688 8.964844 272.28125 9.226562 271.734375 9.746094 C 271.1875 10.269531 270.914062 11.132812 270.914062 12.34375 Z M 270.914062 12.34375 "/>
<path style=" stroke:none;fill-rule:nonzero;fill:rgb(0%,0%,0%);fill-opacity:1;" d="M 282.59375 16.25 L 282.59375 15.390625 C 282.136719 16.054688 281.519531 16.386719 280.738281 16.386719 C 280.398438 16.386719 280.078125 16.320312 279.78125 16.191406 C 279.480469 16.050781 279.253906 15.878906 279.097656 15.683594 C 278.953125 15.488281 278.855469 15.25 278.804688 14.960938 C 278.765625 14.765625 278.746094 14.453125 278.746094 14.023438 L 278.746094 10.410156 L 279.722656 10.410156 L 279.722656 13.652344 C 279.722656 14.175781 279.746094 14.523438 279.800781 14.6875 C 279.851562 14.953125 279.976562 15.15625 280.171875 15.3125 C 280.378906 15.460938 280.632812 15.527344 280.933594 15.527344 C 281.230469 15.527344 281.511719 15.460938 281.773438 15.3125 C 282.03125 15.15625 282.214844 14.953125 282.320312 14.6875 C 282.421875 14.429688 282.476562 14.042969 282.476562 13.535156 L 282.476562 10.410156 L 283.472656 10.410156 L 283.472656 16.25 Z M 282.59375 16.25 "/>
<path style=" stroke:none;fill-rule:nonzero;fill:rgb(0%,0%,0%);fill-opacity:1;" d="M 287.1875 15.371094 L 287.324219 16.230469 C 287.035156 16.292969 286.785156 16.328125 286.582031 16.328125 C 286.214844 16.328125 285.9375 16.269531 285.742188 16.152344 C 285.546875 16.035156 285.398438 15.890625 285.3125 15.703125 C 285.234375 15.523438 285.195312 15.136719 285.195312 14.550781 L 285.195312 11.191406 L 284.472656 11.191406 L 284.472656 10.410156 L 285.195312 10.410156 L 285.195312 8.964844 L 286.191406 8.378906 L 286.191406 10.410156 L 287.1875 10.410156 L 287.1875 11.191406 L 286.191406 11.191406 L 286.191406 14.589844 C 286.191406 14.878906 286.199219 15.058594 286.230469 15.136719 C 286.269531 15.214844 286.328125 15.28125 286.40625 15.332031 C 286.484375 15.386719 286.589844 15.410156 286.738281 15.410156 C 286.855469 15.410156 287 15.398438 287.1875 15.371094 Z M 287.1875 15.371094 "/>
<path style=" stroke:none;fill-rule:nonzero;fill:rgb(0%,0%,0%);fill-opacity:1;" d="M 288.144531 18.476562 L 288.144531 10.410156 L 289.042969 10.410156 L 289.042969 11.171875 C 289.246094 10.875 289.480469 10.65625 289.746094 10.507812 C 290.019531 10.367188 290.351562 10.292969 290.742188 10.292969 C 291.234375 10.292969 291.667969 10.425781 292.050781 10.683594 C 292.425781 10.933594 292.714844 11.289062 292.910156 11.757812 C 293.105469 12.226562 293.203125 12.734375 293.203125 13.28125 C 293.203125 13.882812 293.089844 14.421875 292.871094 14.902344 C 292.660156 15.386719 292.351562 15.757812 291.953125 16.015625 C 291.546875 16.257812 291.117188 16.386719 290.664062 16.386719 C 290.335938 16.386719 290.042969 16.3125 289.785156 16.171875 C 289.519531 16.03125 289.304688 15.855469 289.140625 15.644531 L 289.140625 18.476562 Z M 289.042969 13.359375 C 289.042969 14.117188 289.1875 14.679688 289.492188 15.039062 C 289.804688 15.390625 290.175781 15.566406 290.605469 15.566406 C 291.035156 15.566406 291.40625 15.386719 291.71875 15.019531 C 292.039062 14.644531 292.207031 14.0625 292.207031 13.28125 C 292.207031 12.539062 292.050781 11.988281 291.738281 11.621094 C 291.433594 11.246094 291.074219 11.054688 290.644531 11.054688 C 290.222656 11.054688 289.851562 11.257812 289.53125 11.660156 C 289.203125 12.050781 289.042969 12.617188 289.042969 13.359375 Z M 289.042969 13.359375 "/>
<path style=" stroke:none;fill-rule:nonzero;fill:rgb(0%,0%,0%);fill-opacity:1;" d="M 298.226562 16.25 L 298.226562 15.390625 C 297.765625 16.054688 297.152344 16.386719 296.371094 16.386719 C 296.027344 16.386719 295.710938 16.320312 295.414062 16.191406 C 295.109375 16.050781 294.886719 15.878906 294.730469 15.683594 C 294.582031 15.488281 294.484375 15.25 294.4375 14.960938 C 294.398438 14.765625 294.378906 14.453125 294.378906 14.023438 L 294.378906 10.410156 L 295.355469 10.410156 L 295.355469 13.652344 C 295.355469 14.175781 295.378906 14.523438 295.433594 14.6875 C 295.480469 14.953125 295.609375 15.15625 295.804688 15.3125 C 296.007812 15.460938 296.261719 15.527344 296.566406 15.527344 C 296.863281 15.527344 297.140625 15.460938 297.40625 15.3125 C 297.664062 15.15625 297.84375 14.953125 297.953125 14.6875 C 298.054688 14.429688 298.109375 14.042969 298.109375 13.535156 L 298.109375 10.410156 L 299.105469 10.410156 L 299.105469 16.25 Z M 298.226562 16.25 "/>
<path style=" stroke:none;fill-rule:nonzero;fill:rgb(0%,0%,0%);fill-opacity:1;" d="M 302.816406 15.371094 L 302.953125 16.230469 C 302.664062 16.292969 302.417969 16.328125 302.210938 16.328125 C 301.84375 16.328125 301.566406 16.269531 301.371094 16.152344 C 301.175781 16.035156 301.03125 15.890625 300.941406 15.703125 C 300.863281 15.523438 300.824219 15.136719 300.824219 14.550781 L 300.824219 11.191406 L 300.101562 11.191406 L 300.101562 10.410156 L 300.824219 10.410156 L 300.824219 8.964844 L 301.820312 8.378906 L 301.820312 10.410156 L 302.816406 10.410156 L 302.816406 11.191406 L 301.820312 11.191406 L 301.820312 14.589844 C 301.820312 14.878906 301.832031 15.058594 301.859375 15.136719 C 301.898438 15.214844 301.957031 15.28125 302.035156 15.332031 C 302.113281 15.386719 302.222656 15.410156 302.367188 15.410156 C 302.484375 15.410156 302.632812 15.398438 302.816406 15.371094 Z M 302.816406 15.371094 "/>
<path style=" stroke:none;fill-rule:nonzero;fill:rgb(0%,0%,0%);fill-opacity:1;" d="M 166.4375 16.25 L 166.4375 8.203125 L 167.511719 8.203125 L 167.511719 12.1875 L 171.515625 8.203125 L 172.941406 8.203125 L 169.582031 11.464844 L 173.097656 16.25 L 171.691406 16.25 L 168.820312 12.167969 L 167.511719 13.457031 L 167.511719 16.25 Z M 166.4375 16.25 "/>
<path style=" stroke:none;fill-rule:nonzero;fill:rgb(0%,0%,0%);fill-opacity:1;" d="M 177.84375 14.375 L 178.878906 14.492188 C 178.710938 15.09375 178.402344 15.5625 177.960938 15.898438 C 177.53125 16.226562 176.976562 16.386719 176.300781 16.386719 C 175.453125 16.386719 174.777344 16.128906 174.269531 15.605469 C 173.773438 15.074219 173.527344 14.332031 173.527344 13.378906 C 173.527344 12.402344 173.78125 11.648438 174.289062 11.113281 C 174.796875 10.566406 175.453125 10.292969 176.261719 10.292969 C 177.042969 10.292969 177.675781 10.5625 178.15625 11.09375 C 178.652344 11.617188 178.898438 12.359375 178.898438 13.320312 C 178.898438 13.390625 178.898438 13.476562 178.898438 13.59375 L 174.542969 13.59375 C 174.582031 14.234375 174.765625 14.722656 175.089844 15.058594 C 175.414062 15.398438 175.824219 15.566406 176.320312 15.566406 C 176.683594 15.566406 176.992188 15.476562 177.238281 15.292969 C 177.5 15.097656 177.699219 14.796875 177.84375 14.375 Z M 174.601562 12.773438 L 177.863281 12.773438 C 177.824219 12.28125 177.699219 11.910156 177.492188 11.660156 C 177.179688 11.285156 176.769531 11.09375 176.261719 11.09375 C 175.804688 11.09375 175.421875 11.25 175.109375 11.5625 C 174.808594 11.867188 174.640625 12.265625 174.601562 12.773438 Z M 174.601562 12.773438 "/>
<path style=" stroke:none;fill-rule:nonzero;fill:rgb(0%,0%,0%);fill-opacity:1;" d="M 180.097656 16.25 L 180.097656 10.410156 L 180.996094 10.410156 L 180.996094 11.308594 C 181.21875 10.894531 181.425781 10.621094 181.621094 10.488281 C 181.816406 10.359375 182.03125 10.292969 182.265625 10.292969 C 182.589844 10.292969 182.929688 10.398438 183.28125 10.605469 L 182.929688 11.523438 C 182.695312 11.382812 182.453125 11.308594 182.207031 11.308594 C 182 11.308594 181.804688 11.375 181.621094 11.503906 C 181.453125 11.636719 181.328125 11.816406 181.25 12.050781 C 181.144531 12.402344 181.09375 12.789062 181.09375 13.203125 L 181.09375 16.25 Z M 180.097656 16.25 "/>
<path style=" stroke:none;fill-rule:nonzero;fill:rgb(0%,0%,0%);fill-opacity:1;" d="M 183.863281 16.25 L 183.863281 10.410156 L 184.761719 10.410156 L 184.761719 11.25 C 185.179688 10.617188 185.796875 10.292969 186.617188 10.292969 C 186.96875 10.292969 187.289062 10.359375 187.574219 10.488281 C 187.875 10.605469 188.09375 10.773438 188.238281 10.976562 C 188.382812 11.171875 188.484375 11.414062 188.550781 11.699219 C 188.589844 11.882812 188.609375 12.203125 188.609375 12.65625 L 188.609375 16.25 L 187.613281 16.25 L 187.613281 12.695312 C 187.613281 12.296875 187.574219 11.992188 187.496094 11.796875 C 187.417969 11.601562 187.28125 11.445312 187.085938 11.328125 C 186.890625 11.203125 186.664062 11.132812 186.402344 11.132812 C 185.984375 11.132812 185.621094 11.269531 185.308594 11.542969 C 185.007812 11.804688 184.859375 12.3125 184.859375 13.066406 L 184.859375 16.25 Z M 183.863281 16.25 "/>
<path style=" stroke:none;fill-rule:nonzero;fill:rgb(0%,0%,0%);fill-opacity:1;" d="M 194.105469 14.375 L 195.140625 14.492188 C 194.96875 15.09375 194.664062 15.5625 194.222656 15.898438 C 193.792969 16.226562 193.238281 16.386719 192.5625 16.386719 C 191.714844 16.386719 191.039062 16.128906 190.53125 15.605469 C 190.035156 15.074219 189.789062 14.332031 189.789062 13.378906 C 189.789062 12.402344 190.042969 11.648438 190.550781 11.113281 C 191.058594 10.566406 191.714844 10.292969 192.523438 10.292969 C 193.304688 10.292969 193.933594 10.5625 194.417969 11.09375 C 194.910156 11.617188 195.160156 12.359375 195.160156 13.320312 C 195.160156 13.390625 195.160156 13.476562 195.160156 13.59375 L 190.804688 13.59375 C 190.84375 14.234375 191.023438 14.722656 191.351562 15.058594 C 191.675781 15.398438 192.085938 15.566406 192.582031 15.566406 C 192.945312 15.566406 193.25 15.476562 193.5 15.292969 C 193.757812 15.097656 193.960938 14.796875 194.105469 14.375 Z M 190.863281 12.773438 L 194.125 12.773438 C 194.085938 12.28125 193.960938 11.910156 193.753906 11.660156 C 193.441406 11.285156 193.03125 11.09375 192.523438 11.09375 C 192.066406 11.09375 191.683594 11.25 191.371094 11.5625 C 191.070312 11.867188 190.902344 12.265625 190.863281 12.773438 Z M 190.863281 12.773438 "/>
<path style=" stroke:none;fill-rule:nonzero;fill:rgb(0%,0%,0%);fill-opacity:1;" d="M 196.359375 16.25 L 196.359375 8.203125 L 197.335938 8.203125 L 197.335938 16.25 Z M 196.359375 16.25 "/>
<path style=" stroke:none;fill-rule:nonzero;fill:rgb(0%,0%,0%);fill-opacity:1;" d="M 47.292969 16.25 L 47.292969 8.203125 L 48.347656 8.203125 L 48.347656 16.25 Z M 47.292969 16.25 "/>
<path style=" stroke:none;fill-rule:nonzero;fill:rgb(0%,0%,0%);fill-opacity:1;" d="M 50.105469 16.25 L 50.105469 10.410156 L 51.003906 10.410156 L 51.003906 11.25 C 51.421875 10.617188 52.039062 10.292969 52.859375 10.292969 C 53.210938 10.292969 53.53125 10.359375 53.816406 10.488281 C 54.117188 10.605469 54.335938 10.773438 54.480469 10.976562 C 54.625 11.171875 54.726562 11.414062 54.792969 11.699219 C 54.832031 11.882812 54.851562 12.203125 54.851562 12.65625 L 54.851562 16.25 L 53.855469 16.25 L 53.855469 12.695312 C 53.855469 12.296875 53.816406 11.992188 53.738281 11.796875 C 53.660156 11.601562 53.523438 11.445312 53.328125 11.328125 C 53.132812 11.203125 52.90625 11.132812 52.644531 11.132812 C 52.226562 11.132812 51.863281 11.269531 51.550781 11.542969 C 51.25 11.804688 51.101562 12.3125 51.101562 13.066406 L 51.101562 16.25 Z M 50.105469 16.25 "/>
<path style=" stroke:none;fill-rule:nonzero;fill:rgb(0%,0%,0%);fill-opacity:1;" d="M 56.359375 18.476562 L 56.359375 10.410156 L 57.257812 10.410156 L 57.257812 11.171875 C 57.464844 10.875 57.699219 10.65625 57.960938 10.507812 C 58.234375 10.367188 58.566406 10.292969 58.957031 10.292969 C 59.449219 10.292969 59.886719 10.425781 60.265625 10.683594 C 60.640625 10.933594 60.929688 11.289062 61.125 11.757812 C 61.320312 12.226562 61.417969 12.734375 61.417969 13.28125 C 61.417969 13.882812 61.304688 14.421875 61.085938 14.902344 C 60.875 15.386719 60.570312 15.757812 60.167969 16.015625 C 59.761719 16.257812 59.332031 16.386719 58.878906 16.386719 C 58.550781 16.386719 58.257812 16.3125 58 16.171875 C 57.738281 16.03125 57.523438 15.855469 57.355469 15.644531 L 57.355469 18.476562 Z M 57.257812 13.359375 C 57.257812 14.117188 57.40625 14.679688 57.707031 15.039062 C 58.019531 15.390625 58.390625 15.566406 58.820312 15.566406 C 59.25 15.566406 59.621094 15.386719 59.933594 15.019531 C 60.257812 14.644531 60.421875 14.0625 60.421875 13.28125 C 60.421875 12.539062 60.265625 11.988281 59.953125 11.621094 C 59.652344 11.246094 59.289062 11.054688 58.859375 11.054688 C 58.441406 11.054688 58.070312 11.257812 57.746094 11.660156 C 57.417969 12.050781 57.257812 12.617188 57.257812 13.359375 Z M 57.257812 13.359375 "/>
<path style=" stroke:none;fill-rule:nonzero;fill:rgb(0%,0%,0%);fill-opacity:1;" d="M 66.441406 16.25 L 66.441406 15.390625 C 65.980469 16.054688 65.367188 16.386719 64.585938 16.386719 C 64.242188 16.386719 63.925781 16.320312 63.628906 16.191406 C 63.324219 16.050781 63.101562 15.878906 62.945312 15.683594 C 62.796875 15.488281 62.699219 15.25 62.652344 14.960938 C 62.613281 14.765625 62.59375 14.453125 62.59375 14.023438 L 62.59375 10.410156 L 63.570312 10.410156 L 63.570312 13.652344 C 63.570312 14.175781 63.59375 14.523438 63.648438 14.6875 C 63.695312 14.953125 63.824219 15.15625 64.019531 15.3125 C 64.222656 15.460938 64.476562 15.527344 64.78125 15.527344 C 65.078125 15.527344 65.355469 15.460938 65.621094 15.3125 C 65.878906 15.15625 66.058594 14.953125 66.167969 14.6875 C 66.269531 14.429688 66.324219 14.042969 66.324219 13.535156 L 66.324219 10.410156 L 67.320312 10.410156 L 67.320312 16.25 Z M 66.441406 16.25 "/>
<path style=" stroke:none;fill-rule:nonzero;fill:rgb(0%,0%,0%);fill-opacity:1;" d="M 71.03125 15.371094 L 71.167969 16.230469 C 70.882812 16.292969 70.632812 16.328125 70.425781 16.328125 C 70.0625 16.328125 69.78125 16.269531 69.585938 16.152344 C 69.390625 16.035156 69.246094 15.890625 69.15625 15.703125 C 69.078125 15.523438 69.039062 15.136719 69.039062 14.550781 L 69.039062 11.191406 L 68.316406 11.191406 L 68.316406 10.410156 L 69.039062 10.410156 L 69.039062 8.964844 L 70.035156 8.378906 L 70.035156 10.410156 L 71.03125 10.410156 L 71.03125 11.191406 L 70.035156 11.191406 L 70.035156 14.589844 C 70.035156 14.878906 70.046875 15.058594 70.074219 15.136719 C 70.113281 15.214844 70.171875 15.28125 70.25 15.332031 C 70.328125 15.386719 70.4375 15.410156 70.582031 15.410156 C 70.699219 15.410156 70.847656 15.398438 71.03125 15.371094 Z M 71.03125 15.371094 "/>
</g>
</svg>
