<?xml version="1.0" encoding="UTF-8"?>
<svg xmlns="http://www.w3.org/2000/svg" xmlns:xlink="http://www.w3.org/1999/xlink" width="558pt" height="165pt" viewBox="0 0 558 165" version="1.1">
<defs>
<clipPath id="clip1">
  <path d="M 9 57 L 14.84375 57 L 14.84375 62.851562 L 9 62.851562 Z M 9 57 "/>
</clipPath>
<clipPath id="clip2">
  <path d="M 80.660156 48.160156 L 86.597656 48.160156 L 86.597656 54 L 80.660156 54 Z M 80.660156 48.160156 "/>
</clipPath>
<clipPath id="clip3">
  <path d="M 361.25 14 L 367.5 14 L 367.5 21 L 361.25 21 Z M 361.25 14 "/>
</clipPath>
<clipPath id="clip4">
  <path d="M 361.828125 20.621094 L 368.078125 20.507812 L 367.964844 14.261719 L 361.714844 14.371094 Z M 361.828125 20.621094 "/>
</clipPath>
<clipPath id="clip5">
  <path d="M 361.71875 14.527344 L 367.65625 14.421875 L 367.757812 20.359375 L 361.820312 20.464844 Z M 361.71875 14.527344 "/>
</clipPath>
<clipPath id="clip6">
  <path d="M 361.820312 20.464844 L 367.757812 20.359375 L 367.65625 14.421875 L 361.71875 14.527344 Z M 361.820312 20.464844 "/>
</clipPath>
<clipPath id="clip7">
  <path d="M 166.25 14 L 172.5 14 L 172.5 20 L 166.25 20 Z M 166.25 14 "/>
</clipPath>
<clipPath id="clip8">
  <path d="M 166.816406 20.238281 L 173.066406 20.132812 L 172.953125 13.882812 L 166.703125 13.988281 Z M 166.816406 20.238281 "/>
</clipPath>
<clipPath id="clip9">
  <path d="M 166.710938 14.144531 L 172.648438 14.042969 L 172.75 19.980469 L 166.8125 20.082031 Z M 166.710938 14.144531 "/>
</clipPath>
<clipPath id="clip10">
  <path d="M 166.8125 20.082031 L 172.75 19.980469 L 172.648438 14.042969 L 166.710938 14.144531 Z M 166.8125 20.082031 "/>
</clipPath>
</defs>
<g id="surface1">
<path style=" stroke:none;fill-rule:nonzero;fill:rgb(40%,74.901961%,100%);fill-opacity:1;" d="M 108.949219 49.300781 L 108.949219 99.761719 L 118.613281 99.761719 L 118.613281 49.300781 Z M 108.949219 49.300781 "/>
<path style="fill:none;stroke-width:1;stroke-linecap:round;stroke-linejoin:round;stroke:rgb(0%,0%,0%);stroke-opacity:1;stroke-miterlimit:10;" d="M 283.440625 -435.890625 L 323.809375 -435.890625 L 323.809375 -428.159375 L 283.440625 -428.159375 Z M 283.440625 -435.890625 " transform="matrix(0,1.25,-1.25,0,-426.25,-305)"/>
<path style="fill:none;stroke-width:1;stroke-linecap:round;stroke-linejoin:round;stroke:rgb(0%,0%,0%);stroke-opacity:1;stroke-dasharray:4,4;stroke-miterlimit:10;" d="M 278.578125 -607.046875 L 328.35 -607.046875 L 328.35 -540.4 L 278.578125 -540.4 Z M 278.578125 -607.046875 " transform="matrix(0,1.25,-1.25,0,-426.25,-305)"/>
<path style=" stroke:none;fill-rule:nonzero;fill:rgb(69.803922%,85.098039%,100%);fill-opacity:1;" d="M 255.394531 49.300781 L 255.394531 99.761719 L 265.058594 99.761719 L 265.058594 49.300781 Z M 255.394531 49.300781 "/>
<path style="fill:none;stroke-width:1;stroke-linecap:round;stroke-linejoin:round;stroke:rgb(0%,0%,0%);stroke-opacity:1;stroke-miterlimit:10;" d="M 283.440625 -553.046875 L 323.809375 -553.046875 L 323.809375 -545.315625 L 283.440625 -545.315625 Z M 283.440625 -553.046875 " transform="matrix(0,1.25,-1.25,0,-426.25,-305)"/>
<path style="fill:none;stroke-width:1;stroke-linecap:round;stroke-linejoin:round;stroke:rgb(0%,0%,0%);stroke-opacity:1;stroke-miterlimit:10;" d="M 303.75625 -532.30625 L 303.684375 -541.815625 " transform="matrix(0,1.25,-1.25,0,-426.25,-305)"/>
<path style="fill:none;stroke-width:1;stroke-linecap:butt;stroke-linejoin:miter;stroke:rgb(0%,0%,0%);stroke-opacity:1;stroke-miterlimit:10;" d="M 303.671875 -543.4125 L 303.684375 -541.815625 M 303.08125 -541.809375 L 303.671875 -543.4125 L 304.28125 -541.81875 " transform="matrix(0,1.25,-1.25,0,-426.25,-305)"/>
<path style="fill-rule:nonzero;fill:rgb(40%,74.901961%,100%);fill-opacity:1;stroke-width:1;stroke-linecap:round;stroke-linejoin:round;stroke:rgb(0%,0%,0%);stroke-opacity:1;stroke-miterlimit:10;" d="M 305.515625 -616.421875 C 306.64375 -615.2875 306.64375 -613.453125 305.515625 -612.31875 C 304.38125 -611.1875 302.546875 -611.1875 301.4125 -612.31875 C 300.28125 -613.453125 300.28125 -615.2875 301.4125 -616.421875 C 302.546875 -617.55 304.38125 -617.55 305.515625 -616.421875 " transform="matrix(0,1.25,-1.25,0,-426.25,-305)"/>
<path style=" stroke:none;fill-rule:nonzero;fill:rgb(0%,0%,0%);fill-opacity:1;" d="M 340.039062 74.242188 L 341.269531 74.242188 L 341.269531 73.03125 L 341.777344 73.03125 L 341.777344 74.242188 L 342.988281 74.242188 L 342.988281 74.769531 L 341.777344 74.769531 L 341.777344 75.980469 L 341.269531 75.980469 L 341.269531 74.769531 L 340.039062 74.769531 Z M 340.039062 74.242188 "/>
<path style="fill:none;stroke-width:1;stroke-linecap:round;stroke-linejoin:round;stroke:rgb(0%,0%,0%);stroke-opacity:1;stroke-miterlimit:10;" d="M 283.440625 -565.328125 L 323.809375 -565.328125 L 323.809375 -557.596875 L 283.440625 -557.596875 Z M 283.440625 -565.328125 " transform="matrix(0,1.25,-1.25,0,-426.25,-305)"/>
<path style=" stroke:none;fill-rule:nonzero;fill:rgb(40%,74.901961%,100%);fill-opacity:1;" d="M 350.863281 49.300781 L 350.863281 99.761719 L 360.527344 99.761719 L 360.527344 49.300781 Z M 350.863281 49.300781 "/>
<path style="fill:none;stroke-width:1;stroke-linecap:round;stroke-linejoin:round;stroke:rgb(0%,0%,0%);stroke-opacity:1;stroke-miterlimit:10;" d="M 283.440625 -629.421875 L 323.809375 -629.421875 L 323.809375 -621.690625 L 283.440625 -621.690625 Z M 283.440625 -629.421875 " transform="matrix(0,1.25,-1.25,0,-426.25,-305)"/>
<path style=" stroke:none;fill-rule:nonzero;fill:rgb(40%,74.901961%,100%);fill-opacity:1;" d="M 286.097656 49.300781 L 286.097656 99.761719 L 295.761719 99.761719 L 295.761719 49.300781 Z M 286.097656 49.300781 "/>
<path style="fill:none;stroke-width:1;stroke-linecap:round;stroke-linejoin:round;stroke:rgb(0%,0%,0%);stroke-opacity:1;stroke-miterlimit:10;" d="M 283.440625 -577.609375 L 323.809375 -577.609375 L 323.809375 -569.878125 L 283.440625 -569.878125 Z M 283.440625 -577.609375 " transform="matrix(0,1.25,-1.25,0,-426.25,-305)"/>
<path style="fill:none;stroke-width:1;stroke-linecap:round;stroke-linejoin:round;stroke:rgb(0%,0%,0%);stroke-opacity:1;stroke-miterlimit:10;" d="M 303.625 -553.046875 L 303.625 -554.096875 " transform="matrix(0,1.25,-1.25,0,-426.25,-305)"/>
<path style="fill:none;stroke-width:1;stroke-linecap:butt;stroke-linejoin:miter;stroke:rgb(0%,0%,0%);stroke-opacity:1;stroke-miterlimit:10;" d="M 303.625 -555.7 L 303.625 -554.096875 M 303.025 -554.096875 L 303.625 -555.7 L 304.225 -554.096875 " transform="matrix(0,1.25,-1.25,0,-426.25,-305)"/>
<path style="fill:none;stroke-width:1;stroke-linecap:round;stroke-linejoin:round;stroke:rgb(0%,0%,0%);stroke-opacity:1;stroke-miterlimit:10;" d="M 303.625 -565.328125 L 303.625 -566.378125 " transform="matrix(0,1.25,-1.25,0,-426.25,-305)"/>
<path style="fill:none;stroke-width:1;stroke-linecap:butt;stroke-linejoin:miter;stroke:rgb(0%,0%,0%);stroke-opacity:1;stroke-miterlimit:10;" d="M 303.625 -567.98125 L 303.625 -566.378125 M 303.025 -566.378125 L 303.625 -567.98125 L 304.225 -566.378125 " transform="matrix(0,1.25,-1.25,0,-426.25,-305)"/>
<path style="fill:none;stroke-width:1;stroke-linecap:round;stroke-linejoin:round;stroke:rgb(0%,0%,0%);stroke-opacity:1;stroke-miterlimit:10;" d="M 303.5875 -603.159375 L 303.53125 -607.971875 " transform="matrix(0,1.25,-1.25,0,-426.25,-305)"/>
<path style="fill:none;stroke-width:1;stroke-linecap:butt;stroke-linejoin:miter;stroke:rgb(0%,0%,0%);stroke-opacity:1;stroke-miterlimit:10;" d="M 303.515625 -609.56875 L 303.53125 -607.971875 M 302.934375 -607.965625 L 303.515625 -609.56875 L 304.13125 -607.98125 " transform="matrix(0,1.25,-1.25,0,-426.25,-305)"/>
<path style="fill:none;stroke-width:1;stroke-linecap:round;stroke-linejoin:round;stroke:rgb(0%,0%,0%);stroke-opacity:1;stroke-miterlimit:10;" d="M 303.50625 -617.26875 L 303.51875 -618.190625 " transform="matrix(0,1.25,-1.25,0,-426.25,-305)"/>
<path style="fill:none;stroke-width:1;stroke-linecap:butt;stroke-linejoin:miter;stroke:rgb(0%,0%,0%);stroke-opacity:1;stroke-miterlimit:10;" d="M 303.54375 -619.79375 L 303.51875 -618.190625 M 302.91875 -618.203125 L 303.54375 -619.79375 L 304.121875 -618.184375 " transform="matrix(0,1.25,-1.25,0,-426.25,-305)"/>
<path style="fill:none;stroke-width:1;stroke-linecap:round;stroke-linejoin:round;stroke:rgb(0%,0%,0%);stroke-opacity:1;stroke-miterlimit:10;" d="M 303.725 -535.93125 L 352.05 -535.93125 C 353.70625 -535.93125 355.05 -537.26875 355.05 -538.93125 L 355.05 -566.359375 " transform="matrix(0,1.25,-1.25,0,-426.25,-305)"/>
<path style="fill:none;stroke-width:1;stroke-linecap:butt;stroke-linejoin:miter;stroke:rgb(0%,0%,0%);stroke-opacity:1;stroke-miterlimit:10;" d="M 355.05 -567.95625 L 355.05 -566.359375 M 354.453125 -566.359375 L 355.05 -567.95625 L 355.653125 -566.359375 " transform="matrix(0,1.25,-1.25,0,-426.25,-305)"/>
<path style=" stroke:none;fill-rule:nonzero;fill:rgb(69.803922%,85.098039%,100%);fill-opacity:1;" d="M 302.6875 49.300781 L 302.6875 99.761719 L 312.347656 99.761719 L 312.347656 49.300781 Z M 302.6875 49.300781 "/>
<path style="fill:none;stroke-width:1;stroke-linecap:round;stroke-linejoin:round;stroke:rgb(0%,0%,0%);stroke-opacity:1;stroke-miterlimit:10;" d="M 283.440625 -590.878125 L 323.809375 -590.878125 L 323.809375 -583.15 L 283.440625 -583.15 Z M 283.440625 -590.878125 " transform="matrix(0,1.25,-1.25,0,-426.25,-305)"/>
<path style="fill:none;stroke-width:1;stroke-linecap:round;stroke-linejoin:round;stroke:rgb(0%,0%,0%);stroke-opacity:1;stroke-miterlimit:10;" d="M 303.625 -577.609375 L 303.625 -579.65 " transform="matrix(0,1.25,-1.25,0,-426.25,-305)"/>
<path style="fill:none;stroke-width:1;stroke-linecap:butt;stroke-linejoin:miter;stroke:rgb(0%,0%,0%);stroke-opacity:1;stroke-miterlimit:10;" d="M 303.625 -581.25 L 303.625 -579.65 M 303.025 -579.65 L 303.625 -581.25 L 304.225 -579.65 " transform="matrix(0,1.25,-1.25,0,-426.25,-305)"/>
<path style="fill:none;stroke-width:1;stroke-linecap:round;stroke-linejoin:round;stroke:rgb(0%,0%,0%);stroke-opacity:1;stroke-miterlimit:10;" d="M 283.440625 -603.159375 L 323.809375 -603.159375 L 323.809375 -595.434375 L 283.440625 -595.434375 Z M 283.440625 -603.159375 " transform="matrix(0,1.25,-1.25,0,-426.25,-305)"/>
<path style="fill:none;stroke-width:1;stroke-linecap:round;stroke-linejoin:round;stroke:rgb(0%,0%,0%);stroke-opacity:1;stroke-miterlimit:10;" d="M 303.625 -590.878125 L 303.625 -591.934375 " transform="matrix(0,1.25,-1.25,0,-426.25,-305)"/>
<path style="fill:none;stroke-width:1;stroke-linecap:butt;stroke-linejoin:miter;stroke:rgb(0%,0%,0%);stroke-opacity:1;stroke-miterlimit:10;" d="M 303.625 -593.53125 L 303.625 -591.934375 M 303.025 -591.934375 L 303.625 -593.53125 L 304.225 -591.934375 " transform="matrix(0,1.25,-1.25,0,-426.25,-305)"/>
<path style=" stroke:none;fill-rule:nonzero;fill:rgb(69.803922%,85.098039%,100%);fill-opacity:1;" d="M 286.074219 113.585938 L 286.074219 164.042969 L 295.738281 164.042969 L 295.738281 113.585938 Z M 286.074219 113.585938 "/>
<path style="fill:none;stroke-width:1;stroke-linecap:round;stroke-linejoin:round;stroke:rgb(0%,0%,0%);stroke-opacity:1;stroke-miterlimit:10;" d="M 334.86875 -577.590625 L 375.234375 -577.590625 L 375.234375 -569.859375 L 334.86875 -569.859375 Z M 334.86875 -577.590625 " transform="matrix(0,1.25,-1.25,0,-426.25,-305)"/>
<path style="fill:none;stroke-width:1;stroke-linecap:round;stroke-linejoin:round;stroke:rgb(0%,0%,0%);stroke-opacity:1;stroke-miterlimit:10;" d="M 355.05 -577.590625 L 355.05 -611.371875 C 355.05 -613.028125 353.70625 -614.371875 352.05 -614.371875 L 309.8625 -614.371875 " transform="matrix(0,1.25,-1.25,0,-426.25,-305)"/>
<path style="fill:none;stroke-width:1;stroke-linecap:butt;stroke-linejoin:miter;stroke:rgb(0%,0%,0%);stroke-opacity:1;stroke-miterlimit:10;" d="M 308.2625 -614.371875 L 309.8625 -614.371875 M 309.8625 -613.76875 L 308.2625 -614.371875 L 309.8625 -614.96875 " transform="matrix(0,1.25,-1.25,0,-426.25,-305)"/>
<path style="fill:none;stroke-width:1;stroke-linecap:round;stroke-linejoin:round;stroke:rgb(0%,0%,0%);stroke-opacity:1;stroke-dasharray:4,4;stroke-miterlimit:10;" d="M 278.7375 -509.93125 L 328.5125 -509.93125 L 328.5125 -443.278125 L 278.7375 -443.278125 Z M 278.7375 -509.93125 " transform="matrix(0,1.25,-1.25,0,-426.25,-305)"/>
<path style=" stroke:none;fill-rule:nonzero;fill:rgb(69.803922%,85.098039%,100%);fill-opacity:1;" d="M 133.992188 49.5 L 133.992188 99.960938 L 143.65625 99.960938 L 143.65625 49.5 Z M 133.992188 49.5 "/>
<path style="fill:none;stroke-width:1;stroke-linecap:round;stroke-linejoin:round;stroke:rgb(0%,0%,0%);stroke-opacity:1;stroke-miterlimit:10;" d="M 283.6 -455.925 L 323.96875 -455.925 L 323.96875 -448.19375 L 283.6 -448.19375 Z M 283.6 -455.925 " transform="matrix(0,1.25,-1.25,0,-426.25,-305)"/>
<path style="fill:none;stroke-width:1;stroke-linecap:round;stroke-linejoin:round;stroke:rgb(0%,0%,0%);stroke-opacity:1;stroke-miterlimit:10;" d="M 303.65625 -435.890625 L 303.725 -444.69375 " transform="matrix(0,1.25,-1.25,0,-426.25,-305)"/>
<path style="fill:none;stroke-width:1;stroke-linecap:butt;stroke-linejoin:miter;stroke:rgb(0%,0%,0%);stroke-opacity:1;stroke-miterlimit:10;" d="M 303.7375 -446.296875 L 303.725 -444.69375 M 303.128125 -444.7 L 303.7375 -446.296875 L 304.328125 -444.690625 " transform="matrix(0,1.25,-1.25,0,-426.25,-305)"/>
<path style="fill-rule:nonzero;fill:rgb(40%,74.901961%,100%);fill-opacity:1;stroke-width:1;stroke-linecap:round;stroke-linejoin:round;stroke:rgb(0%,0%,0%);stroke-opacity:1;stroke-miterlimit:10;" d="M 305.675 -519.3 C 306.809375 -518.16875 306.809375 -516.33125 305.675 -515.2 C 304.54375 -514.06875 302.70625 -514.06875 301.575 -515.2 C 300.44375 -516.33125 300.44375 -518.16875 301.575 -519.3 C 302.70625 -520.434375 304.54375 -520.434375 305.675 -519.3 " transform="matrix(0,1.25,-1.25,0,-426.25,-305)"/>
<path style=" stroke:none;fill-rule:nonzero;fill:rgb(0%,0%,0%);fill-opacity:1;" d="M 218.636719 74.445312 L 219.867188 74.445312 L 219.867188 73.234375 L 220.375 73.234375 L 220.375 74.445312 L 221.585938 74.445312 L 221.585938 74.972656 L 220.375 74.972656 L 220.375 76.183594 L 219.867188 76.183594 L 219.867188 74.972656 L 218.636719 74.972656 Z M 218.636719 74.445312 "/>
<path style="fill:none;stroke-width:1;stroke-linecap:round;stroke-linejoin:round;stroke:rgb(0%,0%,0%);stroke-opacity:1;stroke-miterlimit:10;" d="M 283.6 -468.20625 L 323.96875 -468.20625 L 323.96875 -460.475 L 283.6 -460.475 Z M 283.6 -468.20625 " transform="matrix(0,1.25,-1.25,0,-426.25,-305)"/>
<path style=" stroke:none;fill-rule:nonzero;fill:rgb(40%,74.901961%,100%);fill-opacity:1;" d="M 229.46875 49.5 L 229.46875 99.960938 L 239.132812 99.960938 L 239.132812 49.5 Z M 229.46875 49.5 "/>
<path style="fill:none;stroke-width:1;stroke-linecap:round;stroke-linejoin:round;stroke:rgb(0%,0%,0%);stroke-opacity:1;stroke-miterlimit:10;" d="M 283.6 -532.30625 L 323.96875 -532.30625 L 323.96875 -524.575 L 283.6 -524.575 Z M 283.6 -532.30625 " transform="matrix(0,1.25,-1.25,0,-426.25,-305)"/>
<path style=" stroke:none;fill-rule:nonzero;fill:rgb(40%,74.901961%,100%);fill-opacity:1;" d="M 164.695312 49.5 L 164.695312 99.960938 L 174.359375 99.960938 L 174.359375 49.5 Z M 164.695312 49.5 "/>
<path style="fill:none;stroke-width:1;stroke-linecap:round;stroke-linejoin:round;stroke:rgb(0%,0%,0%);stroke-opacity:1;stroke-miterlimit:10;" d="M 283.6 -480.4875 L 323.96875 -480.4875 L 323.96875 -472.75625 L 283.6 -472.75625 Z M 283.6 -480.4875 " transform="matrix(0,1.25,-1.25,0,-426.25,-305)"/>
<path style="fill:none;stroke-width:1;stroke-linecap:round;stroke-linejoin:round;stroke:rgb(0%,0%,0%);stroke-opacity:1;stroke-miterlimit:10;" d="M 303.784375 -455.925 L 303.784375 -456.975 " transform="matrix(0,1.25,-1.25,0,-426.25,-305)"/>
<path style="fill:none;stroke-width:1;stroke-linecap:butt;stroke-linejoin:miter;stroke:rgb(0%,0%,0%);stroke-opacity:1;stroke-miterlimit:10;" d="M 303.784375 -458.578125 L 303.784375 -456.975 M 303.1875 -456.975 L 303.784375 -458.578125 L 304.3875 -456.975 " transform="matrix(0,1.25,-1.25,0,-426.25,-305)"/>
<path style="fill:none;stroke-width:1;stroke-linecap:round;stroke-linejoin:round;stroke:rgb(0%,0%,0%);stroke-opacity:1;stroke-miterlimit:10;" d="M 303.784375 -468.20625 L 303.784375 -469.25625 " transform="matrix(0,1.25,-1.25,0,-426.25,-305)"/>
<path style="fill:none;stroke-width:1;stroke-linecap:butt;stroke-linejoin:miter;stroke:rgb(0%,0%,0%);stroke-opacity:1;stroke-miterlimit:10;" d="M 303.784375 -470.859375 L 303.784375 -469.25625 M 303.1875 -469.25625 L 303.784375 -470.859375 L 304.3875 -469.25625 " transform="matrix(0,1.25,-1.25,0,-426.25,-305)"/>
<path style="fill:none;stroke-width:1;stroke-linecap:round;stroke-linejoin:round;stroke:rgb(0%,0%,0%);stroke-opacity:1;stroke-miterlimit:10;" d="M 303.746875 -506.04375 L 303.69375 -510.85 " transform="matrix(0,1.25,-1.25,0,-426.25,-305)"/>
<path style="fill:none;stroke-width:1;stroke-linecap:butt;stroke-linejoin:miter;stroke:rgb(0%,0%,0%);stroke-opacity:1;stroke-miterlimit:10;" d="M 303.675 -512.453125 L 303.69375 -510.85 M 303.09375 -510.84375 L 303.675 -512.453125 L 304.29375 -510.859375 " transform="matrix(0,1.25,-1.25,0,-426.25,-305)"/>
<path style="fill:none;stroke-width:1;stroke-linecap:round;stroke-linejoin:round;stroke:rgb(0%,0%,0%);stroke-opacity:1;stroke-miterlimit:10;" d="M 303.66875 -520.15 L 303.68125 -521.075 " transform="matrix(0,1.25,-1.25,0,-426.25,-305)"/>
<path style="fill:none;stroke-width:1;stroke-linecap:butt;stroke-linejoin:miter;stroke:rgb(0%,0%,0%);stroke-opacity:1;stroke-miterlimit:10;" d="M 303.703125 -522.671875 L 303.68125 -521.075 M 303.08125 -521.08125 L 303.703125 -522.671875 L 304.28125 -521.0625 " transform="matrix(0,1.25,-1.25,0,-426.25,-305)"/>
<path style="fill:none;stroke-width:1;stroke-linecap:round;stroke-linejoin:round;stroke:rgb(0%,0%,0%);stroke-opacity:1;stroke-miterlimit:10;" d="M 303.690625 -440.121875 L 313.684375 -440.121875 C 313.6875 -440.121875 313.690625 -440.121875 313.7 -440.121875 L 330.440625 -440.03125 C 332.1 -440.01875 333.45 -441.35625 333.4625 -443.015625 C 333.4625 -443.015625 333.4625 -443.01875 333.4625 -443.025 L 333.6625 -513.4875 C 333.6625 -513.49375 333.6625 -513.496875 333.6625 -513.496875 L 333.6625 -515.371875 C 333.6625 -516.409375 332.825 -517.25 331.784375 -517.25 L 310.025 -517.25 " transform="matrix(0,1.25,-1.25,0,-426.25,-305)"/>
<path style="fill:none;stroke-width:1;stroke-linecap:butt;stroke-linejoin:miter;stroke:rgb(0%,0%,0%);stroke-opacity:1;stroke-miterlimit:10;" d="M 308.425 -517.25 L 310.025 -517.25 M 310.025 -516.653125 L 308.425 -517.25 L 310.025 -517.85 " transform="matrix(0,1.25,-1.25,0,-426.25,-305)"/>
<path style=" stroke:none;fill-rule:nonzero;fill:rgb(69.803922%,85.098039%,100%);fill-opacity:1;" d="M 181.289062 49.5 L 181.289062 99.960938 L 190.945312 99.960938 L 190.945312 49.5 Z M 181.289062 49.5 "/>
<path style="fill:none;stroke-width:1;stroke-linecap:round;stroke-linejoin:round;stroke:rgb(0%,0%,0%);stroke-opacity:1;stroke-miterlimit:10;" d="M 283.6 -493.75625 L 323.96875 -493.75625 L 323.96875 -486.03125 L 283.6 -486.03125 Z M 283.6 -493.75625 " transform="matrix(0,1.25,-1.25,0,-426.25,-305)"/>
<path style="fill:none;stroke-width:1;stroke-linecap:round;stroke-linejoin:round;stroke:rgb(0%,0%,0%);stroke-opacity:1;stroke-miterlimit:10;" d="M 303.784375 -480.4875 L 303.784375 -482.53125 " transform="matrix(0,1.25,-1.25,0,-426.25,-305)"/>
<path style="fill:none;stroke-width:1;stroke-linecap:butt;stroke-linejoin:miter;stroke:rgb(0%,0%,0%);stroke-opacity:1;stroke-miterlimit:10;" d="M 303.784375 -484.128125 L 303.784375 -482.53125 M 303.1875 -482.53125 L 303.784375 -484.128125 L 304.3875 -482.53125 " transform="matrix(0,1.25,-1.25,0,-426.25,-305)"/>
<path style="fill:none;stroke-width:1;stroke-linecap:round;stroke-linejoin:round;stroke:rgb(0%,0%,0%);stroke-opacity:1;stroke-miterlimit:10;" d="M 283.6 -506.04375 L 323.96875 -506.04375 L 323.96875 -498.3125 L 283.6 -498.3125 Z M 283.6 -506.04375 " transform="matrix(0,1.25,-1.25,0,-426.25,-305)"/>
<path style="fill:none;stroke-width:1;stroke-linecap:round;stroke-linejoin:round;stroke:rgb(0%,0%,0%);stroke-opacity:1;stroke-miterlimit:10;" d="M 303.784375 -493.75625 L 303.784375 -494.8125 " transform="matrix(0,1.25,-1.25,0,-426.25,-305)"/>
<path style="fill:none;stroke-width:1;stroke-linecap:butt;stroke-linejoin:miter;stroke:rgb(0%,0%,0%);stroke-opacity:1;stroke-miterlimit:10;" d="M 303.784375 -496.409375 L 303.784375 -494.8125 M 303.1875 -494.8125 L 303.784375 -496.409375 L 304.3875 -494.8125 " transform="matrix(0,1.25,-1.25,0,-426.25,-305)"/>
<path style="fill:none;stroke-width:1;stroke-linecap:round;stroke-linejoin:round;stroke:rgb(0%,0%,0%);stroke-opacity:1;stroke-dasharray:4,4;stroke-miterlimit:10;" d="M 278.578125 -703.4625 L 328.35 -703.4625 L 328.35 -636.809375 L 278.578125 -636.809375 Z M 278.578125 -703.4625 " transform="matrix(0,1.25,-1.25,0,-426.25,-305)"/>
<path style=" stroke:none;fill-rule:nonzero;fill:rgb(69.803922%,85.098039%,100%);fill-opacity:1;" d="M 375.90625 49.300781 L 375.90625 99.761719 L 385.570312 99.761719 L 385.570312 49.300781 Z M 375.90625 49.300781 "/>
<path style="fill:none;stroke-width:1;stroke-linecap:round;stroke-linejoin:round;stroke:rgb(0%,0%,0%);stroke-opacity:1;stroke-miterlimit:10;" d="M 283.440625 -649.45625 L 323.809375 -649.45625 L 323.809375 -641.725 L 283.440625 -641.725 Z M 283.440625 -649.45625 " transform="matrix(0,1.25,-1.25,0,-426.25,-305)"/>
<path style="fill:none;stroke-width:1;stroke-linecap:round;stroke-linejoin:round;stroke:rgb(0%,0%,0%);stroke-opacity:1;stroke-miterlimit:10;" d="M 303.625 -629.421875 L 303.625 -638.225 " transform="matrix(0,1.25,-1.25,0,-426.25,-305)"/>
<path style="fill:none;stroke-width:1;stroke-linecap:butt;stroke-linejoin:miter;stroke:rgb(0%,0%,0%);stroke-opacity:1;stroke-miterlimit:10;" d="M 303.625 -639.828125 L 303.625 -638.225 M 303.025 -638.225 L 303.625 -639.828125 L 304.225 -638.225 " transform="matrix(0,1.25,-1.25,0,-426.25,-305)"/>
<path style="fill-rule:nonzero;fill:rgb(40%,74.901961%,100%);fill-opacity:1;stroke-width:1;stroke-linecap:round;stroke-linejoin:round;stroke:rgb(0%,0%,0%);stroke-opacity:1;stroke-miterlimit:10;" d="M 305.515625 -712.83125 C 306.64375 -711.7 306.64375 -709.8625 305.515625 -708.73125 C 304.38125 -707.6 302.546875 -707.6 301.4125 -708.73125 C 300.28125 -709.8625 300.28125 -711.7 301.4125 -712.83125 C 302.546875 -713.965625 304.38125 -713.965625 305.515625 -712.83125 " transform="matrix(0,1.25,-1.25,0,-426.25,-305)"/>
<path style=" stroke:none;fill-rule:nonzero;fill:rgb(0%,0%,0%);fill-opacity:1;" d="M 460.550781 74.242188 L 461.78125 74.242188 L 461.78125 73.03125 L 462.289062 73.03125 L 462.289062 74.242188 L 463.5 74.242188 L 463.5 74.769531 L 462.289062 74.769531 L 462.289062 75.980469 L 461.78125 75.980469 L 461.78125 74.769531 L 460.550781 74.769531 Z M 460.550781 74.242188 "/>
<path style="fill:none;stroke-width:1;stroke-linecap:round;stroke-linejoin:round;stroke:rgb(0%,0%,0%);stroke-opacity:1;stroke-miterlimit:10;" d="M 283.440625 -661.7375 L 323.809375 -661.7375 L 323.809375 -654.00625 L 283.440625 -654.00625 Z M 283.440625 -661.7375 " transform="matrix(0,1.25,-1.25,0,-426.25,-305)"/>
<path style=" stroke:none;fill-rule:nonzero;fill:rgb(40%,74.901961%,100%);fill-opacity:1;" d="M 471.382812 49.300781 L 471.382812 99.761719 L 481.046875 99.761719 L 481.046875 49.300781 Z M 471.382812 49.300781 "/>
<path style="fill:none;stroke-width:1;stroke-linecap:round;stroke-linejoin:round;stroke:rgb(0%,0%,0%);stroke-opacity:1;stroke-miterlimit:10;" d="M 283.440625 -725.8375 L 323.809375 -725.8375 L 323.809375 -718.10625 L 283.440625 -718.10625 Z M 283.440625 -725.8375 " transform="matrix(0,1.25,-1.25,0,-426.25,-305)"/>
<path style=" stroke:none;fill-rule:nonzero;fill:rgb(40%,74.901961%,100%);fill-opacity:1;" d="M 406.617188 49.300781 L 406.617188 99.761719 L 416.273438 99.761719 L 416.273438 49.300781 Z M 406.617188 49.300781 "/>
<path style="fill:none;stroke-width:1;stroke-linecap:round;stroke-linejoin:round;stroke:rgb(0%,0%,0%);stroke-opacity:1;stroke-miterlimit:10;" d="M 283.440625 -674.01875 L 323.809375 -674.01875 L 323.809375 -666.29375 L 283.440625 -666.29375 Z M 283.440625 -674.01875 " transform="matrix(0,1.25,-1.25,0,-426.25,-305)"/>
<path style="fill:none;stroke-width:1;stroke-linecap:round;stroke-linejoin:round;stroke:rgb(0%,0%,0%);stroke-opacity:1;stroke-miterlimit:10;" d="M 303.625 -649.45625 L 303.625 -650.50625 " transform="matrix(0,1.25,-1.25,0,-426.25,-305)"/>
<path style="fill:none;stroke-width:1;stroke-linecap:butt;stroke-linejoin:miter;stroke:rgb(0%,0%,0%);stroke-opacity:1;stroke-miterlimit:10;" d="M 303.625 -652.109375 L 303.625 -650.50625 M 303.025 -650.50625 L 303.625 -652.109375 L 304.225 -650.50625 " transform="matrix(0,1.25,-1.25,0,-426.25,-305)"/>
<path style="fill:none;stroke-width:1;stroke-linecap:round;stroke-linejoin:round;stroke:rgb(0%,0%,0%);stroke-opacity:1;stroke-miterlimit:10;" d="M 303.625 -661.7375 L 303.625 -662.79375 " transform="matrix(0,1.25,-1.25,0,-426.25,-305)"/>
<path style="fill:none;stroke-width:1;stroke-linecap:butt;stroke-linejoin:miter;stroke:rgb(0%,0%,0%);stroke-opacity:1;stroke-miterlimit:10;" d="M 303.625 -664.390625 L 303.625 -662.79375 M 303.025 -662.79375 L 303.625 -664.390625 L 304.225 -662.79375 " transform="matrix(0,1.25,-1.25,0,-426.25,-305)"/>
<path style="fill:none;stroke-width:1;stroke-linecap:round;stroke-linejoin:round;stroke:rgb(0%,0%,0%);stroke-opacity:1;stroke-miterlimit:10;" d="M 303.5875 -699.575 L 303.53125 -704.38125 " transform="matrix(0,1.25,-1.25,0,-426.25,-305)"/>
<path style="fill:none;stroke-width:1;stroke-linecap:butt;stroke-linejoin:miter;stroke:rgb(0%,0%,0%);stroke-opacity:1;stroke-miterlimit:10;" d="M 303.515625 -705.984375 L 303.53125 -704.38125 M 302.934375 -704.378125 L 303.515625 -705.984375 L 304.13125 -704.390625 " transform="matrix(0,1.25,-1.25,0,-426.25,-305)"/>
<path style="fill:none;stroke-width:1;stroke-linecap:round;stroke-linejoin:round;stroke:rgb(0%,0%,0%);stroke-opacity:1;stroke-miterlimit:10;" d="M 303.50625 -713.68125 L 303.51875 -714.60625 " transform="matrix(0,1.25,-1.25,0,-426.25,-305)"/>
<path style="fill:none;stroke-width:1;stroke-linecap:butt;stroke-linejoin:miter;stroke:rgb(0%,0%,0%);stroke-opacity:1;stroke-miterlimit:10;" d="M 303.54375 -716.203125 L 303.51875 -714.60625 M 302.91875 -714.6125 L 303.54375 -716.203125 L 304.121875 -714.596875 " transform="matrix(0,1.25,-1.25,0,-426.25,-305)"/>
<path style="fill:none;stroke-width:1;stroke-linecap:round;stroke-linejoin:round;stroke:rgb(0%,0%,0%);stroke-opacity:1;stroke-miterlimit:10;" d="M 303.625 -633.33125 L 307.9125 -633.33125 C 307.91875 -633.33125 307.921875 -633.33125 307.925 -633.33125 L 332.015625 -633.534375 C 332.721875 -633.5375 333.29375 -634.1125 333.29375 -634.81875 L 333.503125 -707.025 C 333.503125 -707.025 333.503125 -707.025 333.503125 -707.028125 L 333.503125 -709.49375 C 333.503125 -710.20625 332.925 -710.78125 332.215625 -710.78125 L 309.8625 -710.78125 " transform="matrix(0,1.25,-1.25,0,-426.25,-305)"/>
<path style="fill:none;stroke-width:1;stroke-linecap:butt;stroke-linejoin:miter;stroke:rgb(0%,0%,0%);stroke-opacity:1;stroke-miterlimit:10;" d="M 308.2625 -710.78125 L 309.8625 -710.78125 M 309.8625 -710.184375 L 308.2625 -710.78125 L 309.8625 -711.38125 " transform="matrix(0,1.25,-1.25,0,-426.25,-305)"/>
<path style=" stroke:none;fill-rule:nonzero;fill:rgb(69.803922%,85.098039%,100%);fill-opacity:1;" d="M 423.203125 49.300781 L 423.203125 99.761719 L 432.867188 99.761719 L 432.867188 49.300781 Z M 423.203125 49.300781 "/>
<path style="fill:none;stroke-width:1;stroke-linecap:round;stroke-linejoin:round;stroke:rgb(0%,0%,0%);stroke-opacity:1;stroke-miterlimit:10;" d="M 283.440625 -687.29375 L 323.809375 -687.29375 L 323.809375 -679.5625 L 283.440625 -679.5625 Z M 283.440625 -687.29375 " transform="matrix(0,1.25,-1.25,0,-426.25,-305)"/>
<path style="fill:none;stroke-width:1;stroke-linecap:round;stroke-linejoin:round;stroke:rgb(0%,0%,0%);stroke-opacity:1;stroke-miterlimit:10;" d="M 303.625 -674.01875 L 303.625 -676.0625 " transform="matrix(0,1.25,-1.25,0,-426.25,-305)"/>
<path style="fill:none;stroke-width:1;stroke-linecap:butt;stroke-linejoin:miter;stroke:rgb(0%,0%,0%);stroke-opacity:1;stroke-miterlimit:10;" d="M 303.625 -677.659375 L 303.625 -676.0625 M 303.025 -676.0625 L 303.625 -677.659375 L 304.225 -676.0625 " transform="matrix(0,1.25,-1.25,0,-426.25,-305)"/>
<path style="fill:none;stroke-width:1;stroke-linecap:round;stroke-linejoin:round;stroke:rgb(0%,0%,0%);stroke-opacity:1;stroke-miterlimit:10;" d="M 283.440625 -699.575 L 323.809375 -699.575 L 323.809375 -691.84375 L 283.440625 -691.84375 Z M 283.440625 -699.575 " transform="matrix(0,1.25,-1.25,0,-426.25,-305)"/>
<path style="fill:none;stroke-width:1;stroke-linecap:round;stroke-linejoin:round;stroke:rgb(0%,0%,0%);stroke-opacity:1;stroke-miterlimit:10;" d="M 303.625 -687.29375 L 303.625 -688.34375 " transform="matrix(0,1.25,-1.25,0,-426.25,-305)"/>
<path style="fill:none;stroke-width:1;stroke-linecap:butt;stroke-linejoin:miter;stroke:rgb(0%,0%,0%);stroke-opacity:1;stroke-miterlimit:10;" d="M 303.625 -689.940625 L 303.625 -688.34375 M 303.025 -688.34375 L 303.625 -689.940625 L 304.225 -688.34375 " transform="matrix(0,1.25,-1.25,0,-426.25,-305)"/>
<path style=" stroke:none;fill-rule:nonzero;fill:rgb(69.803922%,85.098039%,100%);fill-opacity:1;" d="M 1.320312 15.980469 L 1.320312 133.480469 L 23.820312 133.480469 L 23.820312 15.980469 Z M 1.320312 15.980469 "/>
<path style="fill:none;stroke-width:1;stroke-linecap:round;stroke-linejoin:round;stroke:rgb(0%,0%,0%);stroke-opacity:1;stroke-miterlimit:10;" d="M 256.784375 -360.05625 L 350.784375 -360.05625 L 350.784375 -342.05625 L 256.784375 -342.05625 Z M 256.784375 -360.05625 " transform="matrix(0,1.25,-1.25,0,-426.25,-305)"/>
<path style=" stroke:none;fill-rule:nonzero;fill:rgb(0%,0%,0%);fill-opacity:1;" d="M 15.996094 48.058594 L 16.953125 48.058594 L 16.953125 53.273438 L 16.191406 53.273438 C 15.644531 52.765625 14.910156 52.257812 14.003906 51.75 C 13.105469 51.242188 12.171875 50.851562 11.210938 50.578125 C 10.546875 50.382812 9.808594 50.257812 9.003906 50.207031 L 9.003906 49.191406 C 9.636719 49.203125 10.398438 49.328125 11.289062 49.5625 C 12.1875 49.796875 13.050781 50.132812 13.886719 50.578125 C 14.714844 51.03125 15.417969 51.507812 15.996094 52.003906 Z M 15.996094 48.058594 "/>
<g clip-path="url(#clip1)" clip-rule="nonzero">
<path style=" stroke:none;fill-rule:nonzero;fill:rgb(0%,0%,0%);fill-opacity:1;" d="M 11.890625 60.179688 L 14.117188 62.40625 C 14.253906 62.523438 14.273438 62.5625 14.351562 62.5625 C 14.488281 62.5625 14.585938 62.445312 14.585938 62.328125 C 14.585938 62.25 14.546875 62.191406 14.429688 62.09375 L 12.203125 59.847656 L 14.429688 57.601562 C 14.566406 57.484375 14.585938 57.445312 14.585938 57.367188 C 14.585938 57.25 14.488281 57.132812 14.351562 57.132812 C 14.273438 57.132812 14.214844 57.191406 14.117188 57.289062 L 11.890625 59.515625 L 9.644531 57.289062 C 9.546875 57.171875 9.46875 57.132812 9.410156 57.132812 C 9.273438 57.132812 9.175781 57.25 9.175781 57.367188 C 9.175781 57.445312 9.195312 57.484375 9.332031 57.601562 L 11.558594 59.847656 L 9.332031 62.09375 C 9.214844 62.191406 9.175781 62.269531 9.175781 62.328125 C 9.175781 62.464844 9.273438 62.5625 9.410156 62.5625 C 9.488281 62.5625 9.507812 62.523438 9.644531 62.40625 Z M 11.890625 60.179688 "/>
<path style=" stroke:none;fill-rule:nonzero;fill:rgb(0%,0%,0%);fill-opacity:1;" d="M 11.890625 60.179688 L 14.117188 62.40625 C 14.253906 62.523438 14.273438 62.5625 14.351562 62.5625 C 14.488281 62.5625 14.585938 62.445312 14.585938 62.328125 C 14.585938 62.25 14.546875 62.191406 14.429688 62.09375 L 12.203125 59.847656 L 14.429688 57.601562 C 14.566406 57.484375 14.585938 57.445312 14.585938 57.367188 C 14.585938 57.25 14.488281 57.132812 14.351562 57.132812 C 14.273438 57.132812 14.214844 57.191406 14.117188 57.289062 L 11.890625 59.515625 L 9.644531 57.289062 C 9.546875 57.171875 9.46875 57.132812 9.410156 57.132812 C 9.273438 57.132812 9.175781 57.25 9.175781 57.367188 C 9.175781 57.445312 9.195312 57.484375 9.332031 57.601562 L 11.558594 59.847656 L 9.332031 62.09375 C 9.214844 62.191406 9.175781 62.269531 9.175781 62.328125 C 9.175781 62.464844 9.273438 62.5625 9.410156 62.5625 C 9.488281 62.5625 9.507812 62.523438 9.644531 62.40625 Z M 11.890625 60.179688 "/>
</g>
<path style=" stroke:none;fill-rule:nonzero;fill:rgb(0%,0%,0%);fill-opacity:1;" d="M 15.996094 66.816406 L 16.953125 66.816406 L 16.953125 72.03125 L 16.191406 72.03125 C 15.644531 71.523438 14.910156 71.015625 14.003906 70.507812 C 13.105469 70 12.171875 69.609375 11.210938 69.335938 C 10.546875 69.140625 9.808594 69.011719 9.003906 68.964844 L 9.003906 67.949219 C 9.636719 67.957031 10.398438 68.085938 11.289062 68.320312 C 12.1875 68.554688 13.050781 68.890625 13.886719 69.335938 C 14.714844 69.789062 15.417969 70.261719 15.996094 70.761719 Z M 15.996094 66.816406 "/>
<path style=" stroke:none;fill-rule:nonzero;fill:rgb(0%,0%,0%);fill-opacity:1;" d="M 11.835938 82.289062 L 11.5625 83.34375 C 10.6875 83.117188 10.019531 82.71875 9.550781 82.132812 C 9.089844 81.554688 8.867188 80.847656 8.867188 80.003906 C 8.867188 79.144531 9.042969 78.441406 9.394531 77.894531 C 9.746094 77.347656 10.253906 76.925781 10.917969 76.644531 C 11.589844 76.371094 12.3125 76.234375 13.085938 76.234375 C 13.929688 76.234375 14.667969 76.390625 15.292969 76.703125 C 15.917969 77.023438 16.386719 77.484375 16.699219 78.070312 C 17.019531 78.664062 17.1875 79.320312 17.1875 80.023438 C 17.1875 80.828125 16.976562 81.507812 16.5625 82.054688 C 16.15625 82.609375 15.585938 82.996094 14.84375 83.207031 L 14.609375 82.152344 C 15.195312 81.964844 15.613281 81.703125 15.878906 81.351562 C 16.152344 81 16.289062 80.550781 16.289062 80.003906 C 16.289062 79.386719 16.136719 78.875 15.839844 78.460938 C 15.535156 78.039062 15.136719 77.746094 14.628906 77.582031 C 14.128906 77.410156 13.621094 77.328125 13.105469 77.328125 C 12.410156 77.328125 11.804688 77.425781 11.289062 77.621094 C 10.78125 77.824219 10.398438 78.136719 10.15625 78.558594 C 9.90625 78.972656 9.785156 79.425781 9.785156 79.925781 C 9.785156 80.519531 9.949219 81.023438 10.292969 81.429688 C 10.644531 81.84375 11.15625 82.132812 11.835938 82.289062 Z M 11.835938 82.289062 "/>
<path style=" stroke:none;fill-rule:nonzero;fill:rgb(0%,0%,0%);fill-opacity:1;" d="M 11.914062 84.160156 C 12.992188 84.160156 13.792969 84.457031 14.316406 85.058594 C 14.746094 85.566406 14.960938 86.175781 14.960938 86.894531 C 14.960938 87.699219 14.695312 88.359375 14.179688 88.867188 C 13.65625 89.375 12.933594 89.628906 12.011719 89.628906 C 11.253906 89.628906 10.664062 89.511719 10.234375 89.277344 C 9.804688 89.050781 9.460938 88.730469 9.21875 88.300781 C 8.984375 87.871094 8.867188 87.402344 8.867188 86.894531 C 8.867188 86.074219 9.125 85.410156 9.648438 84.902344 C 10.179688 84.402344 10.9375 84.160156 11.914062 84.160156 Z M 11.914062 85.175781 C 11.171875 85.175781 10.609375 85.335938 10.234375 85.664062 C 9.867188 85.984375 9.6875 86.394531 9.6875 86.894531 C 9.6875 87.386719 9.867188 87.796875 10.234375 88.125 C 10.609375 88.445312 11.179688 88.613281 11.953125 88.613281 C 12.664062 88.613281 13.210938 88.445312 13.59375 88.125 C 13.96875 87.796875 14.160156 87.386719 14.160156 86.894531 C 14.160156 86.394531 13.96875 85.984375 13.59375 85.664062 C 13.226562 85.335938 12.664062 85.175781 11.914062 85.175781 Z M 11.914062 85.175781 "/>
<path style=" stroke:none;fill-rule:nonzero;fill:rgb(0%,0%,0%);fill-opacity:1;" d="M 9.003906 90.78125 L 14.84375 90.78125 L 14.84375 91.679688 L 14.003906 91.679688 C 14.636719 92.09375 14.960938 92.714844 14.960938 93.535156 C 14.960938 93.886719 14.890625 94.203125 14.765625 94.492188 C 14.648438 94.789062 14.480469 95.011719 14.277344 95.15625 C 14.082031 95.296875 13.835938 95.402344 13.554688 95.46875 C 13.367188 95.507812 13.050781 95.527344 12.597656 95.527344 L 9.003906 95.527344 L 9.003906 94.53125 L 12.558594 94.53125 C 12.957031 94.53125 13.261719 94.492188 13.457031 94.414062 C 13.652344 94.335938 13.808594 94.199219 13.925781 94.003906 C 14.050781 93.808594 14.121094 93.578125 14.121094 93.320312 C 14.121094 92.902344 13.984375 92.539062 13.710938 92.226562 C 13.445312 91.925781 12.9375 91.777344 12.1875 91.777344 L 9.003906 91.777344 Z M 9.003906 90.78125 "/>
<path style=" stroke:none;fill-rule:nonzero;fill:rgb(0%,0%,0%);fill-opacity:1;" d="M 9.003906 98.65625 L 14.84375 96.429688 L 14.84375 97.484375 L 11.347656 98.734375 C 10.964844 98.859375 10.574219 98.988281 10.175781 99.105469 C 10.472656 99.191406 10.839844 99.320312 11.269531 99.476562 L 14.84375 100.765625 L 14.84375 101.78125 L 9.003906 99.574219 Z M 9.003906 98.65625 "/>
<path style="fill:none;stroke-width:1;stroke-linecap:round;stroke-linejoin:round;stroke:rgb(0%,0%,0%);stroke-opacity:1;stroke-miterlimit:10;" d="M 256.784375 -388.65625 L 350.784375 -388.65625 L 350.784375 -370.65625 L 256.784375 -370.65625 Z M 256.784375 -388.65625 " transform="matrix(0,1.25,-1.25,0,-426.25,-305)"/>
<path style=" stroke:none;fill-rule:nonzero;fill:rgb(0%,0%,0%);fill-opacity:1;" d="M 44.753906 46.792969 L 52.800781 46.792969 L 52.800781 49.820312 C 52.800781 50.429688 52.710938 50.917969 52.546875 51.285156 C 52.390625 51.660156 52.140625 51.953125 51.804688 52.164062 C 51.460938 52.382812 51.109375 52.496094 50.75 52.496094 C 50.398438 52.496094 50.070312 52.398438 49.773438 52.203125 C 49.46875 52.015625 49.226562 51.738281 49.03125 51.363281 C 48.882812 51.839844 48.644531 52.210938 48.308594 52.476562 C 47.964844 52.75 47.566406 52.886719 47.097656 52.886719 C 46.714844 52.886719 46.363281 52.796875 46.042969 52.632812 C 45.714844 52.476562 45.460938 52.28125 45.28125 52.046875 C 45.109375 51.8125 44.976562 51.519531 44.890625 51.167969 C 44.796875 50.816406 44.753906 50.375 44.753906 49.859375 Z M 49.421875 47.867188 L 49.421875 49.605469 C 49.421875 50.074219 49.449219 50.410156 49.519531 50.621094 C 49.597656 50.894531 49.722656 51.09375 49.910156 51.226562 C 50.105469 51.367188 50.339844 51.441406 50.613281 51.441406 C 50.886719 51.441406 51.121094 51.371094 51.316406 51.246094 C 51.519531 51.113281 51.667969 50.933594 51.746094 50.699219 C 51.824219 50.464844 51.863281 50.054688 51.863281 49.46875 L 51.863281 47.867188 Z M 45.710938 47.867188 L 45.710938 49.859375 C 45.710938 50.210938 45.71875 50.453125 45.75 50.601562 C 45.789062 50.835938 45.855469 51.035156 45.964844 51.207031 C 46.066406 51.371094 46.21875 51.507812 46.414062 51.617188 C 46.609375 51.71875 46.832031 51.773438 47.097656 51.773438 C 47.394531 51.773438 47.652344 51.695312 47.878906 51.539062 C 48.097656 51.382812 48.25 51.167969 48.328125 50.894531 C 48.414062 50.621094 48.464844 50.230469 48.464844 49.722656 L 48.464844 47.867188 Z M 45.710938 47.867188 "/>
<path style=" stroke:none;fill-rule:nonzero;fill:rgb(0%,0%,0%);fill-opacity:1;" d="M 45.476562 58.023438 C 45.164062 57.660156 44.9375 57.308594 44.8125 56.96875 C 44.683594 56.628906 44.617188 56.265625 44.617188 55.875 C 44.617188 55.238281 44.773438 54.742188 45.085938 54.390625 C 45.398438 54.050781 45.796875 53.882812 46.296875 53.882812 C 46.578125 53.882812 46.84375 53.949219 47.078125 54.078125 C 47.3125 54.207031 47.496094 54.378906 47.644531 54.585938 C 47.785156 54.792969 47.898438 55.027344 47.976562 55.289062 C 48.015625 55.484375 48.058594 55.777344 48.113281 56.167969 C 48.199219 56.976562 48.316406 57.566406 48.464844 57.945312 C 48.589844 57.945312 48.679688 57.945312 48.71875 57.945312 C 49.117188 57.945312 49.402344 57.855469 49.558594 57.671875 C 49.792969 57.410156 49.910156 57.035156 49.910156 56.539062 C 49.910156 56.070312 49.820312 55.726562 49.65625 55.503906 C 49.5 55.28125 49.210938 55.121094 48.796875 55.015625 L 48.914062 54.058594 C 49.328125 54.136719 49.660156 54.273438 49.910156 54.46875 C 50.167969 54.675781 50.363281 54.96875 50.496094 55.347656 C 50.636719 55.738281 50.710938 56.179688 50.710938 56.675781 C 50.710938 57.183594 50.652344 57.585938 50.535156 57.886719 C 50.417969 58.199219 50.265625 58.425781 50.085938 58.570312 C 49.914062 58.726562 49.695312 58.832031 49.421875 58.882812 C 49.25 58.921875 48.953125 58.941406 48.523438 58.941406 L 47.195312 58.941406 C 46.28125 58.941406 45.699219 58.960938 45.457031 59 C 45.207031 59.039062 44.972656 59.125 44.753906 59.253906 L 44.753906 58.21875 C 44.957031 58.113281 45.203125 58.050781 45.476562 58.023438 Z M 47.683594 57.945312 C 47.535156 57.582031 47.414062 57.039062 47.3125 56.324219 C 47.242188 55.921875 47.175781 55.632812 47.097656 55.464844 C 47.027344 55.296875 46.925781 55.164062 46.785156 55.074219 C 46.636719 54.984375 46.480469 54.9375 46.316406 54.9375 C 46.050781 54.9375 45.832031 55.035156 45.652344 55.230469 C 45.480469 55.425781 45.398438 55.71875 45.398438 56.109375 C 45.398438 56.488281 45.480469 56.824219 45.652344 57.125 C 45.816406 57.425781 46.046875 57.644531 46.335938 57.789062 C 46.554688 57.894531 46.882812 57.945312 47.3125 57.945312 Z M 47.683594 57.945312 "/>
<path style=" stroke:none;fill-rule:nonzero;fill:rgb(0%,0%,0%);fill-opacity:1;" d="M 45.632812 62.640625 L 44.773438 62.777344 C 44.707031 62.492188 44.675781 62.242188 44.675781 62.035156 C 44.675781 61.671875 44.734375 61.390625 44.851562 61.195312 C 44.96875 61 45.113281 60.855469 45.300781 60.765625 C 45.480469 60.6875 45.867188 60.648438 46.453125 60.648438 L 49.8125 60.648438 L 49.8125 59.925781 L 50.59375 59.925781 L 50.59375 60.648438 L 52.039062 60.648438 L 52.625 61.644531 L 50.59375 61.644531 L 50.59375 62.640625 L 49.8125 62.640625 L 49.8125 61.644531 L 46.414062 61.644531 C 46.125 61.644531 45.945312 61.65625 45.867188 61.683594 C 45.789062 61.722656 45.71875 61.78125 45.671875 61.859375 C 45.617188 61.9375 45.59375 62.046875 45.59375 62.191406 C 45.59375 62.308594 45.601562 62.457031 45.632812 62.640625 Z M 45.632812 62.640625 "/>
<path style=" stroke:none;fill-rule:nonzero;fill:rgb(0%,0%,0%);fill-opacity:1;" d="M 46.882812 67.40625 L 46.765625 68.382812 C 46.085938 68.277344 45.558594 68.003906 45.183594 67.5625 C 44.800781 67.121094 44.617188 66.578125 44.617188 65.941406 C 44.617188 65.148438 44.875 64.507812 45.398438 64.027344 C 45.914062 63.546875 46.667969 63.304688 47.644531 63.304688 C 48.277344 63.304688 48.835938 63.410156 49.304688 63.617188 C 49.773438 63.824219 50.125 64.136719 50.359375 64.554688 C 50.59375 64.984375 50.710938 65.453125 50.710938 65.960938 C 50.710938 66.585938 50.542969 67.101562 50.222656 67.503906 C 49.910156 67.90625 49.460938 68.167969 48.875 68.285156 L 48.71875 67.328125 C 49.109375 67.238281 49.402344 67.074219 49.597656 66.839844 C 49.800781 66.605469 49.910156 66.324219 49.910156 66 C 49.910156 65.492188 49.722656 65.082031 49.363281 64.769531 C 49.011719 64.46875 48.449219 64.320312 47.683594 64.320312 C 46.886719 64.320312 46.316406 64.46875 45.964844 64.769531 C 45.613281 65.070312 45.4375 65.460938 45.4375 65.941406 C 45.4375 66.332031 45.554688 66.65625 45.789062 66.917969 C 46.023438 67.179688 46.382812 67.339844 46.882812 67.40625 Z M 46.882812 67.40625 "/>
<path style=" stroke:none;fill-rule:nonzero;fill:rgb(0%,0%,0%);fill-opacity:1;" d="M 44.753906 69.222656 L 52.800781 69.222656 L 52.800781 70.21875 L 49.910156 70.21875 C 50.441406 70.675781 50.710938 71.253906 50.710938 71.957031 C 50.710938 72.386719 50.621094 72.757812 50.457031 73.070312 C 50.285156 73.394531 50.050781 73.625 49.753906 73.753906 C 49.449219 73.898438 49.015625 73.96875 48.445312 73.96875 L 44.753906 73.96875 L 44.753906 72.992188 L 48.445312 72.992188 C 48.9375 72.992188 49.292969 72.882812 49.519531 72.660156 C 49.753906 72.453125 49.871094 72.152344 49.871094 71.761719 C 49.871094 71.460938 49.792969 71.183594 49.636719 70.921875 C 49.488281 70.660156 49.289062 70.480469 49.03125 70.375 C 48.765625 70.269531 48.40625 70.21875 47.9375 70.21875 L 44.753906 70.21875 Z M 44.753906 69.222656 "/>
<path style=" stroke:none;fill-rule:nonzero;fill:rgb(0%,0%,0%);fill-opacity:1;" d="M 44.753906 78.605469 L 50.59375 78.605469 L 50.59375 79.503906 L 49.753906 79.503906 C 50.386719 79.921875 50.710938 80.539062 50.710938 81.359375 C 50.710938 81.710938 50.640625 82.03125 50.515625 82.316406 C 50.398438 82.617188 50.230469 82.835938 50.027344 82.980469 C 49.832031 83.125 49.585938 83.226562 49.304688 83.292969 C 49.117188 83.332031 48.800781 83.351562 48.347656 83.351562 L 44.753906 83.351562 L 44.753906 82.355469 L 48.308594 82.355469 C 48.707031 82.355469 49.011719 82.316406 49.207031 82.238281 C 49.402344 82.160156 49.558594 82.023438 49.675781 81.828125 C 49.800781 81.632812 49.871094 81.40625 49.871094 81.144531 C 49.871094 80.726562 49.734375 80.363281 49.460938 80.050781 C 49.195312 79.75 48.6875 79.601562 47.9375 79.601562 L 44.753906 79.601562 Z M 44.753906 78.605469 "/>
<path style=" stroke:none;fill-rule:nonzero;fill:rgb(0%,0%,0%);fill-opacity:1;" d="M 47.664062 84.492188 C 48.742188 84.492188 49.542969 84.789062 50.066406 85.390625 C 50.496094 85.898438 50.710938 86.507812 50.710938 87.226562 C 50.710938 88.03125 50.445312 88.691406 49.929688 89.199219 C 49.40625 89.707031 48.683594 89.960938 47.761719 89.960938 C 47.003906 89.960938 46.414062 89.84375 45.984375 89.609375 C 45.554688 89.386719 45.210938 89.0625 44.96875 88.632812 C 44.734375 88.203125 44.617188 87.734375 44.617188 87.226562 C 44.617188 86.40625 44.875 85.742188 45.398438 85.234375 C 45.929688 84.738281 46.6875 84.492188 47.664062 84.492188 Z M 47.664062 85.507812 C 46.921875 85.507812 46.359375 85.667969 45.984375 85.996094 C 45.617188 86.320312 45.4375 86.730469 45.4375 87.226562 C 45.4375 87.71875 45.617188 88.128906 45.984375 88.457031 C 46.359375 88.78125 46.929688 88.945312 47.703125 88.945312 C 48.414062 88.945312 48.960938 88.78125 49.34375 88.457031 C 49.71875 88.128906 49.910156 87.71875 49.910156 87.226562 C 49.910156 86.730469 49.71875 86.320312 49.34375 85.996094 C 48.976562 85.667969 48.414062 85.507812 47.664062 85.507812 Z M 47.664062 85.507812 "/>
<path style=" stroke:none;fill-rule:nonzero;fill:rgb(0%,0%,0%);fill-opacity:1;" d="M 44.753906 91.101562 L 50.59375 91.101562 L 50.59375 92 L 49.695312 92 C 50.109375 92.21875 50.382812 92.429688 50.515625 92.625 C 50.640625 92.820312 50.710938 93.035156 50.710938 93.269531 C 50.710938 93.59375 50.601562 93.933594 50.398438 94.285156 L 49.480469 93.933594 C 49.621094 93.699219 49.695312 93.457031 49.695312 93.210938 C 49.695312 93 49.625 92.804688 49.5 92.625 C 49.367188 92.453125 49.1875 92.332031 48.953125 92.253906 C 48.601562 92.148438 48.214844 92.097656 47.800781 92.097656 L 44.753906 92.097656 Z M 44.753906 91.101562 "/>
<path style=" stroke:none;fill-rule:nonzero;fill:rgb(0%,0%,0%);fill-opacity:1;" d="M 44.753906 94.867188 L 50.59375 94.867188 L 50.59375 95.746094 L 49.773438 95.746094 C 50.054688 95.925781 50.285156 96.167969 50.457031 96.46875 C 50.621094 96.78125 50.710938 97.132812 50.710938 97.523438 C 50.710938 97.953125 50.617188 98.304688 50.4375 98.578125 C 50.265625 98.851562 50.015625 99.046875 49.695312 99.164062 C 50.367188 99.632812 50.710938 100.230469 50.710938 100.960938 C 50.710938 101.546875 50.542969 101.996094 50.222656 102.308594 C 49.910156 102.621094 49.421875 102.777344 48.757812 102.777344 L 44.753906 102.777344 L 44.753906 101.78125 L 48.425781 101.78125 C 48.824219 101.78125 49.113281 101.746094 49.285156 101.683594 C 49.449219 101.628906 49.585938 101.519531 49.695312 101.351562 C 49.8125 101.179688 49.871094 100.980469 49.871094 100.746094 C 49.871094 100.339844 49.734375 100.003906 49.460938 99.730469 C 49.1875 99.457031 48.746094 99.320312 48.152344 99.320312 L 44.753906 99.320312 L 44.753906 98.324219 L 48.542969 98.324219 C 48.980469 98.324219 49.3125 98.246094 49.539062 98.089844 C 49.757812 97.933594 49.871094 97.671875 49.871094 97.308594 C 49.871094 97.019531 49.792969 96.761719 49.636719 96.527344 C 49.488281 96.292969 49.273438 96.121094 48.992188 96.019531 C 48.71875 95.914062 48.3125 95.863281 47.78125 95.863281 L 44.753906 95.863281 Z M 44.753906 94.867188 "/>
<path style=" stroke:none;fill-rule:nonzero;fill:rgb(40%,74.901961%,100%);fill-opacity:1;" d="M 72.816406 15.980469 L 72.816406 133.480469 L 95.316406 133.480469 L 95.316406 15.980469 Z M 72.816406 15.980469 "/>
<path style="fill:none;stroke-width:1;stroke-linecap:round;stroke-linejoin:round;stroke:rgb(0%,0%,0%);stroke-opacity:1;stroke-miterlimit:10;" d="M 256.784375 -417.253125 L 350.784375 -417.253125 L 350.784375 -399.253125 L 256.784375 -399.253125 Z M 256.784375 -417.253125 " transform="matrix(0,1.25,-1.25,0,-426.25,-305)"/>
<path style=" stroke:none;fill-rule:nonzero;fill:rgb(0%,0%,0%);fill-opacity:1;" d="M 82.632812 39.246094 L 82.769531 40.242188 C 82.207031 40.359375 81.800781 40.546875 81.558594 40.808594 C 81.308594 41.082031 81.1875 41.417969 81.1875 41.824219 C 81.1875 42.277344 81.34375 42.664062 81.65625 42.976562 C 81.976562 43.300781 82.382812 43.464844 82.867188 43.464844 C 83.320312 43.464844 83.691406 43.3125 83.980469 43.015625 C 84.277344 42.726562 84.429688 42.355469 84.429688 41.902344 C 84.429688 41.707031 84.390625 41.472656 84.3125 41.199219 L 85.191406 41.316406 C 85.175781 41.378906 85.171875 41.433594 85.171875 41.472656 C 85.171875 41.886719 85.277344 42.265625 85.503906 42.605469 C 85.722656 42.941406 86.058594 43.113281 86.519531 43.113281 C 86.878906 43.113281 87.183594 42.988281 87.417969 42.742188 C 87.652344 42.492188 87.769531 42.175781 87.769531 41.785156 C 87.769531 41.40625 87.640625 41.085938 87.398438 40.828125 C 87.164062 40.578125 86.800781 40.417969 86.324219 40.339844 L 86.5 39.34375 C 87.164062 39.472656 87.675781 39.746094 88.042969 40.164062 C 88.402344 40.59375 88.589844 41.125 88.589844 41.765625 C 88.589844 42.207031 88.492188 42.609375 88.296875 42.976562 C 88.109375 43.351562 87.855469 43.640625 87.535156 43.835938 C 87.207031 44.03125 86.859375 44.128906 86.5 44.128906 C 86.148438 44.128906 85.824219 44.03125 85.542969 43.835938 C 85.253906 43.652344 85.023438 43.378906 84.859375 43.015625 C 84.75 43.496094 84.527344 43.867188 84.175781 44.128906 C 83.832031 44.386719 83.402344 44.519531 82.886719 44.519531 C 82.183594 44.519531 81.582031 44.257812 81.089844 43.738281 C 80.605469 43.230469 80.367188 42.585938 80.367188 41.804688 C 80.367188 41.101562 80.570312 40.515625 80.992188 40.046875 C 81.40625 39.578125 81.953125 39.308594 82.632812 39.246094 Z M 82.632812 39.246094 "/>
<g clip-path="url(#clip2)" clip-rule="nonzero">
<path style=" stroke:none;fill-rule:nonzero;fill:rgb(0%,0%,0%);fill-opacity:1;" d="M 83.644531 51.425781 L 85.871094 53.652344 C 86.007812 53.769531 86.027344 53.808594 86.105469 53.808594 C 86.242188 53.808594 86.339844 53.691406 86.339844 53.574219 C 86.339844 53.496094 86.300781 53.4375 86.183594 53.339844 L 83.957031 51.09375 L 86.183594 48.847656 C 86.320312 48.730469 86.339844 48.691406 86.339844 48.613281 C 86.339844 48.496094 86.242188 48.378906 86.105469 48.378906 C 86.027344 48.378906 85.96875 48.4375 85.871094 48.535156 L 83.644531 50.761719 L 81.398438 48.535156 C 81.300781 48.417969 81.222656 48.378906 81.164062 48.378906 C 81.027344 48.378906 80.929688 48.496094 80.929688 48.613281 C 80.929688 48.691406 80.949219 48.730469 81.085938 48.847656 L 83.3125 51.09375 L 81.085938 53.339844 C 80.96875 53.4375 80.929688 53.515625 80.929688 53.574219 C 80.929688 53.710938 81.027344 53.808594 81.164062 53.808594 C 81.242188 53.808594 81.261719 53.769531 81.398438 53.652344 Z M 83.644531 51.425781 "/>
<path style=" stroke:none;fill-rule:nonzero;fill:rgb(0%,0%,0%);fill-opacity:1;" d="M 83.644531 51.425781 L 85.871094 53.652344 C 86.007812 53.769531 86.027344 53.808594 86.105469 53.808594 C 86.242188 53.808594 86.339844 53.691406 86.339844 53.574219 C 86.339844 53.496094 86.300781 53.4375 86.183594 53.339844 L 83.957031 51.09375 L 86.183594 48.847656 C 86.320312 48.730469 86.339844 48.691406 86.339844 48.613281 C 86.339844 48.496094 86.242188 48.378906 86.105469 48.378906 C 86.027344 48.378906 85.96875 48.4375 85.871094 48.535156 L 83.644531 50.761719 L 81.398438 48.535156 C 81.300781 48.417969 81.222656 48.378906 81.164062 48.378906 C 81.027344 48.378906 80.929688 48.496094 80.929688 48.613281 C 80.929688 48.691406 80.949219 48.730469 81.085938 48.847656 L 83.3125 51.09375 L 81.085938 53.339844 C 80.96875 53.4375 80.929688 53.515625 80.929688 53.574219 C 80.929688 53.710938 81.027344 53.808594 81.164062 53.808594 C 81.242188 53.808594 81.261719 53.769531 81.398438 53.652344 Z M 83.644531 51.425781 "/>
</g>
<path style=" stroke:none;fill-rule:nonzero;fill:rgb(0%,0%,0%);fill-opacity:1;" d="M 82.632812 58.003906 L 82.769531 59 C 82.207031 59.117188 81.800781 59.304688 81.558594 59.566406 C 81.308594 59.839844 81.1875 60.175781 81.1875 60.582031 C 81.1875 61.035156 81.34375 61.421875 81.65625 61.734375 C 81.976562 62.058594 82.382812 62.222656 82.867188 62.222656 C 83.320312 62.222656 83.691406 62.070312 83.980469 61.773438 C 84.277344 61.484375 84.429688 61.113281 84.429688 60.660156 C 84.429688 60.464844 84.390625 60.230469 84.3125 59.957031 L 85.191406 60.074219 C 85.175781 60.136719 85.171875 60.191406 85.171875 60.230469 C 85.171875 60.644531 85.277344 61.023438 85.503906 61.363281 C 85.722656 61.699219 86.058594 61.871094 86.519531 61.871094 C 86.878906 61.871094 87.183594 61.746094 87.417969 61.5 C 87.652344 61.25 87.769531 60.933594 87.769531 60.542969 C 87.769531 60.164062 87.640625 59.84375 87.398438 59.585938 C 87.164062 59.335938 86.800781 59.175781 86.324219 59.097656 L 86.5 58.101562 C 87.164062 58.230469 87.675781 58.503906 88.042969 58.921875 C 88.402344 59.351562 88.589844 59.882812 88.589844 60.523438 C 88.589844 60.964844 88.492188 61.367188 88.296875 61.734375 C 88.109375 62.109375 87.855469 62.398438 87.535156 62.59375 C 87.207031 62.789062 86.859375 62.886719 86.5 62.886719 C 86.148438 62.886719 85.824219 62.789062 85.542969 62.59375 C 85.253906 62.410156 85.023438 62.136719 84.859375 61.773438 C 84.75 62.253906 84.527344 62.625 84.175781 62.886719 C 83.832031 63.144531 83.402344 63.277344 82.886719 63.277344 C 82.183594 63.277344 81.582031 63.015625 81.089844 62.496094 C 80.605469 61.988281 80.367188 61.34375 80.367188 60.5625 C 80.367188 59.859375 80.570312 59.273438 80.992188 58.804688 C 81.40625 58.335938 81.953125 58.066406 82.632812 58.003906 Z M 82.632812 58.003906 "/>
<path style=" stroke:none;fill-rule:nonzero;fill:rgb(0%,0%,0%);fill-opacity:1;" d="M 80.503906 67.757812 L 88.550781 67.757812 L 88.550781 69.359375 L 82.847656 71.253906 C 82.324219 71.433594 81.929688 71.566406 81.65625 71.644531 C 81.953125 71.734375 82.382812 71.878906 82.945312 72.074219 L 88.550781 74.007812 L 88.550781 75.433594 L 80.503906 75.433594 L 80.503906 74.417969 L 87.242188 74.417969 L 80.503906 72.074219 L 80.503906 71.117188 L 87.359375 68.773438 L 80.503906 68.773438 Z M 80.503906 67.757812 "/>
<path style=" stroke:none;fill-rule:nonzero;fill:rgb(0%,0%,0%);fill-opacity:1;" d="M 81.226562 80.839844 C 80.914062 80.472656 80.6875 80.121094 80.5625 79.785156 C 80.433594 79.445312 80.367188 79.082031 80.367188 78.691406 C 80.367188 78.050781 80.523438 77.558594 80.835938 77.207031 C 81.148438 76.867188 81.546875 76.699219 82.046875 76.699219 C 82.328125 76.699219 82.59375 76.761719 82.828125 76.894531 C 83.0625 77.023438 83.246094 77.191406 83.394531 77.402344 C 83.535156 77.609375 83.648438 77.84375 83.726562 78.105469 C 83.765625 78.300781 83.808594 78.59375 83.863281 78.984375 C 83.949219 79.789062 84.066406 80.382812 84.214844 80.761719 C 84.339844 80.761719 84.429688 80.761719 84.46875 80.761719 C 84.867188 80.761719 85.152344 80.667969 85.308594 80.488281 C 85.542969 80.226562 85.660156 79.847656 85.660156 79.355469 C 85.660156 78.886719 85.570312 78.539062 85.40625 78.320312 C 85.25 78.097656 84.960938 77.933594 84.546875 77.832031 L 84.664062 76.875 C 85.078125 76.953125 85.410156 77.089844 85.660156 77.285156 C 85.917969 77.492188 86.113281 77.785156 86.246094 78.164062 C 86.386719 78.554688 86.460938 78.996094 86.460938 79.492188 C 86.460938 80 86.402344 80.402344 86.285156 80.703125 C 86.167969 81.015625 86.015625 81.242188 85.835938 81.386719 C 85.664062 81.542969 85.445312 81.644531 85.171875 81.699219 C 85 81.738281 84.703125 81.757812 84.273438 81.757812 L 82.945312 81.757812 C 82.03125 81.757812 81.449219 81.777344 81.207031 81.816406 C 80.957031 81.855469 80.722656 81.9375 80.503906 82.070312 L 80.503906 81.035156 C 80.707031 80.929688 80.953125 80.863281 81.226562 80.839844 Z M 83.433594 80.761719 C 83.285156 80.394531 83.164062 79.855469 83.0625 79.140625 C 82.992188 78.734375 82.925781 78.449219 82.847656 78.28125 C 82.777344 78.109375 82.675781 77.980469 82.535156 77.890625 C 82.386719 77.796875 82.230469 77.753906 82.066406 77.753906 C 81.800781 77.753906 81.582031 77.851562 81.402344 78.046875 C 81.230469 78.242188 81.148438 78.535156 81.148438 78.925781 C 81.148438 79.300781 81.230469 79.640625 81.402344 79.941406 C 81.566406 80.238281 81.796875 80.460938 82.085938 80.605469 C 82.304688 80.707031 82.632812 80.761719 83.0625 80.761719 Z M 83.433594 80.761719 "/>
<path style=" stroke:none;fill-rule:nonzero;fill:rgb(0%,0%,0%);fill-opacity:1;" d="M 80.503906 82.625 L 83.53125 84.753906 L 86.34375 82.78125 L 86.34375 84.03125 L 84.976562 84.929688 C 84.710938 85.085938 84.492188 85.210938 84.3125 85.320312 C 84.554688 85.484375 84.769531 85.636719 84.957031 85.769531 L 86.34375 86.746094 L 86.34375 87.9375 L 83.589844 85.925781 L 80.503906 88.09375 L 80.503906 86.882812 L 82.320312 85.671875 L 82.808594 85.359375 L 80.503906 83.835938 Z M 80.503906 82.625 "/>
<path style=" stroke:none;fill-rule:nonzero;fill:rgb(0%,0%,0%);fill-opacity:1;" d="M 80.503906 89.03125 L 88.550781 89.03125 L 88.550781 92.078125 C 88.550781 92.609375 88.519531 93.019531 88.472656 93.308594 C 88.402344 93.699219 88.28125 94.019531 88.101562 94.285156 C 87.914062 94.558594 87.65625 94.773438 87.320312 94.929688 C 86.992188 95.09375 86.625 95.183594 86.226562 95.183594 C 85.53125 95.183594 84.957031 94.957031 84.488281 94.519531 C 84.019531 94.089844 83.785156 93.308594 83.785156 92.175781 L 83.785156 90.105469 L 80.503906 90.105469 Z M 84.722656 90.105469 L 84.722656 92.195312 C 84.722656 92.867188 84.847656 93.351562 85.113281 93.640625 C 85.371094 93.9375 85.726562 94.089844 86.1875 94.089844 C 86.523438 94.089844 86.8125 94 87.046875 93.835938 C 87.289062 93.664062 87.457031 93.433594 87.535156 93.152344 C 87.582031 92.980469 87.613281 92.648438 87.613281 92.15625 L 87.613281 90.105469 Z M 84.722656 90.105469 "/>
<path style=" stroke:none;fill-rule:nonzero;fill:rgb(0%,0%,0%);fill-opacity:1;" d="M 83.414062 96.046875 C 84.492188 96.046875 85.292969 96.34375 85.816406 96.945312 C 86.246094 97.453125 86.460938 98.0625 86.460938 98.78125 C 86.460938 99.585938 86.195312 100.246094 85.679688 100.753906 C 85.15625 101.261719 84.433594 101.515625 83.511719 101.515625 C 82.753906 101.515625 82.164062 101.398438 81.734375 101.164062 C 81.304688 100.9375 80.960938 100.617188 80.71875 100.1875 C 80.484375 99.757812 80.367188 99.289062 80.367188 98.78125 C 80.367188 97.960938 80.625 97.296875 81.148438 96.789062 C 81.679688 96.289062 82.4375 96.046875 83.414062 96.046875 Z M 83.414062 97.0625 C 82.671875 97.0625 82.109375 97.222656 81.734375 97.550781 C 81.367188 97.871094 81.1875 98.28125 81.1875 98.78125 C 81.1875 99.273438 81.367188 99.683594 81.734375 100.011719 C 82.109375 100.332031 82.679688 100.5 83.453125 100.5 C 84.164062 100.5 84.710938 100.332031 85.09375 100.011719 C 85.46875 99.683594 85.660156 99.273438 85.660156 98.78125 C 85.660156 98.28125 85.46875 97.871094 85.09375 97.550781 C 84.726562 97.222656 84.164062 97.0625 83.414062 97.0625 Z M 83.414062 97.0625 "/>
<path style=" stroke:none;fill-rule:nonzero;fill:rgb(0%,0%,0%);fill-opacity:1;" d="M 83.414062 102.304688 C 84.492188 102.304688 85.292969 102.601562 85.816406 103.203125 C 86.246094 103.710938 86.460938 104.320312 86.460938 105.039062 C 86.460938 105.84375 86.195312 106.503906 85.679688 107.011719 C 85.15625 107.519531 84.433594 107.773438 83.511719 107.773438 C 82.753906 107.773438 82.164062 107.65625 81.734375 107.421875 C 81.304688 107.195312 80.960938 106.875 80.71875 106.445312 C 80.484375 106.015625 80.367188 105.546875 80.367188 105.039062 C 80.367188 104.21875 80.625 103.554688 81.148438 103.046875 C 81.679688 102.546875 82.4375 102.304688 83.414062 102.304688 Z M 83.414062 103.320312 C 82.671875 103.320312 82.109375 103.480469 81.734375 103.808594 C 81.367188 104.128906 81.1875 104.539062 81.1875 105.039062 C 81.1875 105.53125 81.367188 105.941406 81.734375 106.269531 C 82.109375 106.589844 82.679688 106.757812 83.453125 106.757812 C 84.164062 106.757812 84.710938 106.589844 85.09375 106.269531 C 85.46875 105.941406 85.660156 105.53125 85.660156 105.039062 C 85.660156 104.539062 85.46875 104.128906 85.09375 103.808594 C 84.726562 103.480469 84.164062 103.320312 83.414062 103.320312 Z M 83.414062 103.320312 "/>
<path style=" stroke:none;fill-rule:nonzero;fill:rgb(0%,0%,0%);fill-opacity:1;" d="M 80.503906 108.914062 L 88.550781 108.914062 L 88.550781 109.890625 L 80.503906 109.890625 Z M 80.503906 108.914062 "/>
<path style="fill:none;stroke-width:1;stroke-linecap:round;stroke-linejoin:round;stroke:rgb(0%,0%,0%);stroke-opacity:1;stroke-miterlimit:10;" d="M 303.784375 -360.05625 L 303.784375 -364.753125 " transform="matrix(0,1.25,-1.25,0,-426.25,-305)"/>
<path style="fill:none;stroke-width:1;stroke-linecap:butt;stroke-linejoin:miter;stroke:rgb(0%,0%,0%);stroke-opacity:1;stroke-miterlimit:10;" d="M 303.784375 -368.753125 L 303.784375 -364.753125 M 302.284375 -364.753125 L 303.784375 -368.753125 L 305.284375 -364.753125 " transform="matrix(0,1.25,-1.25,0,-426.25,-305)"/>
<path style="fill:none;stroke-width:1;stroke-linecap:round;stroke-linejoin:round;stroke:rgb(0%,0%,0%);stroke-opacity:1;stroke-miterlimit:10;" d="M 303.784375 -388.65625 L 303.784375 -393.35625 " transform="matrix(0,1.25,-1.25,0,-426.25,-305)"/>
<path style="fill:none;stroke-width:1;stroke-linecap:butt;stroke-linejoin:miter;stroke:rgb(0%,0%,0%);stroke-opacity:1;stroke-miterlimit:10;" d="M 303.784375 -397.35625 L 303.784375 -393.35625 M 302.284375 -393.35625 L 303.784375 -397.35625 L 305.284375 -393.35625 " transform="matrix(0,1.25,-1.25,0,-426.25,-305)"/>
<path style=" stroke:none;fill-rule:nonzero;fill:rgb(40%,74.901961%,100%);fill-opacity:1;" d="M 495.878906 15.980469 L 495.878906 133.480469 L 518.378906 133.480469 L 518.378906 15.980469 Z M 495.878906 15.980469 "/>
<path style="fill:none;stroke-width:1;stroke-linecap:round;stroke-linejoin:round;stroke:rgb(0%,0%,0%);stroke-opacity:1;stroke-miterlimit:10;" d="M 256.784375 -755.703125 L 350.784375 -755.703125 L 350.784375 -737.703125 L 256.784375 -737.703125 Z M 256.784375 -755.703125 " transform="matrix(0,1.25,-1.25,0,-426.25,-305)"/>
<path style=" stroke:none;fill-rule:nonzero;fill:rgb(0%,0%,0%);fill-opacity:1;" d="M 506.726562 41 L 507.664062 41 L 507.664062 44.417969 L 504.675781 44.417969 C 504.257812 43.894531 503.945312 43.355469 503.738281 42.796875 C 503.535156 42.234375 503.425781 41.664062 503.425781 41.078125 C 503.425781 40.296875 503.59375 39.578125 503.933594 38.929688 C 504.273438 38.277344 504.761719 37.789062 505.398438 37.464844 C 506.035156 37.136719 506.753906 36.976562 507.546875 36.976562 C 508.328125 36.976562 509.058594 37.136719 509.734375 37.464844 C 510.425781 37.789062 510.933594 38.257812 511.257812 38.871094 C 511.582031 39.496094 511.746094 40.203125 511.746094 41 C 511.746094 41.585938 511.648438 42.113281 511.453125 42.582031 C 511.269531 43.050781 511.011719 43.414062 510.671875 43.675781 C 510.347656 43.949219 509.910156 44.15625 509.363281 44.300781 L 509.109375 43.34375 C 509.511719 43.210938 509.832031 43.054688 510.066406 42.875 C 510.300781 42.703125 510.488281 42.449219 510.632812 42.113281 C 510.777344 41.785156 510.847656 41.414062 510.847656 41 C 510.847656 40.515625 510.769531 40.09375 510.613281 39.730469 C 510.46875 39.378906 510.273438 39.089844 510.027344 38.871094 C 509.792969 38.660156 509.53125 38.5 509.246094 38.382812 C 508.738281 38.171875 508.199219 38.070312 507.625 38.070312 C 506.894531 38.070312 506.289062 38.191406 505.808594 38.441406 C 505.328125 38.6875 504.96875 39.046875 504.734375 39.515625 C 504.5 39.984375 504.382812 40.484375 504.382812 41.019531 C 504.382812 41.488281 504.46875 41.9375 504.636719 42.367188 C 504.820312 42.808594 505.015625 43.148438 505.222656 43.382812 L 506.726562 43.382812 Z M 506.726562 41 "/>
<path style=" stroke:none;fill-rule:nonzero;fill:rgb(0%,0%,0%);fill-opacity:1;" d="M 503.5625 45.84375 L 511.609375 45.84375 L 511.609375 46.820312 L 503.5625 46.820312 Z M 503.5625 45.84375 "/>
<path style=" stroke:none;fill-rule:nonzero;fill:rgb(0%,0%,0%);fill-opacity:1;" d="M 506.472656 47.992188 C 507.554688 47.992188 508.355469 48.289062 508.875 48.890625 C 509.304688 49.398438 509.519531 50.007812 509.519531 50.726562 C 509.519531 51.53125 509.257812 52.191406 508.738281 52.699219 C 508.21875 53.207031 507.496094 53.460938 506.570312 53.460938 C 505.816406 53.460938 505.222656 53.34375 504.792969 53.109375 C 504.363281 52.886719 504.023438 52.5625 503.777344 52.132812 C 503.542969 51.703125 503.425781 51.234375 503.425781 50.726562 C 503.425781 49.90625 503.6875 49.242188 504.207031 48.734375 C 504.742188 48.238281 505.496094 47.992188 506.472656 47.992188 Z M 506.472656 49.007812 C 505.730469 49.007812 505.171875 49.167969 504.792969 49.496094 C 504.429688 49.820312 504.246094 50.230469 504.246094 50.726562 C 504.246094 51.21875 504.429688 51.628906 504.792969 51.957031 C 505.171875 52.28125 505.742188 52.445312 506.511719 52.445312 C 507.226562 52.445312 507.773438 52.28125 508.152344 51.957031 C 508.53125 51.628906 508.71875 51.21875 508.71875 50.726562 C 508.71875 50.230469 508.53125 49.820312 508.152344 49.496094 C 507.789062 49.167969 507.226562 49.007812 506.472656 49.007812 Z M 506.472656 49.007812 "/>
<path style=" stroke:none;fill-rule:nonzero;fill:rgb(0%,0%,0%);fill-opacity:1;" d="M 503.5625 55.539062 L 503.5625 54.621094 L 511.609375 54.621094 L 511.609375 55.597656 L 508.738281 55.597656 C 509.257812 56.011719 509.519531 56.542969 509.519531 57.199219 C 509.519531 57.558594 509.449219 57.902344 509.304688 58.214844 C 509.160156 58.535156 508.960938 58.804688 508.699219 59.015625 C 508.4375 59.21875 508.121094 59.386719 507.742188 59.503906 C 507.378906 59.621094 506.988281 59.679688 506.570312 59.679688 C 505.566406 59.679688 504.792969 59.429688 504.246094 58.9375 C 503.699219 58.4375 503.425781 57.847656 503.425781 57.160156 C 503.425781 56.464844 503.710938 55.929688 504.285156 55.539062 Z M 506.53125 55.519531 C 505.828125 55.519531 505.320312 55.617188 505.007812 55.8125 C 504.5 56.125 504.246094 56.539062 504.246094 57.0625 C 504.246094 57.5 504.433594 57.882812 504.8125 58.195312 C 505.191406 58.507812 505.75 58.664062 506.492188 58.664062 C 507.246094 58.664062 507.808594 58.511719 508.171875 58.214844 C 508.535156 57.910156 508.71875 57.550781 508.71875 57.121094 C 508.71875 56.675781 508.53125 56.300781 508.152344 55.988281 C 507.773438 55.675781 507.234375 55.519531 506.53125 55.519531 Z M 506.53125 55.519531 "/>
<path style=" stroke:none;fill-rule:nonzero;fill:rgb(0%,0%,0%);fill-opacity:1;" d="M 504.285156 64.6875 C 503.972656 64.320312 503.75 63.96875 503.621094 63.632812 C 503.496094 63.289062 503.425781 62.929688 503.425781 62.539062 C 503.425781 61.898438 503.582031 61.40625 503.894531 61.054688 C 504.207031 60.710938 504.609375 60.546875 505.105469 60.546875 C 505.390625 60.546875 505.652344 60.609375 505.886719 60.742188 C 506.121094 60.867188 506.308594 61.039062 506.453125 61.25 C 506.597656 61.453125 506.707031 61.6875 506.785156 61.953125 C 506.824219 62.148438 506.871094 62.441406 506.921875 62.832031 C 507.011719 63.636719 507.128906 64.226562 507.273438 64.609375 C 507.402344 64.609375 507.488281 64.609375 507.527344 64.609375 C 507.929688 64.609375 508.210938 64.515625 508.367188 64.335938 C 508.601562 64.070312 508.71875 63.695312 508.71875 63.203125 C 508.71875 62.734375 508.632812 62.386719 508.464844 62.167969 C 508.308594 61.941406 508.023438 61.78125 507.605469 61.679688 L 507.722656 60.722656 C 508.140625 60.800781 508.472656 60.9375 508.71875 61.132812 C 508.980469 61.335938 509.175781 61.628906 509.304688 62.011719 C 509.449219 62.402344 509.519531 62.839844 509.519531 63.339844 C 509.519531 63.847656 509.460938 64.246094 509.34375 64.550781 C 509.226562 64.863281 509.078125 65.085938 508.894531 65.234375 C 508.726562 65.390625 508.503906 65.492188 508.230469 65.546875 C 508.0625 65.585938 507.761719 65.605469 507.332031 65.605469 L 506.003906 65.605469 C 505.09375 65.605469 504.511719 65.625 504.265625 65.664062 C 504.019531 65.703125 503.785156 65.785156 503.5625 65.917969 L 503.5625 64.882812 C 503.769531 64.773438 504.011719 64.710938 504.285156 64.6875 Z M 506.492188 64.609375 C 506.347656 64.242188 506.226562 63.699219 506.121094 62.988281 C 506.054688 62.582031 505.984375 62.292969 505.90625 62.128906 C 505.839844 61.957031 505.738281 61.824219 505.59375 61.738281 C 505.449219 61.644531 505.292969 61.601562 505.125 61.601562 C 504.863281 61.601562 504.644531 61.699219 504.460938 61.894531 C 504.292969 62.089844 504.207031 62.382812 504.207031 62.773438 C 504.207031 63.148438 504.292969 63.484375 504.460938 63.789062 C 504.628906 64.085938 504.859375 64.304688 505.144531 64.453125 C 505.367188 64.554688 505.691406 64.609375 506.121094 64.609375 Z M 506.492188 64.609375 "/>
<path style=" stroke:none;fill-rule:nonzero;fill:rgb(0%,0%,0%);fill-opacity:1;" d="M 503.5625 67.117188 L 511.609375 67.117188 L 511.609375 68.09375 L 503.5625 68.09375 Z M 503.5625 67.117188 "/>
<path style=" stroke:none;fill-rule:nonzero;fill:rgb(0%,0%,0%);fill-opacity:1;" d="M 503.5625 71.378906 L 511.609375 74.484375 L 511.609375 75.617188 L 503.5625 78.917969 L 503.5625 77.707031 L 506.003906 76.769531 L 506.003906 73.390625 L 503.5625 72.511719 Z M 506.863281 73.703125 L 506.863281 76.4375 L 509.109375 75.597656 C 509.785156 75.332031 510.339844 75.148438 510.769531 75.03125 C 510.25 74.921875 509.734375 74.777344 509.226562 74.582031 Z M 506.863281 73.703125 "/>
<path style=" stroke:none;fill-rule:nonzero;fill:rgb(0%,0%,0%);fill-opacity:1;" d="M 503.5625 81.0625 L 509.402344 78.835938 L 509.402344 79.890625 L 505.90625 81.140625 C 505.527344 81.265625 505.136719 81.394531 504.734375 81.511719 C 505.035156 81.597656 505.398438 81.726562 505.828125 81.882812 L 509.402344 83.171875 L 509.402344 84.1875 L 503.5625 81.980469 Z M 503.5625 81.0625 "/>
<path style=" stroke:none;fill-rule:nonzero;fill:rgb(0%,0%,0%);fill-opacity:1;" d="M 505.4375 89.050781 L 505.320312 90.085938 C 504.722656 89.914062 504.253906 89.605469 503.914062 89.167969 C 503.589844 88.738281 503.425781 88.179688 503.425781 87.507812 C 503.425781 86.65625 503.6875 85.984375 504.207031 85.476562 C 504.742188 84.976562 505.484375 84.734375 506.433594 84.734375 C 507.410156 84.734375 508.164062 84.988281 508.699219 85.496094 C 509.246094 86.003906 509.519531 86.65625 509.519531 87.46875 C 509.519531 88.25 509.253906 88.878906 508.71875 89.363281 C 508.199219 89.855469 507.457031 90.105469 506.492188 90.105469 C 506.425781 90.105469 506.335938 90.105469 506.21875 90.105469 L 506.21875 85.75 C 505.582031 85.789062 505.09375 85.96875 504.753906 86.296875 C 504.414062 86.617188 504.246094 87.027344 504.246094 87.527344 C 504.246094 87.886719 504.335938 88.195312 504.519531 88.445312 C 504.714844 88.703125 505.019531 88.902344 505.4375 89.050781 Z M 507.039062 85.808594 L 507.039062 89.070312 C 507.535156 89.03125 507.90625 88.902344 508.152344 88.699219 C 508.53125 88.386719 508.71875 87.976562 508.71875 87.46875 C 508.71875 87.007812 508.5625 86.628906 508.25 86.316406 C 507.949219 86.011719 507.546875 85.847656 507.039062 85.808594 Z M 507.039062 85.808594 "/>
<path style=" stroke:none;fill-rule:nonzero;fill:rgb(0%,0%,0%);fill-opacity:1;" d="M 503.5625 91.441406 L 511.609375 91.441406 L 511.609375 94.488281 C 511.609375 95.019531 511.582031 95.429688 511.53125 95.71875 C 511.464844 96.109375 511.34375 96.429688 511.160156 96.695312 C 510.976562 96.96875 510.71875 97.183594 510.378906 97.339844 C 510.054688 97.503906 509.6875 97.59375 509.285156 97.59375 C 508.59375 97.59375 508.015625 97.367188 507.546875 96.929688 C 507.078125 96.5 506.84375 95.71875 506.84375 94.585938 L 506.84375 92.515625 L 503.5625 92.515625 Z M 507.78125 92.515625 L 507.78125 94.605469 C 507.78125 95.277344 507.910156 95.761719 508.171875 96.050781 C 508.433594 96.347656 508.789062 96.5 509.246094 96.5 C 509.585938 96.5 509.871094 96.410156 510.105469 96.246094 C 510.351562 96.074219 510.515625 95.84375 510.59375 95.5625 C 510.644531 95.390625 510.671875 95.058594 510.671875 94.566406 L 510.671875 92.515625 Z M 507.78125 92.515625 "/>
<path style=" stroke:none;fill-rule:nonzero;fill:rgb(0%,0%,0%);fill-opacity:1;" d="M 506.472656 98.457031 C 507.554688 98.457031 508.355469 98.753906 508.875 99.355469 C 509.304688 99.863281 509.519531 100.472656 509.519531 101.191406 C 509.519531 101.996094 509.257812 102.65625 508.738281 103.164062 C 508.21875 103.671875 507.496094 103.925781 506.570312 103.925781 C 505.816406 103.925781 505.222656 103.808594 504.792969 103.574219 C 504.363281 103.347656 504.023438 103.027344 503.777344 102.597656 C 503.542969 102.167969 503.425781 101.699219 503.425781 101.191406 C 503.425781 100.371094 503.6875 99.707031 504.207031 99.199219 C 504.742188 98.699219 505.496094 98.457031 506.472656 98.457031 Z M 506.472656 99.472656 C 505.730469 99.472656 505.171875 99.632812 504.792969 99.960938 C 504.429688 100.28125 504.246094 100.691406 504.246094 101.191406 C 504.246094 101.683594 504.429688 102.09375 504.792969 102.421875 C 505.171875 102.742188 505.742188 102.910156 506.511719 102.910156 C 507.226562 102.910156 507.773438 102.742188 508.152344 102.421875 C 508.53125 102.09375 508.71875 101.683594 508.71875 101.191406 C 508.71875 100.691406 508.53125 100.28125 508.152344 99.960938 C 507.789062 99.632812 507.226562 99.472656 506.472656 99.472656 Z M 506.472656 99.472656 "/>
<path style=" stroke:none;fill-rule:nonzero;fill:rgb(0%,0%,0%);fill-opacity:1;" d="M 506.472656 104.710938 C 507.554688 104.710938 508.355469 105.011719 508.875 105.609375 C 509.304688 106.117188 509.519531 106.730469 509.519531 107.445312 C 509.519531 108.253906 509.257812 108.910156 508.738281 109.417969 C 508.21875 109.925781 507.496094 110.179688 506.570312 110.179688 C 505.816406 110.179688 505.222656 110.0625 504.792969 109.828125 C 504.363281 109.605469 504.023438 109.28125 503.777344 108.851562 C 503.542969 108.421875 503.425781 107.953125 503.425781 107.445312 C 503.425781 106.625 503.6875 105.960938 504.207031 105.453125 C 504.742188 104.957031 505.496094 104.710938 506.472656 104.710938 Z M 506.472656 105.726562 C 505.730469 105.726562 505.171875 105.890625 504.792969 106.214844 C 504.429688 106.539062 504.246094 106.949219 504.246094 107.445312 C 504.246094 107.941406 504.429688 108.351562 504.792969 108.675781 C 505.171875 109 505.742188 109.164062 506.511719 109.164062 C 507.226562 109.164062 507.773438 109 508.152344 108.675781 C 508.53125 108.351562 508.71875 107.941406 508.71875 107.445312 C 508.71875 106.949219 508.53125 106.539062 508.152344 106.214844 C 507.789062 105.890625 507.226562 105.726562 506.472656 105.726562 Z M 506.472656 105.726562 "/>
<path style=" stroke:none;fill-rule:nonzero;fill:rgb(0%,0%,0%);fill-opacity:1;" d="M 503.5625 111.320312 L 511.609375 111.320312 L 511.609375 112.296875 L 503.5625 112.296875 Z M 503.5625 111.320312 "/>
<path style="fill:none;stroke-width:1;stroke-linecap:round;stroke-linejoin:round;stroke:rgb(0%,0%,0%);stroke-opacity:1;stroke-miterlimit:10;" d="M 303.653125 -725.8375 L 303.6875 -731.80625 " transform="matrix(0,1.25,-1.25,0,-426.25,-305)"/>
<path style="fill:none;stroke-width:1;stroke-linecap:butt;stroke-linejoin:miter;stroke:rgb(0%,0%,0%);stroke-opacity:1;stroke-miterlimit:10;" d="M 303.715625 -735.80625 L 303.6875 -731.80625 M 302.1875 -731.8125 L 303.715625 -735.80625 L 305.1875 -731.79375 " transform="matrix(0,1.25,-1.25,0,-426.25,-305)"/>
<path style="fill:none;stroke-width:1;stroke-linecap:round;stroke-linejoin:round;stroke:rgb(0%,0%,0%);stroke-opacity:1;stroke-miterlimit:10;" d="M 256.465625 -785.575 L 350.465625 -785.575 L 350.465625 -767.575 L 256.465625 -767.575 Z M 256.465625 -785.575 " transform="matrix(0,1.25,-1.25,0,-426.25,-305)"/>
<path style=" stroke:none;fill-rule:nonzero;fill:rgb(0%,0%,0%);fill-opacity:1;" d="M 540.902344 67.75 L 548.949219 67.75 L 548.949219 73.179688 L 548.011719 73.179688 L 548.011719 68.824219 L 545.511719 68.824219 L 545.511719 72.59375 L 544.554688 72.59375 L 544.554688 68.824219 L 540.902344 68.824219 Z M 540.902344 67.75 "/>
<path style=" stroke:none;fill-rule:nonzero;fill:rgb(0%,0%,0%);fill-opacity:1;" d="M 543.734375 80.324219 L 543.460938 81.378906 C 542.585938 81.15625 541.917969 80.753906 541.449219 80.167969 C 540.988281 79.59375 540.765625 78.882812 540.765625 78.039062 C 540.765625 77.179688 540.941406 76.476562 541.292969 75.929688 C 541.644531 75.382812 542.152344 74.964844 542.816406 74.679688 C 543.488281 74.40625 544.210938 74.269531 544.984375 74.269531 C 545.828125 74.269531 546.566406 74.425781 547.191406 74.738281 C 547.816406 75.0625 548.285156 75.519531 548.597656 76.105469 C 548.917969 76.703125 549.085938 77.355469 549.085938 78.058594 C 549.085938 78.863281 548.875 79.542969 548.460938 80.089844 C 548.054688 80.648438 547.484375 81.03125 546.742188 81.242188 L 546.507812 80.1875 C 547.09375 80.003906 547.511719 79.738281 547.777344 79.386719 C 548.050781 79.035156 548.1875 78.585938 548.1875 78.039062 C 548.1875 77.425781 548.035156 76.910156 547.738281 76.496094 C 547.433594 76.078125 547.035156 75.785156 546.527344 75.617188 C 546.027344 75.445312 545.519531 75.363281 545.003906 75.363281 C 544.308594 75.363281 543.703125 75.460938 543.1875 75.65625 C 542.679688 75.863281 542.296875 76.175781 542.054688 76.59375 C 541.804688 77.007812 541.683594 77.464844 541.683594 77.960938 C 541.683594 78.558594 541.847656 79.058594 542.191406 79.464844 C 542.542969 79.878906 543.054688 80.167969 543.734375 80.324219 Z M 543.734375 80.324219 "/>
<path style="fill:none;stroke-width:1;stroke-linecap:round;stroke-linejoin:round;stroke:rgb(0%,0%,0%);stroke-opacity:1;stroke-miterlimit:10;" d="M 303.6875 -755.703125 L 303.625 -761.675 " transform="matrix(0,1.25,-1.25,0,-426.25,-305)"/>
<path style="fill:none;stroke-width:1;stroke-linecap:butt;stroke-linejoin:miter;stroke:rgb(0%,0%,0%);stroke-opacity:1;stroke-miterlimit:10;" d="M 303.58125 -765.675 L 303.625 -761.675 M 302.125 -761.659375 L 303.58125 -765.675 L 305.125 -761.690625 " transform="matrix(0,1.25,-1.25,0,-426.25,-305)"/>
<path style="fill:none;stroke-width:1;stroke-linecap:round;stroke-linejoin:round;stroke:rgb(0%,0%,0%);stroke-opacity:1;stroke-miterlimit:10;" d="M 303.725 -417.253125 L 303.675 -424.659375 " transform="matrix(0,1.25,-1.25,0,-426.25,-305)"/>
<path style="fill:none;stroke-width:1;stroke-linecap:butt;stroke-linejoin:miter;stroke:rgb(0%,0%,0%);stroke-opacity:1;stroke-miterlimit:10;" d="M 303.6625 -426.2625 L 303.675 -424.659375 M 303.075 -424.65625 L 303.6625 -426.2625 L 304.275 -424.6625 " transform="matrix(0,1.25,-1.25,0,-426.25,-305)"/>
<path style="fill:none;stroke-width:1;stroke-linecap:round;stroke-linejoin:miter;stroke:rgb(0%,0%,0%);stroke-opacity:1;stroke-miterlimit:10;" d="M 257.4375 -717.90625 L 257.675 -541.675 " transform="matrix(0,1.25,-1.25,0,-426.25,-305)"/>
<path style="fill:none;stroke-width:1;stroke-linecap:butt;stroke-linejoin:miter;stroke:rgb(0%,0%,0%);stroke-opacity:1;stroke-miterlimit:10;" d="M 257.675 -541.675 L 257.684375 -533.675 M 252.684375 -533.671875 L 262.684375 -533.684375 M 255.675 -541.675 L 257.684375 -534.675 L 259.675 -541.68125 " transform="matrix(0,1.25,-1.25,0,-426.25,-305)"/>
<path style="fill:none;stroke-width:1;stroke-linecap:butt;stroke-linejoin:miter;stroke:rgb(0%,0%,0%);stroke-opacity:1;stroke-miterlimit:10;" d="M 257.4375 -717.90625 L 257.484375 -725.903125 M 262.484375 -725.875 L 252.484375 -725.934375 M 259.4375 -717.890625 L 257.48125 -724.903125 L 255.4375 -717.91875 " transform="matrix(0,1.25,-1.25,0,-426.25,-305)"/>
<path style=" stroke:none;fill-rule:nonzero;fill:rgb(100%,100%,100%);fill-opacity:1;" d="M 372.363281 1.097656 L 372.910156 32.347656 L 347.546875 32.792969 L 347 1.539062 Z M 372.363281 1.097656 "/>
<path style=" stroke:none;fill-rule:nonzero;fill:rgb(0%,0%,0%);fill-opacity:1;" d="M 352.632812 18.519531 L 353.628906 18.363281 C 353.757812 18.921875 353.953125 19.328125 354.214844 19.574219 C 354.488281 19.808594 354.824219 19.917969 355.230469 19.90625 C 355.683594 19.90625 356.070312 19.742188 356.382812 19.417969 C 356.707031 19.09375 356.863281 18.6875 356.851562 18.207031 C 356.835938 17.75 356.679688 17.378906 356.382812 17.09375 C 356.082031 16.808594 355.703125 16.664062 355.25 16.664062 C 355.054688 16.664062 354.824219 16.710938 354.566406 16.800781 L 354.664062 15.921875 C 354.726562 15.933594 354.78125 15.941406 354.820312 15.941406 C 355.234375 15.929688 355.605469 15.8125 355.933594 15.589844 C 356.269531 15.355469 356.441406 15.011719 356.441406 14.554688 C 356.425781 14.191406 356.296875 13.898438 356.050781 13.675781 C 355.800781 13.441406 355.484375 13.324219 355.09375 13.324219 C 354.714844 13.335938 354.394531 13.46875 354.136719 13.714844 C 353.886719 13.960938 353.730469 14.328125 353.667969 14.808594 L 352.671875 14.632812 C 352.789062 13.96875 353.054688 13.453125 353.472656 13.089844 C 353.886719 12.710938 354.414062 12.515625 355.054688 12.503906 C 355.496094 12.503906 355.898438 12.59375 356.265625 12.777344 C 356.640625 12.960938 356.929688 13.214844 357.125 13.539062 C 357.332031 13.851562 357.441406 14.191406 357.457031 14.554688 C 357.457031 14.90625 357.363281 15.230469 357.183594 15.53125 C 357 15.816406 356.726562 16.046875 356.363281 16.214844 C 356.84375 16.320312 357.214844 16.539062 357.476562 16.878906 C 357.75 17.21875 357.890625 17.648438 357.90625 18.167969 C 357.917969 18.871094 357.671875 19.46875 357.164062 19.964844 C 356.65625 20.460938 356.011719 20.710938 355.230469 20.726562 C 354.527344 20.734375 353.933594 20.542969 353.453125 20.140625 C 352.984375 19.722656 352.710938 19.183594 352.632812 18.519531 Z M 352.632812 18.519531 "/>
<g clip-path="url(#clip3)" clip-rule="nonzero">
<g clip-path="url(#clip4)" clip-rule="nonzero">
<g clip-path="url(#clip5)" clip-rule="nonzero">
<g clip-path="url(#clip6)" clip-rule="nonzero">
<path style=" stroke:none;fill-rule:nonzero;fill:rgb(0%,0%,0%);fill-opacity:1;" d="M 365.027344 17.425781 L 367.234375 15.160156 C 367.332031 15.023438 367.371094 15.003906 367.371094 14.925781 C 367.371094 14.789062 367.253906 14.691406 367.136719 14.691406 C 367.058594 14.691406 367 14.730469 366.902344 14.847656 L 364.695312 17.113281 L 362.410156 14.925781 C 362.292969 14.789062 362.253906 14.769531 362.175781 14.769531 C 362.058594 14.769531 361.941406 14.886719 361.941406 15.023438 C 361.941406 15.101562 362 15.140625 362.117188 15.238281 L 364.363281 17.425781 L 362.175781 19.710938 C 362.078125 19.828125 362.039062 19.90625 362.039062 19.964844 C 362.039062 20.101562 362.15625 20.179688 362.273438 20.179688 C 362.351562 20.179688 362.390625 20.160156 362.507812 20.023438 L 364.714844 17.757812 L 367 19.945312 C 367.097656 20.0625 367.175781 20.101562 367.234375 20.101562 C 367.371094 20.101562 367.46875 20.003906 367.46875 19.867188 C 367.46875 19.789062 367.429688 19.769531 367.292969 19.632812 Z M 365.027344 17.425781 "/>
<path style=" stroke:none;fill-rule:nonzero;fill:rgb(0%,0%,0%);fill-opacity:1;" d="M 365.027344 17.425781 L 367.234375 15.160156 C 367.332031 15.023438 367.371094 15.003906 367.371094 14.925781 C 367.371094 14.789062 367.253906 14.691406 367.136719 14.691406 C 367.058594 14.691406 367 14.730469 366.902344 14.847656 L 364.695312 17.113281 L 362.410156 14.925781 C 362.292969 14.789062 362.253906 14.769531 362.175781 14.769531 C 362.058594 14.769531 361.941406 14.886719 361.941406 15.023438 C 361.941406 15.101562 362 15.140625 362.117188 15.238281 L 364.363281 17.425781 L 362.175781 19.710938 C 362.078125 19.828125 362.039062 19.90625 362.039062 19.964844 C 362.039062 20.101562 362.15625 20.179688 362.273438 20.179688 C 362.351562 20.179688 362.390625 20.160156 362.507812 20.023438 L 364.714844 17.757812 L 367 19.945312 C 367.097656 20.0625 367.175781 20.101562 367.234375 20.101562 C 367.371094 20.101562 367.46875 20.003906 367.46875 19.867188 C 367.46875 19.789062 367.429688 19.769531 367.292969 19.632812 Z M 365.027344 17.425781 "/>
</g>
</g>
</g>
</g>
<path style="fill:none;stroke-width:1;stroke-linecap:round;stroke-linejoin:miter;stroke:rgb(0%,0%,0%);stroke-opacity:1;stroke-miterlimit:10;" d="M 257.309375 -514.14375 L 257.4125 -432.7375 " transform="matrix(0,1.25,-1.25,0,-426.25,-305)"/>
<path style="fill:none;stroke-width:1;stroke-linecap:butt;stroke-linejoin:miter;stroke:rgb(0%,0%,0%);stroke-opacity:1;stroke-miterlimit:10;" d="M 257.4125 -432.7375 L 257.425 -424.7375 M 252.425 -424.73125 L 262.425 -424.746875 M 255.4125 -432.734375 L 257.421875 -425.7375 L 259.4125 -432.74375 " transform="matrix(0,1.25,-1.25,0,-426.25,-305)"/>
<path style="fill:none;stroke-width:1;stroke-linecap:butt;stroke-linejoin:miter;stroke:rgb(0%,0%,0%);stroke-opacity:1;stroke-miterlimit:10;" d="M 257.309375 -514.14375 L 257.359375 -522.14375 M 262.359375 -522.1125 L 252.359375 -522.175 M 259.309375 -514.13125 L 257.35 -521.14375 L 255.309375 -514.15625 " transform="matrix(0,1.25,-1.25,0,-426.25,-305)"/>
<path style=" stroke:none;fill-rule:nonzero;fill:rgb(100%,100%,100%);fill-opacity:1;" d="M 177.597656 0.855469 L 178.140625 32.109375 L 152.777344 32.546875 L 152.230469 1.296875 Z M 177.597656 0.855469 "/>
<path style=" stroke:none;fill-rule:nonzero;fill:rgb(0%,0%,0%);fill-opacity:1;" d="M 163.078125 19.351562 L 163.097656 20.308594 L 157.765625 20.40625 C 157.765625 20.171875 157.796875 19.945312 157.863281 19.722656 C 158.003906 19.34375 158.21875 18.980469 158.507812 18.628906 C 158.804688 18.277344 159.230469 17.867188 159.777344 17.398438 C 160.636719 16.65625 161.214844 16.078125 161.515625 15.660156 C 161.8125 15.230469 161.964844 14.828125 161.964844 14.449219 C 161.949219 14.058594 161.800781 13.734375 161.515625 13.472656 C 161.242188 13.210938 160.882812 13.082031 160.441406 13.082031 C 159.957031 13.09375 159.574219 13.25 159.289062 13.550781 C 159 13.835938 158.863281 14.234375 158.878906 14.742188 L 157.863281 14.644531 C 157.914062 13.875 158.160156 13.289062 158.605469 12.886719 C 159.058594 12.484375 159.671875 12.273438 160.441406 12.261719 C 161.207031 12.25 161.820312 12.457031 162.277344 12.886719 C 162.730469 13.304688 162.964844 13.824219 162.980469 14.449219 C 162.980469 14.773438 162.914062 15.09375 162.785156 15.40625 C 162.667969 15.71875 162.457031 16.050781 162.160156 16.402344 C 161.859375 16.753906 161.363281 17.234375 160.675781 17.847656 C 160.074219 18.355469 159.691406 18.699219 159.523438 18.882812 C 159.367188 19.066406 159.234375 19.242188 159.132812 19.410156 Z M 163.078125 19.351562 "/>
<g clip-path="url(#clip7)" clip-rule="nonzero">
<g clip-path="url(#clip8)" clip-rule="nonzero">
<g clip-path="url(#clip9)" clip-rule="nonzero">
<g clip-path="url(#clip10)" clip-rule="nonzero">
<path style=" stroke:none;fill-rule:nonzero;fill:rgb(0%,0%,0%);fill-opacity:1;" d="M 170.015625 17.046875 L 172.222656 14.78125 C 172.320312 14.644531 172.359375 14.625 172.359375 14.546875 C 172.359375 14.410156 172.242188 14.3125 172.125 14.3125 C 172.046875 14.3125 171.988281 14.351562 171.890625 14.46875 L 169.683594 16.734375 L 167.398438 14.546875 C 167.28125 14.410156 167.242188 14.390625 167.164062 14.390625 C 167.046875 14.390625 166.929688 14.507812 166.929688 14.644531 C 166.929688 14.722656 166.988281 14.761719 167.105469 14.859375 L 169.351562 17.046875 L 167.164062 19.332031 C 167.066406 19.449219 167.027344 19.527344 167.027344 19.585938 C 167.027344 19.722656 167.144531 19.800781 167.261719 19.800781 C 167.339844 19.800781 167.378906 19.78125 167.496094 19.644531 L 169.703125 17.378906 L 171.988281 19.566406 C 172.085938 19.683594 172.164062 19.722656 172.222656 19.722656 C 172.359375 19.722656 172.457031 19.625 172.457031 19.488281 C 172.457031 19.410156 172.417969 19.390625 172.28125 19.253906 Z M 170.015625 17.046875 "/>
<path style=" stroke:none;fill-rule:nonzero;fill:rgb(0%,0%,0%);fill-opacity:1;" d="M 170.015625 17.046875 L 172.222656 14.78125 C 172.320312 14.644531 172.359375 14.625 172.359375 14.546875 C 172.359375 14.410156 172.242188 14.3125 172.125 14.3125 C 172.046875 14.3125 171.988281 14.351562 171.890625 14.46875 L 169.683594 16.734375 L 167.398438 14.546875 C 167.28125 14.410156 167.242188 14.390625 167.164062 14.390625 C 167.046875 14.390625 166.929688 14.507812 166.929688 14.644531 C 166.929688 14.722656 166.988281 14.761719 167.105469 14.859375 L 169.351562 17.046875 L 167.164062 19.332031 C 167.066406 19.449219 167.027344 19.527344 167.027344 19.585938 C 167.027344 19.722656 167.144531 19.800781 167.261719 19.800781 C 167.339844 19.800781 167.378906 19.78125 167.496094 19.644531 L 169.703125 17.378906 L 171.988281 19.566406 C 172.085938 19.683594 172.164062 19.722656 172.222656 19.722656 C 172.359375 19.722656 172.457031 19.625 172.457031 19.488281 C 172.457031 19.410156 172.417969 19.390625 172.28125 19.253906 Z M 170.015625 17.046875 "/>
</g>
</g>
</g>
</g>
</g>
</svg>
